%TF.GenerationSoftware,KiCad,Pcbnew,7.0.7*%
%TF.CreationDate,2023-09-23T14:44:52-07:00*%
%TF.ProjectId,Nitrox_Board,4e697472-6f78-45f4-926f-6172642e6b69,rev?*%
%TF.SameCoordinates,Original*%
%TF.FileFunction,Legend,Top*%
%TF.FilePolarity,Positive*%
%FSLAX46Y46*%
G04 Gerber Fmt 4.6, Leading zero omitted, Abs format (unit mm)*
G04 Created by KiCad (PCBNEW 7.0.7) date 2023-09-23 14:44:52*
%MOMM*%
%LPD*%
G01*
G04 APERTURE LIST*
%ADD10C,0.150000*%
%ADD11C,0.120000*%
G04 APERTURE END LIST*
D10*
X156737619Y-100524819D02*
X156737619Y-99524819D01*
X156737619Y-99524819D02*
X156975714Y-99524819D01*
X156975714Y-99524819D02*
X157118571Y-99572438D01*
X157118571Y-99572438D02*
X157213809Y-99667676D01*
X157213809Y-99667676D02*
X157261428Y-99762914D01*
X157261428Y-99762914D02*
X157309047Y-99953390D01*
X157309047Y-99953390D02*
X157309047Y-100096247D01*
X157309047Y-100096247D02*
X157261428Y-100286723D01*
X157261428Y-100286723D02*
X157213809Y-100381961D01*
X157213809Y-100381961D02*
X157118571Y-100477200D01*
X157118571Y-100477200D02*
X156975714Y-100524819D01*
X156975714Y-100524819D02*
X156737619Y-100524819D01*
X157737619Y-100524819D02*
X157737619Y-99524819D01*
X158166190Y-100477200D02*
X158309047Y-100524819D01*
X158309047Y-100524819D02*
X158547142Y-100524819D01*
X158547142Y-100524819D02*
X158642380Y-100477200D01*
X158642380Y-100477200D02*
X158689999Y-100429580D01*
X158689999Y-100429580D02*
X158737618Y-100334342D01*
X158737618Y-100334342D02*
X158737618Y-100239104D01*
X158737618Y-100239104D02*
X158689999Y-100143866D01*
X158689999Y-100143866D02*
X158642380Y-100096247D01*
X158642380Y-100096247D02*
X158547142Y-100048628D01*
X158547142Y-100048628D02*
X158356666Y-100001009D01*
X158356666Y-100001009D02*
X158261428Y-99953390D01*
X158261428Y-99953390D02*
X158213809Y-99905771D01*
X158213809Y-99905771D02*
X158166190Y-99810533D01*
X158166190Y-99810533D02*
X158166190Y-99715295D01*
X158166190Y-99715295D02*
X158213809Y-99620057D01*
X158213809Y-99620057D02*
X158261428Y-99572438D01*
X158261428Y-99572438D02*
X158356666Y-99524819D01*
X158356666Y-99524819D02*
X158594761Y-99524819D01*
X158594761Y-99524819D02*
X158737618Y-99572438D01*
X159166190Y-100524819D02*
X159166190Y-99524819D01*
X159166190Y-99524819D02*
X159547142Y-99524819D01*
X159547142Y-99524819D02*
X159642380Y-99572438D01*
X159642380Y-99572438D02*
X159689999Y-99620057D01*
X159689999Y-99620057D02*
X159737618Y-99715295D01*
X159737618Y-99715295D02*
X159737618Y-99858152D01*
X159737618Y-99858152D02*
X159689999Y-99953390D01*
X159689999Y-99953390D02*
X159642380Y-100001009D01*
X159642380Y-100001009D02*
X159547142Y-100048628D01*
X159547142Y-100048628D02*
X159166190Y-100048628D01*
X160689999Y-100524819D02*
X160118571Y-100524819D01*
X160404285Y-100524819D02*
X160404285Y-99524819D01*
X160404285Y-99524819D02*
X160309047Y-99667676D01*
X160309047Y-99667676D02*
X160213809Y-99762914D01*
X160213809Y-99762914D02*
X160118571Y-99810533D01*
X158639048Y-75174819D02*
X158639048Y-74508152D01*
X158639048Y-74174819D02*
X158591429Y-74222438D01*
X158591429Y-74222438D02*
X158639048Y-74270057D01*
X158639048Y-74270057D02*
X158686667Y-74222438D01*
X158686667Y-74222438D02*
X158639048Y-74174819D01*
X158639048Y-74174819D02*
X158639048Y-74270057D01*
X159067619Y-74270057D02*
X159115238Y-74222438D01*
X159115238Y-74222438D02*
X159210476Y-74174819D01*
X159210476Y-74174819D02*
X159448571Y-74174819D01*
X159448571Y-74174819D02*
X159543809Y-74222438D01*
X159543809Y-74222438D02*
X159591428Y-74270057D01*
X159591428Y-74270057D02*
X159639047Y-74365295D01*
X159639047Y-74365295D02*
X159639047Y-74460533D01*
X159639047Y-74460533D02*
X159591428Y-74603390D01*
X159591428Y-74603390D02*
X159020000Y-75174819D01*
X159020000Y-75174819D02*
X159639047Y-75174819D01*
X160496190Y-75127200D02*
X160400952Y-75174819D01*
X160400952Y-75174819D02*
X160210476Y-75174819D01*
X160210476Y-75174819D02*
X160115238Y-75127200D01*
X160115238Y-75127200D02*
X160067619Y-75079580D01*
X160067619Y-75079580D02*
X160020000Y-74984342D01*
X160020000Y-74984342D02*
X160020000Y-74698628D01*
X160020000Y-74698628D02*
X160067619Y-74603390D01*
X160067619Y-74603390D02*
X160115238Y-74555771D01*
X160115238Y-74555771D02*
X160210476Y-74508152D01*
X160210476Y-74508152D02*
X160400952Y-74508152D01*
X160400952Y-74508152D02*
X160496190Y-74555771D01*
X161448571Y-75174819D02*
X160877143Y-75174819D01*
X161162857Y-75174819D02*
X161162857Y-74174819D01*
X161162857Y-74174819D02*
X161067619Y-74317676D01*
X161067619Y-74317676D02*
X160972381Y-74412914D01*
X160972381Y-74412914D02*
X160877143Y-74460533D01*
X149400000Y-61414819D02*
X149400000Y-60414819D01*
X149400000Y-60414819D02*
X149780952Y-60414819D01*
X149780952Y-60414819D02*
X149876190Y-60462438D01*
X149876190Y-60462438D02*
X149923809Y-60510057D01*
X149923809Y-60510057D02*
X149971428Y-60605295D01*
X149971428Y-60605295D02*
X149971428Y-60748152D01*
X149971428Y-60748152D02*
X149923809Y-60843390D01*
X149923809Y-60843390D02*
X149876190Y-60891009D01*
X149876190Y-60891009D02*
X149780952Y-60938628D01*
X149780952Y-60938628D02*
X149400000Y-60938628D01*
X150400000Y-61414819D02*
X150400000Y-60748152D01*
X150400000Y-60938628D02*
X150447619Y-60843390D01*
X150447619Y-60843390D02*
X150495238Y-60795771D01*
X150495238Y-60795771D02*
X150590476Y-60748152D01*
X150590476Y-60748152D02*
X150685714Y-60748152D01*
X151161905Y-61414819D02*
X151066667Y-61367200D01*
X151066667Y-61367200D02*
X151019048Y-61319580D01*
X151019048Y-61319580D02*
X150971429Y-61224342D01*
X150971429Y-61224342D02*
X150971429Y-60938628D01*
X150971429Y-60938628D02*
X151019048Y-60843390D01*
X151019048Y-60843390D02*
X151066667Y-60795771D01*
X151066667Y-60795771D02*
X151161905Y-60748152D01*
X151161905Y-60748152D02*
X151304762Y-60748152D01*
X151304762Y-60748152D02*
X151400000Y-60795771D01*
X151400000Y-60795771D02*
X151447619Y-60843390D01*
X151447619Y-60843390D02*
X151495238Y-60938628D01*
X151495238Y-60938628D02*
X151495238Y-61224342D01*
X151495238Y-61224342D02*
X151447619Y-61319580D01*
X151447619Y-61319580D02*
X151400000Y-61367200D01*
X151400000Y-61367200D02*
X151304762Y-61414819D01*
X151304762Y-61414819D02*
X151161905Y-61414819D01*
X151923810Y-61414819D02*
X151923810Y-60414819D01*
X151923810Y-60414819D02*
X152257143Y-61129104D01*
X152257143Y-61129104D02*
X152590476Y-60414819D01*
X152590476Y-60414819D02*
X152590476Y-61414819D01*
X153066667Y-61414819D02*
X153066667Y-60748152D01*
X153066667Y-60414819D02*
X153019048Y-60462438D01*
X153019048Y-60462438D02*
X153066667Y-60510057D01*
X153066667Y-60510057D02*
X153114286Y-60462438D01*
X153114286Y-60462438D02*
X153066667Y-60414819D01*
X153066667Y-60414819D02*
X153066667Y-60510057D01*
X153542857Y-60748152D02*
X153542857Y-61414819D01*
X153542857Y-60843390D02*
X153590476Y-60795771D01*
X153590476Y-60795771D02*
X153685714Y-60748152D01*
X153685714Y-60748152D02*
X153828571Y-60748152D01*
X153828571Y-60748152D02*
X153923809Y-60795771D01*
X153923809Y-60795771D02*
X153971428Y-60891009D01*
X153971428Y-60891009D02*
X153971428Y-61414819D01*
X154447619Y-61414819D02*
X154447619Y-60748152D01*
X154447619Y-60414819D02*
X154400000Y-60462438D01*
X154400000Y-60462438D02*
X154447619Y-60510057D01*
X154447619Y-60510057D02*
X154495238Y-60462438D01*
X154495238Y-60462438D02*
X154447619Y-60414819D01*
X154447619Y-60414819D02*
X154447619Y-60510057D01*
X155447618Y-61414819D02*
X154876190Y-61414819D01*
X155161904Y-61414819D02*
X155161904Y-60414819D01*
X155161904Y-60414819D02*
X155066666Y-60557676D01*
X155066666Y-60557676D02*
X154971428Y-60652914D01*
X154971428Y-60652914D02*
X154876190Y-60700533D01*
X140771905Y-72797200D02*
X140914762Y-72844819D01*
X140914762Y-72844819D02*
X141152857Y-72844819D01*
X141152857Y-72844819D02*
X141248095Y-72797200D01*
X141248095Y-72797200D02*
X141295714Y-72749580D01*
X141295714Y-72749580D02*
X141343333Y-72654342D01*
X141343333Y-72654342D02*
X141343333Y-72559104D01*
X141343333Y-72559104D02*
X141295714Y-72463866D01*
X141295714Y-72463866D02*
X141248095Y-72416247D01*
X141248095Y-72416247D02*
X141152857Y-72368628D01*
X141152857Y-72368628D02*
X140962381Y-72321009D01*
X140962381Y-72321009D02*
X140867143Y-72273390D01*
X140867143Y-72273390D02*
X140819524Y-72225771D01*
X140819524Y-72225771D02*
X140771905Y-72130533D01*
X140771905Y-72130533D02*
X140771905Y-72035295D01*
X140771905Y-72035295D02*
X140819524Y-71940057D01*
X140819524Y-71940057D02*
X140867143Y-71892438D01*
X140867143Y-71892438D02*
X140962381Y-71844819D01*
X140962381Y-71844819D02*
X141200476Y-71844819D01*
X141200476Y-71844819D02*
X141343333Y-71892438D01*
X141676667Y-71844819D02*
X141914762Y-72844819D01*
X141914762Y-72844819D02*
X142105238Y-72130533D01*
X142105238Y-72130533D02*
X142295714Y-72844819D01*
X142295714Y-72844819D02*
X142533810Y-71844819D01*
X142771905Y-71844819D02*
X143343333Y-71844819D01*
X143057619Y-72844819D02*
X143057619Y-71844819D01*
X144248095Y-72749580D02*
X144200476Y-72797200D01*
X144200476Y-72797200D02*
X144057619Y-72844819D01*
X144057619Y-72844819D02*
X143962381Y-72844819D01*
X143962381Y-72844819D02*
X143819524Y-72797200D01*
X143819524Y-72797200D02*
X143724286Y-72701961D01*
X143724286Y-72701961D02*
X143676667Y-72606723D01*
X143676667Y-72606723D02*
X143629048Y-72416247D01*
X143629048Y-72416247D02*
X143629048Y-72273390D01*
X143629048Y-72273390D02*
X143676667Y-72082914D01*
X143676667Y-72082914D02*
X143724286Y-71987676D01*
X143724286Y-71987676D02*
X143819524Y-71892438D01*
X143819524Y-71892438D02*
X143962381Y-71844819D01*
X143962381Y-71844819D02*
X144057619Y-71844819D01*
X144057619Y-71844819D02*
X144200476Y-71892438D01*
X144200476Y-71892438D02*
X144248095Y-71940057D01*
X144676667Y-72844819D02*
X144676667Y-71844819D01*
X144676667Y-72321009D02*
X145248095Y-72321009D01*
X145248095Y-72844819D02*
X145248095Y-71844819D01*
X146248095Y-72844819D02*
X145676667Y-72844819D01*
X145962381Y-72844819D02*
X145962381Y-71844819D01*
X145962381Y-71844819D02*
X145867143Y-71987676D01*
X145867143Y-71987676D02*
X145771905Y-72082914D01*
X145771905Y-72082914D02*
X145676667Y-72130533D01*
X142295714Y-92641009D02*
X142438571Y-92688628D01*
X142438571Y-92688628D02*
X142486190Y-92736247D01*
X142486190Y-92736247D02*
X142533809Y-92831485D01*
X142533809Y-92831485D02*
X142533809Y-92974342D01*
X142533809Y-92974342D02*
X142486190Y-93069580D01*
X142486190Y-93069580D02*
X142438571Y-93117200D01*
X142438571Y-93117200D02*
X142343333Y-93164819D01*
X142343333Y-93164819D02*
X141962381Y-93164819D01*
X141962381Y-93164819D02*
X141962381Y-92164819D01*
X141962381Y-92164819D02*
X142295714Y-92164819D01*
X142295714Y-92164819D02*
X142390952Y-92212438D01*
X142390952Y-92212438D02*
X142438571Y-92260057D01*
X142438571Y-92260057D02*
X142486190Y-92355295D01*
X142486190Y-92355295D02*
X142486190Y-92450533D01*
X142486190Y-92450533D02*
X142438571Y-92545771D01*
X142438571Y-92545771D02*
X142390952Y-92593390D01*
X142390952Y-92593390D02*
X142295714Y-92641009D01*
X142295714Y-92641009D02*
X141962381Y-92641009D01*
X142914762Y-92879104D02*
X143390952Y-92879104D01*
X142819524Y-93164819D02*
X143152857Y-92164819D01*
X143152857Y-92164819D02*
X143486190Y-93164819D01*
X143676667Y-92164819D02*
X144248095Y-92164819D01*
X143962381Y-93164819D02*
X143962381Y-92164819D01*
X145105238Y-93164819D02*
X144533810Y-93164819D01*
X144819524Y-93164819D02*
X144819524Y-92164819D01*
X144819524Y-92164819D02*
X144724286Y-92307676D01*
X144724286Y-92307676D02*
X144629048Y-92402914D01*
X144629048Y-92402914D02*
X144533810Y-92450533D01*
X141176666Y-62161009D02*
X141319523Y-62208628D01*
X141319523Y-62208628D02*
X141367142Y-62256247D01*
X141367142Y-62256247D02*
X141414761Y-62351485D01*
X141414761Y-62351485D02*
X141414761Y-62494342D01*
X141414761Y-62494342D02*
X141367142Y-62589580D01*
X141367142Y-62589580D02*
X141319523Y-62637200D01*
X141319523Y-62637200D02*
X141224285Y-62684819D01*
X141224285Y-62684819D02*
X140843333Y-62684819D01*
X140843333Y-62684819D02*
X140843333Y-61684819D01*
X140843333Y-61684819D02*
X141176666Y-61684819D01*
X141176666Y-61684819D02*
X141271904Y-61732438D01*
X141271904Y-61732438D02*
X141319523Y-61780057D01*
X141319523Y-61780057D02*
X141367142Y-61875295D01*
X141367142Y-61875295D02*
X141367142Y-61970533D01*
X141367142Y-61970533D02*
X141319523Y-62065771D01*
X141319523Y-62065771D02*
X141271904Y-62113390D01*
X141271904Y-62113390D02*
X141176666Y-62161009D01*
X141176666Y-62161009D02*
X140843333Y-62161009D01*
X142271904Y-62018152D02*
X142271904Y-62684819D01*
X141843333Y-62018152D02*
X141843333Y-62541961D01*
X141843333Y-62541961D02*
X141890952Y-62637200D01*
X141890952Y-62637200D02*
X141986190Y-62684819D01*
X141986190Y-62684819D02*
X142129047Y-62684819D01*
X142129047Y-62684819D02*
X142224285Y-62637200D01*
X142224285Y-62637200D02*
X142271904Y-62589580D01*
X142605238Y-62018152D02*
X142986190Y-62018152D01*
X142748095Y-61684819D02*
X142748095Y-62541961D01*
X142748095Y-62541961D02*
X142795714Y-62637200D01*
X142795714Y-62637200D02*
X142890952Y-62684819D01*
X142890952Y-62684819D02*
X142986190Y-62684819D01*
X143176667Y-62018152D02*
X143557619Y-62018152D01*
X143319524Y-61684819D02*
X143319524Y-62541961D01*
X143319524Y-62541961D02*
X143367143Y-62637200D01*
X143367143Y-62637200D02*
X143462381Y-62684819D01*
X143462381Y-62684819D02*
X143557619Y-62684819D01*
X144033810Y-62684819D02*
X143938572Y-62637200D01*
X143938572Y-62637200D02*
X143890953Y-62589580D01*
X143890953Y-62589580D02*
X143843334Y-62494342D01*
X143843334Y-62494342D02*
X143843334Y-62208628D01*
X143843334Y-62208628D02*
X143890953Y-62113390D01*
X143890953Y-62113390D02*
X143938572Y-62065771D01*
X143938572Y-62065771D02*
X144033810Y-62018152D01*
X144033810Y-62018152D02*
X144176667Y-62018152D01*
X144176667Y-62018152D02*
X144271905Y-62065771D01*
X144271905Y-62065771D02*
X144319524Y-62113390D01*
X144319524Y-62113390D02*
X144367143Y-62208628D01*
X144367143Y-62208628D02*
X144367143Y-62494342D01*
X144367143Y-62494342D02*
X144319524Y-62589580D01*
X144319524Y-62589580D02*
X144271905Y-62637200D01*
X144271905Y-62637200D02*
X144176667Y-62684819D01*
X144176667Y-62684819D02*
X144033810Y-62684819D01*
X144795715Y-62018152D02*
X144795715Y-62684819D01*
X144795715Y-62113390D02*
X144843334Y-62065771D01*
X144843334Y-62065771D02*
X144938572Y-62018152D01*
X144938572Y-62018152D02*
X145081429Y-62018152D01*
X145081429Y-62018152D02*
X145176667Y-62065771D01*
X145176667Y-62065771D02*
X145224286Y-62161009D01*
X145224286Y-62161009D02*
X145224286Y-62684819D01*
X146224286Y-62684819D02*
X145652858Y-62684819D01*
X145938572Y-62684819D02*
X145938572Y-61684819D01*
X145938572Y-61684819D02*
X145843334Y-61827676D01*
X145843334Y-61827676D02*
X145748096Y-61922914D01*
X145748096Y-61922914D02*
X145652858Y-61970533D01*
X154480000Y-63954819D02*
X154480000Y-62954819D01*
X154480000Y-62954819D02*
X154860952Y-62954819D01*
X154860952Y-62954819D02*
X154956190Y-63002438D01*
X154956190Y-63002438D02*
X155003809Y-63050057D01*
X155003809Y-63050057D02*
X155051428Y-63145295D01*
X155051428Y-63145295D02*
X155051428Y-63288152D01*
X155051428Y-63288152D02*
X155003809Y-63383390D01*
X155003809Y-63383390D02*
X154956190Y-63431009D01*
X154956190Y-63431009D02*
X154860952Y-63478628D01*
X154860952Y-63478628D02*
X154480000Y-63478628D01*
X155480000Y-63954819D02*
X155480000Y-63288152D01*
X155480000Y-63478628D02*
X155527619Y-63383390D01*
X155527619Y-63383390D02*
X155575238Y-63335771D01*
X155575238Y-63335771D02*
X155670476Y-63288152D01*
X155670476Y-63288152D02*
X155765714Y-63288152D01*
X156241905Y-63954819D02*
X156146667Y-63907200D01*
X156146667Y-63907200D02*
X156099048Y-63859580D01*
X156099048Y-63859580D02*
X156051429Y-63764342D01*
X156051429Y-63764342D02*
X156051429Y-63478628D01*
X156051429Y-63478628D02*
X156099048Y-63383390D01*
X156099048Y-63383390D02*
X156146667Y-63335771D01*
X156146667Y-63335771D02*
X156241905Y-63288152D01*
X156241905Y-63288152D02*
X156384762Y-63288152D01*
X156384762Y-63288152D02*
X156480000Y-63335771D01*
X156480000Y-63335771D02*
X156527619Y-63383390D01*
X156527619Y-63383390D02*
X156575238Y-63478628D01*
X156575238Y-63478628D02*
X156575238Y-63764342D01*
X156575238Y-63764342D02*
X156527619Y-63859580D01*
X156527619Y-63859580D02*
X156480000Y-63907200D01*
X156480000Y-63907200D02*
X156384762Y-63954819D01*
X156384762Y-63954819D02*
X156241905Y-63954819D01*
X157003810Y-63954819D02*
X157003810Y-62954819D01*
X157003810Y-62954819D02*
X157337143Y-63669104D01*
X157337143Y-63669104D02*
X157670476Y-62954819D01*
X157670476Y-62954819D02*
X157670476Y-63954819D01*
X158146667Y-63954819D02*
X158146667Y-63288152D01*
X158146667Y-62954819D02*
X158099048Y-63002438D01*
X158099048Y-63002438D02*
X158146667Y-63050057D01*
X158146667Y-63050057D02*
X158194286Y-63002438D01*
X158194286Y-63002438D02*
X158146667Y-62954819D01*
X158146667Y-62954819D02*
X158146667Y-63050057D01*
X158622857Y-63288152D02*
X158622857Y-63954819D01*
X158622857Y-63383390D02*
X158670476Y-63335771D01*
X158670476Y-63335771D02*
X158765714Y-63288152D01*
X158765714Y-63288152D02*
X158908571Y-63288152D01*
X158908571Y-63288152D02*
X159003809Y-63335771D01*
X159003809Y-63335771D02*
X159051428Y-63431009D01*
X159051428Y-63431009D02*
X159051428Y-63954819D01*
X159527619Y-63954819D02*
X159527619Y-63288152D01*
X159527619Y-62954819D02*
X159480000Y-63002438D01*
X159480000Y-63002438D02*
X159527619Y-63050057D01*
X159527619Y-63050057D02*
X159575238Y-63002438D01*
X159575238Y-63002438D02*
X159527619Y-62954819D01*
X159527619Y-62954819D02*
X159527619Y-63050057D01*
X159956190Y-63050057D02*
X160003809Y-63002438D01*
X160003809Y-63002438D02*
X160099047Y-62954819D01*
X160099047Y-62954819D02*
X160337142Y-62954819D01*
X160337142Y-62954819D02*
X160432380Y-63002438D01*
X160432380Y-63002438D02*
X160479999Y-63050057D01*
X160479999Y-63050057D02*
X160527618Y-63145295D01*
X160527618Y-63145295D02*
X160527618Y-63240533D01*
X160527618Y-63240533D02*
X160479999Y-63383390D01*
X160479999Y-63383390D02*
X159908571Y-63954819D01*
X159908571Y-63954819D02*
X160527618Y-63954819D01*
D11*
%TO.C,DISP1*%
X165290000Y-99270000D02*
X165290000Y-98020000D01*
X165000000Y-98980000D02*
X165000000Y-93010000D01*
X165000000Y-93010000D02*
X152380000Y-93010000D01*
X164990000Y-98970000D02*
X164990000Y-98220000D01*
X164990000Y-98220000D02*
X163190000Y-98220000D01*
X164990000Y-96720000D02*
X164240000Y-96720000D01*
X164240000Y-96720000D02*
X164240000Y-93770000D01*
X164240000Y-93770000D02*
X158690000Y-93770000D01*
X164040000Y-99270000D02*
X165290000Y-99270000D01*
X163190000Y-98970000D02*
X164990000Y-98970000D01*
X163190000Y-98220000D02*
X163190000Y-98970000D01*
X161690000Y-98970000D02*
X161690000Y-98220000D01*
X161690000Y-98220000D02*
X155690000Y-98220000D01*
X155690000Y-98970000D02*
X161690000Y-98970000D01*
X155690000Y-98220000D02*
X155690000Y-98970000D01*
X154190000Y-98970000D02*
X154190000Y-98220000D01*
X154190000Y-98220000D02*
X152390000Y-98220000D01*
X153140000Y-96720000D02*
X153140000Y-93770000D01*
X153140000Y-93770000D02*
X158690000Y-93770000D01*
X152390000Y-98970000D02*
X154190000Y-98970000D01*
X152390000Y-98220000D02*
X152390000Y-98970000D01*
X152390000Y-96720000D02*
X153140000Y-96720000D01*
X152380000Y-98980000D02*
X165000000Y-98980000D01*
X152380000Y-93010000D02*
X152380000Y-98980000D01*
%TO.C,i2c1*%
X161350000Y-73720000D02*
X160020000Y-73720000D01*
X161350000Y-72390000D02*
X161350000Y-73720000D01*
X161350000Y-71120000D02*
X161350000Y-68520000D01*
X161350000Y-71120000D02*
X158690000Y-71120000D01*
X161350000Y-68520000D02*
X158690000Y-68520000D01*
X158690000Y-71120000D02*
X158690000Y-68520000D01*
%TO.C,ProMini1*%
X145990000Y-59630000D02*
X147320000Y-59630000D01*
X145990000Y-60960000D02*
X145990000Y-59630000D01*
X145990000Y-62230000D02*
X145990000Y-90230000D01*
X145990000Y-62230000D02*
X148650000Y-62230000D01*
X145990000Y-90230000D02*
X148650000Y-90230000D01*
X148650000Y-62230000D02*
X148650000Y-90230000D01*
%TO.C,SWTCH1*%
X139490000Y-81590000D02*
X140740000Y-81590000D01*
X139780000Y-81300000D02*
X145750000Y-81300000D01*
X145750000Y-81300000D02*
X145750000Y-73680000D01*
X139790000Y-81290000D02*
X140540000Y-81290000D01*
X140540000Y-81290000D02*
X140540000Y-79490000D01*
X142040000Y-81290000D02*
X142040000Y-80540000D01*
X142040000Y-80540000D02*
X144990000Y-80540000D01*
X144990000Y-80540000D02*
X144990000Y-77490000D01*
X139490000Y-80340000D02*
X139490000Y-81590000D01*
X139790000Y-79490000D02*
X139790000Y-81290000D01*
X140540000Y-79490000D02*
X139790000Y-79490000D01*
X139790000Y-77990000D02*
X140540000Y-77990000D01*
X140540000Y-77990000D02*
X140540000Y-76990000D01*
X139790000Y-76990000D02*
X139790000Y-77990000D01*
X140540000Y-76990000D02*
X139790000Y-76990000D01*
X139790000Y-75490000D02*
X140540000Y-75490000D01*
X140540000Y-75490000D02*
X140540000Y-73690000D01*
X142040000Y-74440000D02*
X144990000Y-74440000D01*
X144990000Y-74440000D02*
X144990000Y-77490000D01*
X139790000Y-73690000D02*
X139790000Y-75490000D01*
X140540000Y-73690000D02*
X139790000Y-73690000D01*
X142040000Y-73690000D02*
X142040000Y-74440000D01*
X139780000Y-73680000D02*
X139780000Y-81300000D01*
X145750000Y-73680000D02*
X139780000Y-73680000D01*
%TO.C,BAT1*%
X139490000Y-91750000D02*
X140740000Y-91750000D01*
X139780000Y-91460000D02*
X145750000Y-91460000D01*
X145750000Y-91460000D02*
X145750000Y-83840000D01*
X139790000Y-91450000D02*
X140540000Y-91450000D01*
X140540000Y-91450000D02*
X140540000Y-89650000D01*
X142040000Y-91450000D02*
X142040000Y-90700000D01*
X142040000Y-90700000D02*
X144990000Y-90700000D01*
X144990000Y-90700000D02*
X144990000Y-87650000D01*
X139490000Y-90500000D02*
X139490000Y-91750000D01*
X139790000Y-89650000D02*
X139790000Y-91450000D01*
X140540000Y-89650000D02*
X139790000Y-89650000D01*
X139790000Y-88150000D02*
X140540000Y-88150000D01*
X140540000Y-88150000D02*
X140540000Y-87150000D01*
X139790000Y-87150000D02*
X139790000Y-88150000D01*
X140540000Y-87150000D02*
X139790000Y-87150000D01*
X139790000Y-85650000D02*
X140540000Y-85650000D01*
X140540000Y-85650000D02*
X140540000Y-83850000D01*
X142040000Y-84600000D02*
X144990000Y-84600000D01*
X144990000Y-84600000D02*
X144990000Y-87650000D01*
X139790000Y-83850000D02*
X139790000Y-85650000D01*
X140540000Y-83850000D02*
X139790000Y-83850000D01*
X142040000Y-83850000D02*
X142040000Y-84600000D01*
X139780000Y-83840000D02*
X139780000Y-91460000D01*
X145750000Y-83840000D02*
X139780000Y-83840000D01*
%TO.C,Button1*%
X139490000Y-71430000D02*
X140740000Y-71430000D01*
X139780000Y-71140000D02*
X145750000Y-71140000D01*
X145750000Y-71140000D02*
X145750000Y-63520000D01*
X139790000Y-71130000D02*
X140540000Y-71130000D01*
X140540000Y-71130000D02*
X140540000Y-69330000D01*
X142040000Y-71130000D02*
X142040000Y-70380000D01*
X142040000Y-70380000D02*
X144990000Y-70380000D01*
X144990000Y-70380000D02*
X144990000Y-67330000D01*
X139490000Y-70180000D02*
X139490000Y-71430000D01*
X139790000Y-69330000D02*
X139790000Y-71130000D01*
X140540000Y-69330000D02*
X139790000Y-69330000D01*
X139790000Y-67830000D02*
X140540000Y-67830000D01*
X140540000Y-67830000D02*
X140540000Y-66830000D01*
X139790000Y-66830000D02*
X139790000Y-67830000D01*
X140540000Y-66830000D02*
X139790000Y-66830000D01*
X139790000Y-65330000D02*
X140540000Y-65330000D01*
X140540000Y-65330000D02*
X140540000Y-63530000D01*
X142040000Y-64280000D02*
X144990000Y-64280000D01*
X144990000Y-64280000D02*
X144990000Y-67330000D01*
X139790000Y-63530000D02*
X139790000Y-65330000D01*
X140540000Y-63530000D02*
X139790000Y-63530000D01*
X142040000Y-63530000D02*
X142040000Y-64280000D01*
X139780000Y-63520000D02*
X139780000Y-71140000D01*
X145750000Y-63520000D02*
X139780000Y-63520000D01*
%TO.C,ProMini2*%
X161230000Y-59630000D02*
X162560000Y-59630000D01*
X161230000Y-60960000D02*
X161230000Y-59630000D01*
X161230000Y-62230000D02*
X161230000Y-90230000D01*
X161230000Y-62230000D02*
X163890000Y-62230000D01*
X161230000Y-90230000D02*
X163890000Y-90230000D01*
X163890000Y-62230000D02*
X163890000Y-90230000D01*
%TD*%
M02*
