M48
; DRILL file {KiCad 7.0.7} date Sat Sep 23 14:44:57 2023
; FORMAT={-:-/ absolute / inch / decimal}
; #@! TF.CreationDate,2023-09-23T14:44:57-07:00
; #@! TF.GenerationSoftware,Kicad,Pcbnew,7.0.7
; #@! TF.FileFunction,Plated,1,2,PTH
FMAT,2
INCH
; #@! TA.AperFunction,Plated,PTH,ComponentDrill
T1C0.0374
; #@! TA.AperFunction,Plated,PTH,ComponentDrill
T2C0.0394
%
G90
G05
T1
X6.1Y-3.8
X6.1984Y-3.8
X6.2969Y-3.8
X6.3953Y-3.8
T2
X5.6Y-2.6016
X5.6Y-2.7
X5.6Y-3.0016
X5.6Y-3.1
X5.6Y-3.4016
X5.6Y-3.5
X5.8Y-2.4
X5.8Y-2.5
X5.8Y-2.6
X5.8Y-2.7
X5.8Y-2.8
X5.8Y-2.9
X5.8Y-3.0
X5.8Y-3.1
X5.8Y-3.2
X5.8Y-3.3
X5.8Y-3.4
X5.8Y-3.5
X6.3Y-2.75
X6.3Y-2.85
X6.4Y-2.4
X6.4Y-2.5
X6.4Y-2.6
X6.4Y-2.7
X6.4Y-2.8
X6.4Y-2.9
X6.4Y-3.0
X6.4Y-3.1
X6.4Y-3.2
X6.4Y-3.3
X6.4Y-3.4
X6.4Y-3.5
X6.55Y-2.45
X6.6484Y-2.45
X6.65Y-2.7
X6.65Y-2.8
X6.65Y-2.9
X6.65Y-3.0
X6.65Y-3.1
X6.65Y-3.2
X6.65Y-3.3
X6.65Y-3.4
X6.65Y-3.5
X6.65Y-3.6
T0
M30
