%TF.GenerationSoftware,KiCad,Pcbnew,7.0.7*%
%TF.CreationDate,2023-09-23T14:44:52-07:00*%
%TF.ProjectId,Nitrox_Board,4e697472-6f78-45f4-926f-6172642e6b69,rev?*%
%TF.SameCoordinates,Original*%
%TF.FileFunction,Soldermask,Bot*%
%TF.FilePolarity,Negative*%
%FSLAX46Y46*%
G04 Gerber Fmt 4.6, Leading zero omitted, Abs format (unit mm)*
G04 Created by KiCad (PCBNEW 7.0.7) date 2023-09-23 14:44:52*
%MOMM*%
%LPD*%
G01*
G04 APERTURE LIST*
G04 Aperture macros list*
%AMRoundRect*
0 Rectangle with rounded corners*
0 $1 Rounding radius*
0 $2 $3 $4 $5 $6 $7 $8 $9 X,Y pos of 4 corners*
0 Add a 4 corners polygon primitive as box body*
4,1,4,$2,$3,$4,$5,$6,$7,$8,$9,$2,$3,0*
0 Add four circle primitives for the rounded corners*
1,1,$1+$1,$2,$3*
1,1,$1+$1,$4,$5*
1,1,$1+$1,$6,$7*
1,1,$1+$1,$8,$9*
0 Add four rect primitives between the rounded corners*
20,1,$1+$1,$2,$3,$4,$5,0*
20,1,$1+$1,$4,$5,$6,$7,0*
20,1,$1+$1,$6,$7,$8,$9,0*
20,1,$1+$1,$8,$9,$2,$3,0*%
G04 Aperture macros list end*
%ADD10RoundRect,0.250000X0.600000X0.725000X-0.600000X0.725000X-0.600000X-0.725000X0.600000X-0.725000X0*%
%ADD11O,1.700000X1.950000*%
%ADD12C,1.700000*%
%ADD13O,1.700000X1.700000*%
%ADD14RoundRect,0.425000X-0.425000X-0.425000X0.425000X-0.425000X0.425000X0.425000X-0.425000X0.425000X0*%
%ADD15O,2.000000X1.700000*%
%ADD16RoundRect,0.425000X0.575000X-0.425000X0.575000X0.425000X-0.575000X0.425000X-0.575000X-0.425000X0*%
G04 APERTURE END LIST*
D10*
%TO.C,DISP1*%
X162440000Y-96520000D03*
D11*
X159940000Y-96520000D03*
X157440000Y-96520000D03*
X154940000Y-96520000D03*
%TD*%
D12*
%TO.C,i2c1*%
X160020000Y-72390000D03*
D13*
X160020000Y-69850000D03*
%TD*%
D12*
%TO.C,ProMini1*%
X147320000Y-60960000D03*
D13*
X147320000Y-63500000D03*
X147320000Y-66040000D03*
D14*
X147320000Y-68580000D03*
D13*
X147320000Y-71120000D03*
X147320000Y-73660000D03*
X147320000Y-76200000D03*
X147320000Y-78740000D03*
X147320000Y-81280000D03*
X147320000Y-83820000D03*
X147320000Y-86360000D03*
X147320000Y-88900000D03*
%TD*%
D12*
%TO.C,SWTCH1*%
X142240000Y-78740000D03*
D15*
X142240000Y-76240000D03*
%TD*%
D12*
%TO.C,BAT1*%
X142240000Y-88900000D03*
D16*
X142240000Y-86400000D03*
%TD*%
D12*
%TO.C,Button1*%
X142240000Y-68580000D03*
D16*
X142240000Y-66080000D03*
%TD*%
D12*
%TO.C,ProMini2*%
X162560000Y-60960000D03*
D14*
X162560000Y-63500000D03*
D13*
X162560000Y-66040000D03*
X162560000Y-68580000D03*
X162560000Y-71120000D03*
X162560000Y-73660000D03*
X162560000Y-76200000D03*
X162560000Y-78740000D03*
X162560000Y-81280000D03*
X162560000Y-83820000D03*
X162560000Y-86360000D03*
X162560000Y-88900000D03*
%TD*%
D12*
%TO.C,Sensor1*%
X168870000Y-62230000D03*
X166370000Y-62230000D03*
%TD*%
%TO.C,ADS1115*%
X168910000Y-91440000D03*
D14*
X168910000Y-88900000D03*
D13*
X168910000Y-86360000D03*
X168910000Y-83820000D03*
X168910000Y-81280000D03*
X168910000Y-78740000D03*
X168910000Y-76200000D03*
X168910000Y-73660000D03*
X168910000Y-71120000D03*
X168910000Y-68580000D03*
%TD*%
M02*
