%TF.GenerationSoftware,KiCad,Pcbnew,7.0.7*%
%TF.CreationDate,2023-09-23T14:44:52-07:00*%
%TF.ProjectId,Nitrox_Board,4e697472-6f78-45f4-926f-6172642e6b69,rev?*%
%TF.SameCoordinates,Original*%
%TF.FileFunction,Copper,L2,Bot*%
%TF.FilePolarity,Positive*%
%FSLAX46Y46*%
G04 Gerber Fmt 4.6, Leading zero omitted, Abs format (unit mm)*
G04 Created by KiCad (PCBNEW 7.0.7) date 2023-09-23 14:44:52*
%MOMM*%
%LPD*%
G01*
G04 APERTURE LIST*
G04 Aperture macros list*
%AMRoundRect*
0 Rectangle with rounded corners*
0 $1 Rounding radius*
0 $2 $3 $4 $5 $6 $7 $8 $9 X,Y pos of 4 corners*
0 Add a 4 corners polygon primitive as box body*
4,1,4,$2,$3,$4,$5,$6,$7,$8,$9,$2,$3,0*
0 Add four circle primitives for the rounded corners*
1,1,$1+$1,$2,$3*
1,1,$1+$1,$4,$5*
1,1,$1+$1,$6,$7*
1,1,$1+$1,$8,$9*
0 Add four rect primitives between the rounded corners*
20,1,$1+$1,$2,$3,$4,$5,0*
20,1,$1+$1,$4,$5,$6,$7,0*
20,1,$1+$1,$6,$7,$8,$9,0*
20,1,$1+$1,$8,$9,$2,$3,0*%
G04 Aperture macros list end*
%TA.AperFunction,ComponentPad*%
%ADD10RoundRect,0.250000X0.600000X0.725000X-0.600000X0.725000X-0.600000X-0.725000X0.600000X-0.725000X0*%
%TD*%
%TA.AperFunction,ComponentPad*%
%ADD11O,1.700000X1.950000*%
%TD*%
%TA.AperFunction,ComponentPad*%
%ADD12C,1.700000*%
%TD*%
%TA.AperFunction,ComponentPad*%
%ADD13O,1.700000X1.700000*%
%TD*%
%TA.AperFunction,ComponentPad*%
%ADD14RoundRect,0.425000X-0.425000X-0.425000X0.425000X-0.425000X0.425000X0.425000X-0.425000X0.425000X0*%
%TD*%
%TA.AperFunction,ComponentPad*%
%ADD15O,2.000000X1.700000*%
%TD*%
%TA.AperFunction,ComponentPad*%
%ADD16RoundRect,0.425000X0.575000X-0.425000X0.575000X0.425000X-0.575000X0.425000X-0.575000X-0.425000X0*%
%TD*%
%TA.AperFunction,Conductor*%
%ADD17C,0.250000*%
%TD*%
G04 APERTURE END LIST*
D10*
%TO.P,DISP1,1,Pin_1*%
%TO.N,GND*%
X162440000Y-96520000D03*
D11*
%TO.P,DISP1,2,Pin_2*%
%TO.N,VCC*%
X159940000Y-96520000D03*
%TO.P,DISP1,3,Pin_3*%
%TO.N,SCL*%
X157440000Y-96520000D03*
%TO.P,DISP1,4,Pin_4*%
%TO.N,SDA*%
X154940000Y-96520000D03*
%TD*%
D12*
%TO.P,i2c1,1,Pin_1*%
%TO.N,SDA*%
X160020000Y-72390000D03*
D13*
%TO.P,i2c1,2,Pin_2*%
%TO.N,SCL*%
X160020000Y-69850000D03*
%TD*%
D12*
%TO.P,ProMini1,1,Pin_1*%
%TO.N,unconnected-(ProMini1-Pin_1-Pad1)*%
X147320000Y-60960000D03*
D13*
%TO.P,ProMini1,2,Pin_2*%
%TO.N,unconnected-(ProMini1-Pin_2-Pad2)*%
X147320000Y-63500000D03*
%TO.P,ProMini1,3,Pin_3*%
%TO.N,unconnected-(ProMini1-Pin_3-Pad3)*%
X147320000Y-66040000D03*
D14*
%TO.P,ProMini1,4,Pin_4*%
%TO.N,GND*%
X147320000Y-68580000D03*
D13*
%TO.P,ProMini1,5,Pin_5*%
%TO.N,Net-(Button1-Pin_1)*%
X147320000Y-71120000D03*
%TO.P,ProMini1,6,Pin_6*%
%TO.N,unconnected-(ProMini1-Pin_6-Pad6)*%
X147320000Y-73660000D03*
%TO.P,ProMini1,7,Pin_7*%
%TO.N,unconnected-(ProMini1-Pin_7-Pad7)*%
X147320000Y-76200000D03*
%TO.P,ProMini1,8,Pin_8*%
%TO.N,unconnected-(ProMini1-Pin_8-Pad8)*%
X147320000Y-78740000D03*
%TO.P,ProMini1,9,Pin_9*%
%TO.N,unconnected-(ProMini1-Pin_9-Pad9)*%
X147320000Y-81280000D03*
%TO.P,ProMini1,10,Pin_10*%
%TO.N,unconnected-(ProMini1-Pin_10-Pad10)*%
X147320000Y-83820000D03*
%TO.P,ProMini1,11,Pin_11*%
%TO.N,unconnected-(ProMini1-Pin_11-Pad11)*%
X147320000Y-86360000D03*
%TO.P,ProMini1,12,Pin_12*%
%TO.N,unconnected-(ProMini1-Pin_12-Pad12)*%
X147320000Y-88900000D03*
%TD*%
D12*
%TO.P,SWTCH1,1,Pin_1*%
%TO.N,Net-(BAT1-Pin_1)*%
X142240000Y-78740000D03*
D15*
%TO.P,SWTCH1,2,Pin_2*%
%TO.N,Net-(ProMini2-Pin_1)*%
X142240000Y-76240000D03*
%TD*%
D12*
%TO.P,BAT1,1,Pin_1*%
%TO.N,Net-(BAT1-Pin_1)*%
X142240000Y-88900000D03*
D16*
%TO.P,BAT1,2,Pin_2*%
%TO.N,GND*%
X142240000Y-86400000D03*
%TD*%
D12*
%TO.P,Button1,1,Pin_1*%
%TO.N,Net-(Button1-Pin_1)*%
X142240000Y-68580000D03*
D16*
%TO.P,Button1,2,Pin_2*%
%TO.N,GND*%
X142240000Y-66080000D03*
%TD*%
D12*
%TO.P,ProMini2,1,Pin_1*%
%TO.N,Net-(ProMini2-Pin_1)*%
X162560000Y-60960000D03*
D14*
%TO.P,ProMini2,2,Pin_2*%
%TO.N,GND*%
X162560000Y-63500000D03*
D13*
%TO.P,ProMini2,3,Pin_3*%
%TO.N,unconnected-(ProMini2-Pin_3-Pad3)*%
X162560000Y-66040000D03*
%TO.P,ProMini2,4,Pin_4*%
%TO.N,VCC*%
X162560000Y-68580000D03*
%TO.P,ProMini2,5,Pin_5*%
%TO.N,unconnected-(ProMini2-Pin_5-Pad5)*%
X162560000Y-71120000D03*
%TO.P,ProMini2,6,Pin_6*%
%TO.N,unconnected-(ProMini2-Pin_6-Pad6)*%
X162560000Y-73660000D03*
%TO.P,ProMini2,7,Pin_7*%
%TO.N,unconnected-(ProMini2-Pin_7-Pad7)*%
X162560000Y-76200000D03*
%TO.P,ProMini2,8,Pin_8*%
%TO.N,unconnected-(ProMini2-Pin_8-Pad8)*%
X162560000Y-78740000D03*
%TO.P,ProMini2,9,Pin_9*%
%TO.N,unconnected-(ProMini2-Pin_9-Pad9)*%
X162560000Y-81280000D03*
%TO.P,ProMini2,10,Pin_10*%
%TO.N,unconnected-(ProMini2-Pin_10-Pad10)*%
X162560000Y-83820000D03*
%TO.P,ProMini2,11,Pin_11*%
%TO.N,unconnected-(ProMini2-Pin_11-Pad11)*%
X162560000Y-86360000D03*
%TO.P,ProMini2,12,Pin_12*%
%TO.N,unconnected-(ProMini2-Pin_12-Pad12)*%
X162560000Y-88900000D03*
%TD*%
D12*
%TO.P,Sensor1,1,Pin_1*%
%TO.N,Net-(ADS1115-Pin_7)*%
X168870000Y-62230000D03*
%TO.P,Sensor1,2,Pin_2*%
%TO.N,Net-(ADS1115-Pin_8)*%
X166370000Y-62230000D03*
%TD*%
%TO.P,ADS1115,1,Pin_1*%
%TO.N,VCC*%
X168910000Y-91440000D03*
D14*
%TO.P,ADS1115,2,Pin_2*%
%TO.N,GND*%
X168910000Y-88900000D03*
D13*
%TO.P,ADS1115,3,Pin_3*%
%TO.N,SCL*%
X168910000Y-86360000D03*
%TO.P,ADS1115,4,Pin_4*%
%TO.N,SDA*%
X168910000Y-83820000D03*
%TO.P,ADS1115,5,Pin_5*%
%TO.N,unconnected-(ADS1115-Pin_5-Pad5)*%
X168910000Y-81280000D03*
%TO.P,ADS1115,6,Pin_6*%
%TO.N,unconnected-(ADS1115-Pin_6-Pad6)*%
X168910000Y-78740000D03*
%TO.P,ADS1115,7,Pin_7*%
%TO.N,Net-(ADS1115-Pin_7)*%
X168910000Y-76200000D03*
%TO.P,ADS1115,8,Pin_8*%
%TO.N,Net-(ADS1115-Pin_8)*%
X168910000Y-73660000D03*
%TO.P,ADS1115,9,Pin_9*%
%TO.N,unconnected-(ADS1115-Pin_9-Pad9)*%
X168910000Y-71120000D03*
%TO.P,ADS1115,10,Pin_10*%
%TO.N,unconnected-(ADS1115-Pin_10-Pad10)*%
X168910000Y-68580000D03*
%TD*%
D17*
%TO.N,SDA*%
X160020000Y-72390000D02*
X160020000Y-91440000D01*
X158115000Y-91440000D02*
X160020000Y-91440000D01*
X160020000Y-91440000D02*
X163830000Y-91440000D01*
X154940000Y-94615000D02*
X154940000Y-96520000D01*
%TO.N,SCL*%
X166370000Y-90170000D02*
X164465000Y-92075000D01*
X167640000Y-86360000D02*
X166370000Y-87630000D01*
X160020000Y-92075000D02*
X157440000Y-94655000D01*
X164465000Y-92075000D02*
X160020000Y-92075000D01*
X166370000Y-87630000D02*
X166370000Y-90170000D01*
X168910000Y-86360000D02*
X167640000Y-86360000D01*
X157440000Y-94655000D02*
X157440000Y-96520000D01*
%TO.N,SDA*%
X165100000Y-86360000D02*
X167640000Y-83820000D01*
X154940000Y-94615000D02*
X158115000Y-91440000D01*
X163830000Y-91440000D02*
X165100000Y-90170000D01*
X165100000Y-90170000D02*
X165100000Y-86360000D01*
X167640000Y-83820000D02*
X168910000Y-83820000D01*
%TO.N,Net-(Button1-Pin_1)*%
X142240000Y-68580000D02*
X144780000Y-68580000D01*
X144780000Y-71120000D02*
X147320000Y-71120000D01*
X144780000Y-68580000D02*
X144780000Y-71120000D01*
%TD*%
%TA.AperFunction,Conductor*%
%TO.N,GND*%
G36*
X172662539Y-58440185D02*
G01*
X172708294Y-58492989D01*
X172719500Y-58544500D01*
X172719500Y-104015500D01*
X172699815Y-104082539D01*
X172647011Y-104128294D01*
X172595500Y-104139500D01*
X139824500Y-104139500D01*
X139757461Y-104119815D01*
X139711706Y-104067011D01*
X139700500Y-104015500D01*
X139700500Y-96703966D01*
X153589500Y-96703966D01*
X153604936Y-96880403D01*
X153604938Y-96880413D01*
X153666094Y-97108655D01*
X153666096Y-97108659D01*
X153666097Y-97108663D01*
X153690000Y-97159922D01*
X153765964Y-97322828D01*
X153765965Y-97322830D01*
X153901505Y-97516402D01*
X154068597Y-97683493D01*
X154068599Y-97683495D01*
X154165384Y-97751265D01*
X154262165Y-97819032D01*
X154262167Y-97819033D01*
X154262170Y-97819035D01*
X154476337Y-97918903D01*
X154476343Y-97918904D01*
X154476344Y-97918905D01*
X154515356Y-97929358D01*
X154704592Y-97980063D01*
X154892918Y-97996539D01*
X154939999Y-98000659D01*
X154940000Y-98000659D01*
X154940001Y-98000659D01*
X154979234Y-97997226D01*
X155175408Y-97980063D01*
X155403663Y-97918903D01*
X155617829Y-97819035D01*
X155811401Y-97683495D01*
X155978495Y-97516401D01*
X156088426Y-97359401D01*
X156143001Y-97315778D01*
X156212500Y-97308584D01*
X156274855Y-97340106D01*
X156291571Y-97359398D01*
X156318383Y-97397690D01*
X156401506Y-97516403D01*
X156568597Y-97683492D01*
X156568599Y-97683495D01*
X156665384Y-97751264D01*
X156762165Y-97819032D01*
X156762167Y-97819033D01*
X156762170Y-97819035D01*
X156976337Y-97918903D01*
X156976343Y-97918904D01*
X156976344Y-97918905D01*
X157015356Y-97929358D01*
X157204592Y-97980063D01*
X157392918Y-97996539D01*
X157439999Y-98000659D01*
X157440000Y-98000659D01*
X157440001Y-98000659D01*
X157479234Y-97997226D01*
X157675408Y-97980063D01*
X157903663Y-97918903D01*
X158117829Y-97819035D01*
X158311401Y-97683495D01*
X158478495Y-97516401D01*
X158588426Y-97359401D01*
X158643001Y-97315778D01*
X158712500Y-97308584D01*
X158774855Y-97340106D01*
X158791571Y-97359398D01*
X158818383Y-97397690D01*
X158901506Y-97516403D01*
X159068597Y-97683493D01*
X159068599Y-97683495D01*
X159165384Y-97751264D01*
X159262165Y-97819032D01*
X159262167Y-97819033D01*
X159262170Y-97819035D01*
X159476337Y-97918903D01*
X159476343Y-97918904D01*
X159476344Y-97918905D01*
X159515356Y-97929358D01*
X159704592Y-97980063D01*
X159892918Y-97996539D01*
X159939999Y-98000659D01*
X159940000Y-98000659D01*
X159940001Y-98000659D01*
X159979234Y-97997226D01*
X160175408Y-97980063D01*
X160403663Y-97918903D01*
X160617829Y-97819035D01*
X160811401Y-97683495D01*
X160958965Y-97535930D01*
X161020287Y-97502447D01*
X161089978Y-97507431D01*
X161145912Y-97549302D01*
X161152183Y-97558516D01*
X161247680Y-97713340D01*
X161247683Y-97713344D01*
X161371654Y-97837315D01*
X161520875Y-97929356D01*
X161520880Y-97929358D01*
X161687302Y-97984505D01*
X161687309Y-97984506D01*
X161790019Y-97994999D01*
X162189999Y-97994999D01*
X162190000Y-97994998D01*
X162190000Y-97107044D01*
X162209685Y-97040005D01*
X162262489Y-96994250D01*
X162331647Y-96984306D01*
X162337066Y-96985085D01*
X162406025Y-96995000D01*
X162406026Y-96995000D01*
X162473974Y-96995000D01*
X162473975Y-96995000D01*
X162543570Y-96984993D01*
X162548353Y-96984306D01*
X162617512Y-96994250D01*
X162670316Y-97040005D01*
X162690000Y-97107044D01*
X162690000Y-97994999D01*
X163089972Y-97994999D01*
X163089986Y-97994998D01*
X163192697Y-97984505D01*
X163359119Y-97929358D01*
X163359124Y-97929356D01*
X163508345Y-97837315D01*
X163632315Y-97713345D01*
X163724356Y-97564124D01*
X163724358Y-97564119D01*
X163779505Y-97397697D01*
X163779506Y-97397690D01*
X163789999Y-97294986D01*
X163790000Y-97294973D01*
X163790000Y-96770000D01*
X163027292Y-96770000D01*
X162960253Y-96750315D01*
X162914498Y-96697511D01*
X162904554Y-96628353D01*
X162908314Y-96611067D01*
X162915000Y-96588294D01*
X162915000Y-96451705D01*
X162908314Y-96428933D01*
X162908316Y-96359063D01*
X162946091Y-96300286D01*
X163009647Y-96271262D01*
X163027292Y-96270000D01*
X163789999Y-96270000D01*
X163789999Y-95745028D01*
X163789998Y-95745013D01*
X163779505Y-95642302D01*
X163724358Y-95475880D01*
X163724356Y-95475875D01*
X163632315Y-95326654D01*
X163508345Y-95202684D01*
X163359124Y-95110643D01*
X163359119Y-95110641D01*
X163192697Y-95055494D01*
X163192690Y-95055493D01*
X163089986Y-95045000D01*
X162690000Y-95045000D01*
X162690000Y-95932956D01*
X162670315Y-95999995D01*
X162617511Y-96045750D01*
X162548353Y-96055694D01*
X162522064Y-96051914D01*
X162473975Y-96045000D01*
X162406025Y-96045000D01*
X162331647Y-96055694D01*
X162262488Y-96045750D01*
X162209684Y-95999995D01*
X162190000Y-95932956D01*
X162190000Y-95045000D01*
X161790028Y-95045000D01*
X161790012Y-95045001D01*
X161687302Y-95055494D01*
X161520880Y-95110641D01*
X161520875Y-95110643D01*
X161371654Y-95202684D01*
X161247683Y-95326655D01*
X161247680Y-95326659D01*
X161152183Y-95481483D01*
X161100235Y-95528208D01*
X161031272Y-95539429D01*
X160967190Y-95511586D01*
X160958964Y-95504068D01*
X160930771Y-95475875D01*
X160811401Y-95356505D01*
X160811397Y-95356502D01*
X160811396Y-95356501D01*
X160617834Y-95220967D01*
X160617830Y-95220965D01*
X160565500Y-95196563D01*
X160403663Y-95121097D01*
X160403659Y-95121096D01*
X160403655Y-95121094D01*
X160175413Y-95059938D01*
X160175403Y-95059936D01*
X159940001Y-95039341D01*
X159939999Y-95039341D01*
X159704596Y-95059936D01*
X159704586Y-95059938D01*
X159476344Y-95121094D01*
X159476335Y-95121098D01*
X159262171Y-95220964D01*
X159262169Y-95220965D01*
X159068597Y-95356505D01*
X158901505Y-95523597D01*
X158791575Y-95680595D01*
X158736998Y-95724220D01*
X158667500Y-95731414D01*
X158605145Y-95699891D01*
X158588425Y-95680595D01*
X158478494Y-95523597D01*
X158311402Y-95356506D01*
X158311401Y-95356505D01*
X158118376Y-95221347D01*
X158074751Y-95166770D01*
X158065500Y-95119772D01*
X158065500Y-94965452D01*
X158085185Y-94898413D01*
X158101819Y-94877771D01*
X160242772Y-92736819D01*
X160304095Y-92703334D01*
X160330453Y-92700500D01*
X164382257Y-92700500D01*
X164397877Y-92702224D01*
X164397904Y-92701939D01*
X164405660Y-92702671D01*
X164405667Y-92702673D01*
X164474814Y-92700500D01*
X164504350Y-92700500D01*
X164511228Y-92699630D01*
X164517041Y-92699172D01*
X164563627Y-92697709D01*
X164582869Y-92692117D01*
X164601912Y-92688174D01*
X164621792Y-92685664D01*
X164665122Y-92668507D01*
X164670646Y-92666617D01*
X164674396Y-92665527D01*
X164715390Y-92653618D01*
X164732629Y-92643422D01*
X164750103Y-92634862D01*
X164768727Y-92627488D01*
X164768727Y-92627487D01*
X164768732Y-92627486D01*
X164806449Y-92600082D01*
X164811305Y-92596892D01*
X164851420Y-92573170D01*
X164865589Y-92558999D01*
X164880379Y-92546368D01*
X164896587Y-92534594D01*
X164926299Y-92498676D01*
X164930212Y-92494376D01*
X166753787Y-90670801D01*
X166766042Y-90660986D01*
X166765859Y-90660764D01*
X166771866Y-90655792D01*
X166771877Y-90655786D01*
X166802775Y-90622882D01*
X166819227Y-90605364D01*
X166829671Y-90594918D01*
X166840120Y-90584471D01*
X166844379Y-90578978D01*
X166848152Y-90574561D01*
X166880062Y-90540582D01*
X166889715Y-90523020D01*
X166900389Y-90506770D01*
X166912673Y-90490936D01*
X166931180Y-90448167D01*
X166933749Y-90442924D01*
X166956196Y-90402093D01*
X166956197Y-90402092D01*
X166961177Y-90382691D01*
X166967478Y-90364288D01*
X166975438Y-90345896D01*
X166982730Y-90299849D01*
X166983911Y-90294152D01*
X166995500Y-90249019D01*
X166995500Y-90228974D01*
X166997025Y-90209591D01*
X167000160Y-90189804D01*
X166995775Y-90143415D01*
X166995500Y-90137577D01*
X166995500Y-87940451D01*
X167015185Y-87873412D01*
X167031815Y-87852774D01*
X167677100Y-87207488D01*
X167738423Y-87174004D01*
X167808115Y-87178988D01*
X167864048Y-87220860D01*
X167866332Y-87224014D01*
X167871505Y-87231401D01*
X167871506Y-87231402D01*
X167871507Y-87231403D01*
X168038597Y-87398493D01*
X168038603Y-87398498D01*
X168089272Y-87433977D01*
X168132897Y-87488554D01*
X168140091Y-87558052D01*
X168108568Y-87620407D01*
X168074444Y-87646037D01*
X167978432Y-87694957D01*
X167827324Y-87817324D01*
X167704957Y-87968432D01*
X167616682Y-88141684D01*
X167566355Y-88329502D01*
X167560000Y-88410260D01*
X167560000Y-88650000D01*
X168296653Y-88650000D01*
X168363692Y-88669685D01*
X168409447Y-88722489D01*
X168419391Y-88791647D01*
X168415631Y-88808933D01*
X168410000Y-88828111D01*
X168410000Y-88971888D01*
X168415631Y-88991067D01*
X168415630Y-89060936D01*
X168377855Y-89119714D01*
X168314299Y-89148738D01*
X168296653Y-89150000D01*
X167560000Y-89150000D01*
X167560000Y-89389740D01*
X167566355Y-89470497D01*
X167616682Y-89658315D01*
X167704957Y-89831567D01*
X167827324Y-89982675D01*
X167978433Y-90105043D01*
X167978435Y-90105044D01*
X168074443Y-90153962D01*
X168125239Y-90201936D01*
X168142035Y-90269757D01*
X168119498Y-90335892D01*
X168089274Y-90366021D01*
X168038595Y-90401507D01*
X167871505Y-90568597D01*
X167735965Y-90762169D01*
X167735964Y-90762171D01*
X167636098Y-90976335D01*
X167636094Y-90976344D01*
X167574938Y-91204586D01*
X167574936Y-91204596D01*
X167554341Y-91439999D01*
X167554341Y-91440000D01*
X167574936Y-91675403D01*
X167574938Y-91675413D01*
X167636094Y-91903655D01*
X167636096Y-91903659D01*
X167636097Y-91903663D01*
X167711563Y-92065500D01*
X167735965Y-92117830D01*
X167735967Y-92117834D01*
X167750080Y-92137989D01*
X167871505Y-92311401D01*
X168038599Y-92478495D01*
X168061264Y-92494365D01*
X168232165Y-92614032D01*
X168232167Y-92614033D01*
X168232170Y-92614035D01*
X168446337Y-92713903D01*
X168674592Y-92775063D01*
X168862918Y-92791539D01*
X168909999Y-92795659D01*
X168910000Y-92795659D01*
X168910001Y-92795659D01*
X168949234Y-92792226D01*
X169145408Y-92775063D01*
X169373663Y-92713903D01*
X169587830Y-92614035D01*
X169781401Y-92478495D01*
X169948495Y-92311401D01*
X170084035Y-92117830D01*
X170183903Y-91903663D01*
X170245063Y-91675408D01*
X170265659Y-91440000D01*
X170245063Y-91204592D01*
X170183903Y-90976337D01*
X170084035Y-90762171D01*
X170013280Y-90661121D01*
X169948494Y-90568597D01*
X169781402Y-90401506D01*
X169781401Y-90401505D01*
X169730725Y-90366021D01*
X169687101Y-90311445D01*
X169679909Y-90241946D01*
X169711431Y-90179592D01*
X169745556Y-90153962D01*
X169841565Y-90105044D01*
X169841566Y-90105043D01*
X169992675Y-89982675D01*
X170115042Y-89831567D01*
X170203317Y-89658315D01*
X170253644Y-89470497D01*
X170260000Y-89389740D01*
X170260000Y-89150000D01*
X169523347Y-89150000D01*
X169456308Y-89130315D01*
X169410553Y-89077511D01*
X169400609Y-89008353D01*
X169404369Y-88991067D01*
X169410000Y-88971888D01*
X169410000Y-88828111D01*
X169404369Y-88808933D01*
X169404370Y-88739064D01*
X169442145Y-88680286D01*
X169505701Y-88651262D01*
X169523347Y-88650000D01*
X170260000Y-88650000D01*
X170260000Y-88410260D01*
X170253644Y-88329502D01*
X170203317Y-88141684D01*
X170115042Y-87968432D01*
X169992675Y-87817324D01*
X169841567Y-87694957D01*
X169745555Y-87646037D01*
X169694759Y-87598063D01*
X169677964Y-87530242D01*
X169700501Y-87464107D01*
X169730727Y-87433977D01*
X169781401Y-87398495D01*
X169948495Y-87231401D01*
X170084035Y-87037830D01*
X170183903Y-86823663D01*
X170245063Y-86595408D01*
X170265659Y-86360000D01*
X170245063Y-86124592D01*
X170184993Y-85900406D01*
X170183905Y-85896344D01*
X170183904Y-85896343D01*
X170183903Y-85896337D01*
X170084035Y-85682171D01*
X170083505Y-85681413D01*
X169948494Y-85488597D01*
X169781402Y-85321506D01*
X169781396Y-85321501D01*
X169595842Y-85191575D01*
X169552217Y-85136998D01*
X169545023Y-85067500D01*
X169576546Y-85005145D01*
X169595842Y-84988425D01*
X169618026Y-84972891D01*
X169781401Y-84858495D01*
X169948495Y-84691401D01*
X170084035Y-84497830D01*
X170183903Y-84283663D01*
X170245063Y-84055408D01*
X170265659Y-83820000D01*
X170245063Y-83584592D01*
X170183903Y-83356337D01*
X170084035Y-83142171D01*
X170083505Y-83141413D01*
X169948494Y-82948597D01*
X169781402Y-82781506D01*
X169781401Y-82781505D01*
X169595842Y-82651575D01*
X169595841Y-82651574D01*
X169552216Y-82596997D01*
X169545024Y-82527498D01*
X169576546Y-82465144D01*
X169595836Y-82448428D01*
X169781401Y-82318495D01*
X169948495Y-82151401D01*
X170084035Y-81957830D01*
X170183903Y-81743663D01*
X170245063Y-81515408D01*
X170265659Y-81280000D01*
X170245063Y-81044592D01*
X170183903Y-80816337D01*
X170084035Y-80602171D01*
X169948495Y-80408599D01*
X169948494Y-80408597D01*
X169781402Y-80241506D01*
X169781396Y-80241501D01*
X169595842Y-80111575D01*
X169552217Y-80056998D01*
X169545023Y-79987500D01*
X169576546Y-79925145D01*
X169595842Y-79908425D01*
X169618026Y-79892891D01*
X169781401Y-79778495D01*
X169948495Y-79611401D01*
X170084035Y-79417830D01*
X170183903Y-79203663D01*
X170245063Y-78975408D01*
X170265659Y-78740000D01*
X170245063Y-78504592D01*
X170183903Y-78276337D01*
X170084035Y-78062171D01*
X169948495Y-77868599D01*
X169948494Y-77868597D01*
X169781402Y-77701506D01*
X169781401Y-77701505D01*
X169645337Y-77606232D01*
X169595841Y-77571574D01*
X169552216Y-77516997D01*
X169545024Y-77447498D01*
X169576546Y-77385144D01*
X169595836Y-77368428D01*
X169781401Y-77238495D01*
X169948495Y-77071401D01*
X170084035Y-76877830D01*
X170183903Y-76663663D01*
X170245063Y-76435408D01*
X170265659Y-76200000D01*
X170245063Y-75964592D01*
X170183903Y-75736337D01*
X170084035Y-75522171D01*
X169976504Y-75368599D01*
X169948494Y-75328597D01*
X169781402Y-75161506D01*
X169781396Y-75161501D01*
X169595842Y-75031575D01*
X169552217Y-74976998D01*
X169545023Y-74907500D01*
X169576546Y-74845145D01*
X169595842Y-74828425D01*
X169618026Y-74812891D01*
X169781401Y-74698495D01*
X169948495Y-74531401D01*
X170084035Y-74337830D01*
X170183903Y-74123663D01*
X170245063Y-73895408D01*
X170265659Y-73660000D01*
X170245063Y-73424592D01*
X170183903Y-73196337D01*
X170084035Y-72982171D01*
X169994054Y-72853663D01*
X169948494Y-72788597D01*
X169781402Y-72621506D01*
X169781401Y-72621505D01*
X169595842Y-72491575D01*
X169595841Y-72491574D01*
X169552216Y-72436997D01*
X169545024Y-72367498D01*
X169576546Y-72305144D01*
X169595836Y-72288428D01*
X169781401Y-72158495D01*
X169948495Y-71991401D01*
X170084035Y-71797830D01*
X170183903Y-71583663D01*
X170245063Y-71355408D01*
X170265659Y-71120000D01*
X170263690Y-71097500D01*
X170256772Y-71018425D01*
X170245063Y-70884592D01*
X170183903Y-70656337D01*
X170084035Y-70442171D01*
X170083652Y-70441623D01*
X169948494Y-70248597D01*
X169781402Y-70081506D01*
X169781396Y-70081501D01*
X169595842Y-69951575D01*
X169552217Y-69896998D01*
X169545023Y-69827500D01*
X169576546Y-69765145D01*
X169595842Y-69748425D01*
X169718305Y-69662675D01*
X169781401Y-69618495D01*
X169948495Y-69451401D01*
X170084035Y-69257830D01*
X170183903Y-69043663D01*
X170245063Y-68815408D01*
X170265659Y-68580000D01*
X170263769Y-68558403D01*
X170260676Y-68523041D01*
X170245063Y-68344592D01*
X170183903Y-68116337D01*
X170084035Y-67902171D01*
X170083652Y-67901623D01*
X169948494Y-67708597D01*
X169781402Y-67541506D01*
X169781395Y-67541501D01*
X169587834Y-67405967D01*
X169587830Y-67405965D01*
X169565729Y-67395659D01*
X169373663Y-67306097D01*
X169373659Y-67306096D01*
X169373655Y-67306094D01*
X169145413Y-67244938D01*
X169145403Y-67244936D01*
X168910001Y-67224341D01*
X168909999Y-67224341D01*
X168674596Y-67244936D01*
X168674586Y-67244938D01*
X168446344Y-67306094D01*
X168446335Y-67306098D01*
X168232171Y-67405964D01*
X168232169Y-67405965D01*
X168038597Y-67541505D01*
X167871505Y-67708597D01*
X167735965Y-67902169D01*
X167735964Y-67902171D01*
X167636098Y-68116335D01*
X167636094Y-68116344D01*
X167574938Y-68344586D01*
X167574936Y-68344596D01*
X167554341Y-68579999D01*
X167554341Y-68580000D01*
X167574936Y-68815403D01*
X167574938Y-68815413D01*
X167636094Y-69043655D01*
X167636096Y-69043659D01*
X167636097Y-69043663D01*
X167711563Y-69205500D01*
X167735965Y-69257830D01*
X167735967Y-69257834D01*
X167844281Y-69412521D01*
X167871501Y-69451396D01*
X167871506Y-69451402D01*
X168038597Y-69618493D01*
X168038603Y-69618498D01*
X168224158Y-69748425D01*
X168267783Y-69803002D01*
X168274977Y-69872500D01*
X168243454Y-69934855D01*
X168224158Y-69951575D01*
X168038597Y-70081505D01*
X167871505Y-70248597D01*
X167735965Y-70442169D01*
X167735964Y-70442171D01*
X167636098Y-70656335D01*
X167636094Y-70656344D01*
X167574938Y-70884586D01*
X167574936Y-70884596D01*
X167554341Y-71119999D01*
X167554341Y-71120000D01*
X167574936Y-71355403D01*
X167574938Y-71355413D01*
X167636094Y-71583655D01*
X167636096Y-71583659D01*
X167636097Y-71583663D01*
X167697869Y-71716133D01*
X167735965Y-71797830D01*
X167735967Y-71797834D01*
X167844281Y-71952521D01*
X167871501Y-71991396D01*
X167871506Y-71991402D01*
X168038597Y-72158493D01*
X168038603Y-72158498D01*
X168224158Y-72288425D01*
X168267783Y-72343002D01*
X168274977Y-72412500D01*
X168243454Y-72474855D01*
X168224158Y-72491575D01*
X168038597Y-72621505D01*
X167871505Y-72788597D01*
X167735965Y-72982169D01*
X167735964Y-72982171D01*
X167636098Y-73196335D01*
X167636094Y-73196344D01*
X167574938Y-73424586D01*
X167574936Y-73424596D01*
X167554341Y-73659999D01*
X167554341Y-73660000D01*
X167574936Y-73895403D01*
X167574938Y-73895413D01*
X167636094Y-74123655D01*
X167636096Y-74123659D01*
X167636097Y-74123663D01*
X167735965Y-74337829D01*
X167735965Y-74337830D01*
X167735967Y-74337834D01*
X167871501Y-74531395D01*
X167871506Y-74531402D01*
X168038597Y-74698493D01*
X168038603Y-74698498D01*
X168224158Y-74828425D01*
X168267783Y-74883002D01*
X168274977Y-74952500D01*
X168243454Y-75014855D01*
X168224158Y-75031575D01*
X168038597Y-75161505D01*
X167871505Y-75328597D01*
X167735965Y-75522169D01*
X167735964Y-75522171D01*
X167636098Y-75736335D01*
X167636094Y-75736344D01*
X167574938Y-75964586D01*
X167574936Y-75964596D01*
X167554341Y-76199999D01*
X167554341Y-76200000D01*
X167574936Y-76435403D01*
X167574938Y-76435413D01*
X167636094Y-76663655D01*
X167636096Y-76663659D01*
X167636097Y-76663663D01*
X167654750Y-76703664D01*
X167735965Y-76877830D01*
X167735967Y-76877834D01*
X167871501Y-77071395D01*
X167871506Y-77071402D01*
X168038597Y-77238493D01*
X168038603Y-77238498D01*
X168224158Y-77368425D01*
X168267783Y-77423002D01*
X168274977Y-77492500D01*
X168243454Y-77554855D01*
X168224158Y-77571575D01*
X168038597Y-77701505D01*
X167871505Y-77868597D01*
X167735965Y-78062169D01*
X167735964Y-78062171D01*
X167636098Y-78276335D01*
X167636094Y-78276344D01*
X167574938Y-78504586D01*
X167574936Y-78504596D01*
X167554341Y-78739999D01*
X167554341Y-78740000D01*
X167574936Y-78975403D01*
X167574938Y-78975413D01*
X167636094Y-79203655D01*
X167636096Y-79203659D01*
X167636097Y-79203663D01*
X167735964Y-79417830D01*
X167735965Y-79417830D01*
X167735967Y-79417834D01*
X167871501Y-79611395D01*
X167871506Y-79611402D01*
X168038597Y-79778493D01*
X168038603Y-79778498D01*
X168224158Y-79908425D01*
X168267783Y-79963002D01*
X168274977Y-80032500D01*
X168243454Y-80094855D01*
X168224158Y-80111575D01*
X168038597Y-80241505D01*
X167871505Y-80408597D01*
X167735965Y-80602169D01*
X167735964Y-80602171D01*
X167636098Y-80816335D01*
X167636094Y-80816344D01*
X167574938Y-81044586D01*
X167574936Y-81044596D01*
X167554341Y-81279999D01*
X167554341Y-81280000D01*
X167574936Y-81515403D01*
X167574938Y-81515413D01*
X167636094Y-81743655D01*
X167636096Y-81743659D01*
X167636097Y-81743663D01*
X167735965Y-81957829D01*
X167735965Y-81957830D01*
X167735967Y-81957834D01*
X167871501Y-82151395D01*
X167871506Y-82151402D01*
X168038597Y-82318493D01*
X168038603Y-82318498D01*
X168224158Y-82448425D01*
X168267783Y-82503002D01*
X168274977Y-82572500D01*
X168243454Y-82634855D01*
X168224158Y-82651575D01*
X168038597Y-82781505D01*
X167871505Y-82948597D01*
X167736495Y-83141413D01*
X167681918Y-83185038D01*
X167638825Y-83194228D01*
X167631284Y-83194466D01*
X167630203Y-83194500D01*
X167600650Y-83194500D01*
X167599929Y-83194590D01*
X167593757Y-83195369D01*
X167587945Y-83195826D01*
X167541372Y-83197290D01*
X167541369Y-83197291D01*
X167522126Y-83202881D01*
X167503083Y-83206825D01*
X167483204Y-83209336D01*
X167483203Y-83209337D01*
X167439878Y-83226490D01*
X167434352Y-83228382D01*
X167389608Y-83241383D01*
X167389604Y-83241385D01*
X167372365Y-83251580D01*
X167354898Y-83260137D01*
X167336269Y-83267512D01*
X167336267Y-83267513D01*
X167298564Y-83294906D01*
X167293682Y-83298112D01*
X167253580Y-83321828D01*
X167239408Y-83336000D01*
X167224623Y-83348628D01*
X167208412Y-83360407D01*
X167178709Y-83396310D01*
X167174777Y-83400631D01*
X164716208Y-85859199D01*
X164703951Y-85869020D01*
X164704134Y-85869241D01*
X164698123Y-85874213D01*
X164650772Y-85924636D01*
X164629889Y-85945519D01*
X164629877Y-85945532D01*
X164625621Y-85951017D01*
X164621837Y-85955447D01*
X164589937Y-85989418D01*
X164589936Y-85989420D01*
X164580284Y-86006976D01*
X164569610Y-86023226D01*
X164557329Y-86039061D01*
X164557324Y-86039068D01*
X164538815Y-86081838D01*
X164536245Y-86087084D01*
X164513803Y-86127906D01*
X164508822Y-86147307D01*
X164502521Y-86165710D01*
X164494562Y-86184102D01*
X164494561Y-86184105D01*
X164487271Y-86230127D01*
X164486087Y-86235846D01*
X164474501Y-86280972D01*
X164474499Y-86280984D01*
X164474499Y-86301020D01*
X164472973Y-86320411D01*
X164469840Y-86340194D01*
X164469840Y-86340195D01*
X164474225Y-86386583D01*
X164474500Y-86392421D01*
X164474500Y-89859546D01*
X164454815Y-89926585D01*
X164438181Y-89947227D01*
X163607228Y-90778181D01*
X163545905Y-90811666D01*
X163519547Y-90814500D01*
X160769500Y-90814500D01*
X160702461Y-90794815D01*
X160656706Y-90742011D01*
X160645500Y-90690500D01*
X160645500Y-73665226D01*
X160665185Y-73598187D01*
X160698374Y-73563654D01*
X160891401Y-73428495D01*
X161018363Y-73301532D01*
X161079682Y-73268050D01*
X161149374Y-73273034D01*
X161205308Y-73314905D01*
X161229725Y-73380369D01*
X161225819Y-73421299D01*
X161224938Y-73424585D01*
X161224936Y-73424596D01*
X161204341Y-73659999D01*
X161204341Y-73660000D01*
X161224936Y-73895403D01*
X161224938Y-73895413D01*
X161286094Y-74123655D01*
X161286096Y-74123659D01*
X161286097Y-74123663D01*
X161385964Y-74337829D01*
X161385965Y-74337830D01*
X161385967Y-74337834D01*
X161521501Y-74531395D01*
X161521506Y-74531402D01*
X161688597Y-74698493D01*
X161688603Y-74698498D01*
X161874158Y-74828425D01*
X161917783Y-74883002D01*
X161924977Y-74952500D01*
X161893454Y-75014855D01*
X161874158Y-75031575D01*
X161688597Y-75161505D01*
X161521505Y-75328597D01*
X161385965Y-75522169D01*
X161385964Y-75522171D01*
X161286098Y-75736335D01*
X161286094Y-75736344D01*
X161224938Y-75964586D01*
X161224936Y-75964596D01*
X161204341Y-76199999D01*
X161204341Y-76200000D01*
X161224936Y-76435403D01*
X161224938Y-76435413D01*
X161286094Y-76663655D01*
X161286096Y-76663659D01*
X161286097Y-76663663D01*
X161304750Y-76703664D01*
X161385965Y-76877830D01*
X161385967Y-76877834D01*
X161521501Y-77071395D01*
X161521506Y-77071402D01*
X161688597Y-77238493D01*
X161688603Y-77238498D01*
X161874158Y-77368425D01*
X161917783Y-77423002D01*
X161924977Y-77492500D01*
X161893454Y-77554855D01*
X161874158Y-77571575D01*
X161688597Y-77701505D01*
X161521505Y-77868597D01*
X161385965Y-78062169D01*
X161385964Y-78062171D01*
X161286098Y-78276335D01*
X161286094Y-78276344D01*
X161224938Y-78504586D01*
X161224936Y-78504596D01*
X161204341Y-78739999D01*
X161204341Y-78740000D01*
X161224936Y-78975403D01*
X161224938Y-78975413D01*
X161286094Y-79203655D01*
X161286096Y-79203659D01*
X161286097Y-79203663D01*
X161385965Y-79417830D01*
X161385967Y-79417834D01*
X161521501Y-79611395D01*
X161521506Y-79611402D01*
X161688597Y-79778493D01*
X161688603Y-79778498D01*
X161874158Y-79908425D01*
X161917783Y-79963002D01*
X161924977Y-80032500D01*
X161893454Y-80094855D01*
X161874158Y-80111575D01*
X161688597Y-80241505D01*
X161521505Y-80408597D01*
X161385965Y-80602169D01*
X161385964Y-80602171D01*
X161286098Y-80816335D01*
X161286094Y-80816344D01*
X161224938Y-81044586D01*
X161224936Y-81044596D01*
X161204341Y-81279999D01*
X161204341Y-81280000D01*
X161224936Y-81515403D01*
X161224938Y-81515413D01*
X161286094Y-81743655D01*
X161286096Y-81743659D01*
X161286097Y-81743663D01*
X161385965Y-81957829D01*
X161385965Y-81957830D01*
X161385967Y-81957834D01*
X161521501Y-82151395D01*
X161521506Y-82151402D01*
X161688597Y-82318493D01*
X161688603Y-82318498D01*
X161874158Y-82448425D01*
X161917783Y-82503002D01*
X161924977Y-82572500D01*
X161893454Y-82634855D01*
X161874158Y-82651575D01*
X161688597Y-82781505D01*
X161521505Y-82948597D01*
X161385965Y-83142169D01*
X161385964Y-83142171D01*
X161286098Y-83356335D01*
X161286094Y-83356344D01*
X161224938Y-83584586D01*
X161224936Y-83584596D01*
X161204341Y-83819999D01*
X161204341Y-83820000D01*
X161224936Y-84055403D01*
X161224938Y-84055413D01*
X161286094Y-84283655D01*
X161286096Y-84283659D01*
X161286097Y-84283663D01*
X161385964Y-84497830D01*
X161385965Y-84497830D01*
X161385967Y-84497834D01*
X161521501Y-84691395D01*
X161521506Y-84691402D01*
X161688597Y-84858493D01*
X161688603Y-84858498D01*
X161874158Y-84988425D01*
X161917783Y-85043002D01*
X161924977Y-85112500D01*
X161893454Y-85174855D01*
X161874158Y-85191575D01*
X161688597Y-85321505D01*
X161521505Y-85488597D01*
X161385965Y-85682169D01*
X161385964Y-85682171D01*
X161286098Y-85896335D01*
X161286094Y-85896344D01*
X161224938Y-86124586D01*
X161224936Y-86124596D01*
X161204341Y-86359999D01*
X161204341Y-86360000D01*
X161224936Y-86595403D01*
X161224938Y-86595413D01*
X161286094Y-86823655D01*
X161286096Y-86823659D01*
X161286097Y-86823663D01*
X161321694Y-86900000D01*
X161385965Y-87037830D01*
X161385967Y-87037834D01*
X161476258Y-87166782D01*
X161506289Y-87209671D01*
X161521501Y-87231395D01*
X161521506Y-87231402D01*
X161688597Y-87398493D01*
X161688603Y-87398498D01*
X161874158Y-87528425D01*
X161917783Y-87583002D01*
X161924977Y-87652500D01*
X161893454Y-87714855D01*
X161874158Y-87731575D01*
X161688597Y-87861505D01*
X161521505Y-88028597D01*
X161385965Y-88222169D01*
X161385964Y-88222171D01*
X161286098Y-88436335D01*
X161286094Y-88436344D01*
X161224938Y-88664586D01*
X161224936Y-88664596D01*
X161204341Y-88899999D01*
X161204341Y-88900000D01*
X161224936Y-89135403D01*
X161224938Y-89135413D01*
X161286094Y-89363655D01*
X161286096Y-89363659D01*
X161286097Y-89363663D01*
X161335915Y-89470497D01*
X161385965Y-89577830D01*
X161385967Y-89577834D01*
X161442321Y-89658315D01*
X161521505Y-89771401D01*
X161688599Y-89938495D01*
X161701070Y-89947227D01*
X161882165Y-90074032D01*
X161882167Y-90074033D01*
X161882170Y-90074035D01*
X162096337Y-90173903D01*
X162324592Y-90235063D01*
X162512918Y-90251539D01*
X162559999Y-90255659D01*
X162560000Y-90255659D01*
X162560001Y-90255659D01*
X162599234Y-90252226D01*
X162795408Y-90235063D01*
X163023663Y-90173903D01*
X163237830Y-90074035D01*
X163431401Y-89938495D01*
X163598495Y-89771401D01*
X163734035Y-89577830D01*
X163833903Y-89363663D01*
X163895063Y-89135408D01*
X163915659Y-88900000D01*
X163895063Y-88664592D01*
X163833903Y-88436337D01*
X163734035Y-88222171D01*
X163598495Y-88028599D01*
X163598494Y-88028597D01*
X163431402Y-87861506D01*
X163431401Y-87861505D01*
X163245842Y-87731575D01*
X163245841Y-87731574D01*
X163202216Y-87676997D01*
X163195024Y-87607498D01*
X163226546Y-87545144D01*
X163245836Y-87528428D01*
X163431401Y-87398495D01*
X163598495Y-87231401D01*
X163734035Y-87037830D01*
X163833903Y-86823663D01*
X163895063Y-86595408D01*
X163915659Y-86360000D01*
X163895063Y-86124592D01*
X163834993Y-85900406D01*
X163833905Y-85896344D01*
X163833904Y-85896343D01*
X163833903Y-85896337D01*
X163734035Y-85682171D01*
X163733505Y-85681413D01*
X163598494Y-85488597D01*
X163431402Y-85321506D01*
X163431401Y-85321505D01*
X163245842Y-85191575D01*
X163245841Y-85191574D01*
X163202216Y-85136997D01*
X163195024Y-85067498D01*
X163226546Y-85005144D01*
X163245836Y-84988428D01*
X163431401Y-84858495D01*
X163598495Y-84691401D01*
X163734035Y-84497830D01*
X163833903Y-84283663D01*
X163895063Y-84055408D01*
X163915659Y-83820000D01*
X163895063Y-83584592D01*
X163833903Y-83356337D01*
X163734035Y-83142171D01*
X163733505Y-83141413D01*
X163598494Y-82948597D01*
X163431402Y-82781506D01*
X163431401Y-82781505D01*
X163245842Y-82651575D01*
X163245841Y-82651574D01*
X163202216Y-82596997D01*
X163195024Y-82527498D01*
X163226546Y-82465144D01*
X163245836Y-82448428D01*
X163431401Y-82318495D01*
X163598495Y-82151401D01*
X163734035Y-81957830D01*
X163833903Y-81743663D01*
X163895063Y-81515408D01*
X163915659Y-81280000D01*
X163895063Y-81044592D01*
X163833903Y-80816337D01*
X163734035Y-80602171D01*
X163598495Y-80408599D01*
X163598494Y-80408597D01*
X163431402Y-80241506D01*
X163431401Y-80241505D01*
X163245842Y-80111575D01*
X163245841Y-80111574D01*
X163202216Y-80056997D01*
X163195024Y-79987498D01*
X163226546Y-79925144D01*
X163245836Y-79908428D01*
X163431401Y-79778495D01*
X163598495Y-79611401D01*
X163734035Y-79417830D01*
X163833903Y-79203663D01*
X163895063Y-78975408D01*
X163915659Y-78740000D01*
X163895063Y-78504592D01*
X163833903Y-78276337D01*
X163734035Y-78062171D01*
X163598495Y-77868599D01*
X163598494Y-77868597D01*
X163431402Y-77701506D01*
X163431396Y-77701501D01*
X163245842Y-77571575D01*
X163202217Y-77516998D01*
X163195023Y-77447500D01*
X163226546Y-77385145D01*
X163245842Y-77368425D01*
X163374275Y-77278495D01*
X163431401Y-77238495D01*
X163598495Y-77071401D01*
X163734035Y-76877830D01*
X163833903Y-76663663D01*
X163895063Y-76435408D01*
X163915659Y-76200000D01*
X163895063Y-75964592D01*
X163833903Y-75736337D01*
X163734035Y-75522171D01*
X163626504Y-75368599D01*
X163598494Y-75328597D01*
X163431402Y-75161506D01*
X163431401Y-75161505D01*
X163294956Y-75065965D01*
X163245841Y-75031574D01*
X163202216Y-74976997D01*
X163195024Y-74907498D01*
X163226546Y-74845144D01*
X163245836Y-74828428D01*
X163431401Y-74698495D01*
X163598495Y-74531401D01*
X163734035Y-74337830D01*
X163833903Y-74123663D01*
X163895063Y-73895408D01*
X163915659Y-73660000D01*
X163895063Y-73424592D01*
X163833903Y-73196337D01*
X163734035Y-72982171D01*
X163644054Y-72853663D01*
X163598494Y-72788597D01*
X163431402Y-72621506D01*
X163431396Y-72621501D01*
X163245842Y-72491575D01*
X163202217Y-72436998D01*
X163195023Y-72367500D01*
X163226546Y-72305145D01*
X163245842Y-72288425D01*
X163268026Y-72272891D01*
X163431401Y-72158495D01*
X163598495Y-71991401D01*
X163734035Y-71797830D01*
X163833903Y-71583663D01*
X163895063Y-71355408D01*
X163915659Y-71120000D01*
X163913690Y-71097500D01*
X163906772Y-71018425D01*
X163895063Y-70884592D01*
X163833903Y-70656337D01*
X163734035Y-70442171D01*
X163733652Y-70441623D01*
X163598494Y-70248597D01*
X163431402Y-70081506D01*
X163431401Y-70081505D01*
X163245842Y-69951575D01*
X163245841Y-69951574D01*
X163202216Y-69896997D01*
X163195024Y-69827498D01*
X163226546Y-69765144D01*
X163245836Y-69748428D01*
X163431401Y-69618495D01*
X163598495Y-69451401D01*
X163734035Y-69257830D01*
X163833903Y-69043663D01*
X163895063Y-68815408D01*
X163915659Y-68580000D01*
X163913769Y-68558403D01*
X163910676Y-68523041D01*
X163895063Y-68344592D01*
X163833903Y-68116337D01*
X163734035Y-67902171D01*
X163733652Y-67901623D01*
X163598494Y-67708597D01*
X163431402Y-67541506D01*
X163431396Y-67541501D01*
X163245842Y-67411575D01*
X163202217Y-67356998D01*
X163195023Y-67287500D01*
X163226546Y-67225145D01*
X163245842Y-67208425D01*
X163268026Y-67192891D01*
X163431401Y-67078495D01*
X163598495Y-66911401D01*
X163734035Y-66717830D01*
X163833903Y-66503663D01*
X163895063Y-66275408D01*
X163915659Y-66040000D01*
X163895063Y-65804592D01*
X163835016Y-65580492D01*
X163833905Y-65576344D01*
X163833904Y-65576343D01*
X163833903Y-65576337D01*
X163734035Y-65362171D01*
X163598495Y-65168599D01*
X163598494Y-65168597D01*
X163431402Y-65001506D01*
X163431401Y-65001505D01*
X163380725Y-64966021D01*
X163337101Y-64911445D01*
X163329909Y-64841946D01*
X163361431Y-64779592D01*
X163395556Y-64753962D01*
X163491565Y-64705044D01*
X163491566Y-64705043D01*
X163642675Y-64582675D01*
X163765042Y-64431567D01*
X163853317Y-64258315D01*
X163903644Y-64070497D01*
X163910000Y-63989740D01*
X163910000Y-63750000D01*
X163173347Y-63750000D01*
X163106308Y-63730315D01*
X163060553Y-63677511D01*
X163050609Y-63608353D01*
X163054369Y-63591067D01*
X163060000Y-63571888D01*
X163060000Y-63428111D01*
X163054369Y-63408933D01*
X163054370Y-63339064D01*
X163092145Y-63280286D01*
X163155701Y-63251262D01*
X163173347Y-63250000D01*
X163910000Y-63250000D01*
X163910000Y-63010260D01*
X163903644Y-62929502D01*
X163853317Y-62741684D01*
X163765042Y-62568432D01*
X163642675Y-62417324D01*
X163491567Y-62294957D01*
X163395555Y-62246037D01*
X163378575Y-62230000D01*
X165014341Y-62230000D01*
X165034936Y-62465403D01*
X165034938Y-62465413D01*
X165096094Y-62693655D01*
X165096096Y-62693659D01*
X165096097Y-62693663D01*
X165189323Y-62893586D01*
X165195965Y-62907830D01*
X165195967Y-62907834D01*
X165304281Y-63062521D01*
X165331505Y-63101401D01*
X165498599Y-63268495D01*
X165575710Y-63322489D01*
X165692165Y-63404032D01*
X165692167Y-63404033D01*
X165692170Y-63404035D01*
X165906337Y-63503903D01*
X166134592Y-63565063D01*
X166322918Y-63581539D01*
X166369999Y-63585659D01*
X166370000Y-63585659D01*
X166370001Y-63585659D01*
X166409234Y-63582226D01*
X166605408Y-63565063D01*
X166833663Y-63503903D01*
X167047830Y-63404035D01*
X167241401Y-63268495D01*
X167408495Y-63101401D01*
X167518424Y-62944405D01*
X167573002Y-62900780D01*
X167642500Y-62893586D01*
X167704855Y-62925109D01*
X167721575Y-62944405D01*
X167831500Y-63101395D01*
X167831505Y-63101401D01*
X167998599Y-63268495D01*
X168075710Y-63322489D01*
X168192165Y-63404032D01*
X168192167Y-63404033D01*
X168192170Y-63404035D01*
X168406337Y-63503903D01*
X168634592Y-63565063D01*
X168822918Y-63581539D01*
X168869999Y-63585659D01*
X168870000Y-63585659D01*
X168870001Y-63585659D01*
X168909234Y-63582226D01*
X169105408Y-63565063D01*
X169333663Y-63503903D01*
X169547830Y-63404035D01*
X169741401Y-63268495D01*
X169908495Y-63101401D01*
X170044035Y-62907830D01*
X170143903Y-62693663D01*
X170205063Y-62465408D01*
X170225659Y-62230000D01*
X170223690Y-62207500D01*
X170208509Y-62033977D01*
X170205063Y-61994592D01*
X170143903Y-61766337D01*
X170044035Y-61552171D01*
X170031936Y-61534891D01*
X169908494Y-61358597D01*
X169741402Y-61191506D01*
X169741395Y-61191501D01*
X169547834Y-61055967D01*
X169547830Y-61055965D01*
X169547830Y-61055964D01*
X169333663Y-60956097D01*
X169333659Y-60956096D01*
X169333655Y-60956094D01*
X169105413Y-60894938D01*
X169105403Y-60894936D01*
X168870001Y-60874341D01*
X168869999Y-60874341D01*
X168634596Y-60894936D01*
X168634586Y-60894938D01*
X168406344Y-60956094D01*
X168406335Y-60956098D01*
X168192171Y-61055964D01*
X168192169Y-61055965D01*
X167998597Y-61191505D01*
X167831505Y-61358597D01*
X167721575Y-61515595D01*
X167666998Y-61559220D01*
X167597500Y-61566414D01*
X167535145Y-61534891D01*
X167518425Y-61515595D01*
X167408494Y-61358597D01*
X167241402Y-61191506D01*
X167241395Y-61191501D01*
X167047834Y-61055967D01*
X167047830Y-61055965D01*
X167047829Y-61055964D01*
X166833663Y-60956097D01*
X166833659Y-60956096D01*
X166833655Y-60956094D01*
X166605413Y-60894938D01*
X166605403Y-60894936D01*
X166370001Y-60874341D01*
X166369999Y-60874341D01*
X166134596Y-60894936D01*
X166134586Y-60894938D01*
X165906344Y-60956094D01*
X165906335Y-60956098D01*
X165692171Y-61055964D01*
X165692169Y-61055965D01*
X165498597Y-61191505D01*
X165331505Y-61358597D01*
X165195965Y-61552169D01*
X165195964Y-61552171D01*
X165096098Y-61766335D01*
X165096094Y-61766344D01*
X165034938Y-61994586D01*
X165034936Y-61994596D01*
X165014341Y-62229999D01*
X165014341Y-62230000D01*
X163378575Y-62230000D01*
X163344759Y-62198063D01*
X163327964Y-62130242D01*
X163350501Y-62064107D01*
X163380727Y-62033977D01*
X163431401Y-61998495D01*
X163598495Y-61831401D01*
X163734035Y-61637830D01*
X163833903Y-61423663D01*
X163895063Y-61195408D01*
X163915659Y-60960000D01*
X163895063Y-60724592D01*
X163833903Y-60496337D01*
X163734035Y-60282171D01*
X163598495Y-60088599D01*
X163598494Y-60088597D01*
X163431402Y-59921506D01*
X163431395Y-59921501D01*
X163237834Y-59785967D01*
X163237830Y-59785965D01*
X163237829Y-59785964D01*
X163023663Y-59686097D01*
X163023659Y-59686096D01*
X163023655Y-59686094D01*
X162795413Y-59624938D01*
X162795403Y-59624936D01*
X162560001Y-59604341D01*
X162559999Y-59604341D01*
X162324596Y-59624936D01*
X162324586Y-59624938D01*
X162096344Y-59686094D01*
X162096335Y-59686098D01*
X161882171Y-59785964D01*
X161882169Y-59785965D01*
X161688597Y-59921505D01*
X161521505Y-60088597D01*
X161385965Y-60282169D01*
X161385964Y-60282171D01*
X161286098Y-60496335D01*
X161286094Y-60496344D01*
X161224938Y-60724586D01*
X161224936Y-60724596D01*
X161204341Y-60959999D01*
X161204341Y-60960000D01*
X161224936Y-61195403D01*
X161224938Y-61195413D01*
X161286094Y-61423655D01*
X161286096Y-61423659D01*
X161286097Y-61423663D01*
X161352663Y-61566414D01*
X161385965Y-61637830D01*
X161385967Y-61637834D01*
X161521501Y-61831395D01*
X161521506Y-61831402D01*
X161688597Y-61998493D01*
X161688603Y-61998498D01*
X161739272Y-62033977D01*
X161782897Y-62088554D01*
X161790091Y-62158052D01*
X161758568Y-62220407D01*
X161724444Y-62246037D01*
X161628432Y-62294957D01*
X161477324Y-62417324D01*
X161354957Y-62568432D01*
X161266682Y-62741684D01*
X161216355Y-62929502D01*
X161210000Y-63010260D01*
X161210000Y-63250000D01*
X161946653Y-63250000D01*
X162013692Y-63269685D01*
X162059447Y-63322489D01*
X162069391Y-63391647D01*
X162065631Y-63408933D01*
X162060000Y-63428111D01*
X162060000Y-63571888D01*
X162065631Y-63591067D01*
X162065630Y-63660936D01*
X162027855Y-63719714D01*
X161964299Y-63748738D01*
X161946653Y-63750000D01*
X161210000Y-63750000D01*
X161210000Y-63989740D01*
X161216355Y-64070497D01*
X161266682Y-64258315D01*
X161354957Y-64431567D01*
X161477324Y-64582675D01*
X161628433Y-64705043D01*
X161628435Y-64705044D01*
X161724443Y-64753962D01*
X161775239Y-64801936D01*
X161792035Y-64869757D01*
X161769498Y-64935892D01*
X161739274Y-64966021D01*
X161688595Y-65001507D01*
X161521505Y-65168597D01*
X161385965Y-65362169D01*
X161385964Y-65362171D01*
X161286098Y-65576335D01*
X161286094Y-65576344D01*
X161224938Y-65804586D01*
X161224936Y-65804596D01*
X161204341Y-66039999D01*
X161204341Y-66040000D01*
X161224936Y-66275403D01*
X161224938Y-66275413D01*
X161286094Y-66503655D01*
X161286096Y-66503659D01*
X161286097Y-66503663D01*
X161321694Y-66580000D01*
X161385965Y-66717830D01*
X161385967Y-66717834D01*
X161521501Y-66911395D01*
X161521506Y-66911402D01*
X161688597Y-67078493D01*
X161688603Y-67078498D01*
X161874158Y-67208425D01*
X161917783Y-67263002D01*
X161924977Y-67332500D01*
X161893454Y-67394855D01*
X161874158Y-67411575D01*
X161688597Y-67541505D01*
X161521505Y-67708597D01*
X161385965Y-67902169D01*
X161385964Y-67902171D01*
X161286098Y-68116335D01*
X161286094Y-68116344D01*
X161224938Y-68344586D01*
X161224936Y-68344596D01*
X161204341Y-68579999D01*
X161204341Y-68580000D01*
X161224936Y-68815403D01*
X161224938Y-68815412D01*
X161225817Y-68818692D01*
X161225781Y-68820193D01*
X161225878Y-68820742D01*
X161225767Y-68820761D01*
X161224152Y-68888542D01*
X161184988Y-68946403D01*
X161120759Y-68973905D01*
X161051857Y-68962317D01*
X161018360Y-68938464D01*
X160968438Y-68888542D01*
X160891401Y-68811505D01*
X160891397Y-68811502D01*
X160891396Y-68811501D01*
X160697834Y-68675967D01*
X160697830Y-68675965D01*
X160643958Y-68650844D01*
X160483663Y-68576097D01*
X160483659Y-68576096D01*
X160483655Y-68576094D01*
X160255413Y-68514938D01*
X160255403Y-68514936D01*
X160020001Y-68494341D01*
X160019999Y-68494341D01*
X159784596Y-68514936D01*
X159784586Y-68514938D01*
X159556344Y-68576094D01*
X159556335Y-68576098D01*
X159342171Y-68675964D01*
X159342169Y-68675965D01*
X159148597Y-68811505D01*
X158981505Y-68978597D01*
X158845965Y-69172169D01*
X158845964Y-69172171D01*
X158746098Y-69386335D01*
X158746094Y-69386344D01*
X158684938Y-69614586D01*
X158684936Y-69614596D01*
X158664341Y-69849999D01*
X158664341Y-69850000D01*
X158684936Y-70085403D01*
X158684938Y-70085413D01*
X158746094Y-70313655D01*
X158746096Y-70313659D01*
X158746097Y-70313663D01*
X158821244Y-70474815D01*
X158845965Y-70527830D01*
X158845967Y-70527834D01*
X158981501Y-70721395D01*
X158981506Y-70721402D01*
X159148597Y-70888493D01*
X159148603Y-70888498D01*
X159334158Y-71018425D01*
X159377783Y-71073002D01*
X159384977Y-71142500D01*
X159353454Y-71204855D01*
X159334158Y-71221575D01*
X159148597Y-71351505D01*
X158981505Y-71518597D01*
X158845965Y-71712169D01*
X158845964Y-71712171D01*
X158746098Y-71926335D01*
X158746094Y-71926344D01*
X158684938Y-72154586D01*
X158684936Y-72154596D01*
X158664341Y-72389999D01*
X158664341Y-72390000D01*
X158684936Y-72625403D01*
X158684938Y-72625413D01*
X158746094Y-72853655D01*
X158746096Y-72853659D01*
X158746097Y-72853663D01*
X158845964Y-73067829D01*
X158845965Y-73067830D01*
X158845967Y-73067834D01*
X158954281Y-73222521D01*
X158981505Y-73261401D01*
X159148599Y-73428495D01*
X159341624Y-73563653D01*
X159385248Y-73618228D01*
X159394500Y-73665226D01*
X159394500Y-90690500D01*
X159374815Y-90757539D01*
X159322011Y-90803294D01*
X159270500Y-90814500D01*
X158197738Y-90814500D01*
X158182121Y-90812776D01*
X158182094Y-90813062D01*
X158174332Y-90812327D01*
X158105204Y-90814500D01*
X158075650Y-90814500D01*
X158074929Y-90814590D01*
X158068757Y-90815369D01*
X158062945Y-90815826D01*
X158016373Y-90817290D01*
X158016372Y-90817290D01*
X157997129Y-90822881D01*
X157978079Y-90826825D01*
X157958211Y-90829334D01*
X157914884Y-90846488D01*
X157909358Y-90848379D01*
X157864614Y-90861379D01*
X157864610Y-90861381D01*
X157847366Y-90871579D01*
X157829905Y-90880133D01*
X157811274Y-90887510D01*
X157811262Y-90887517D01*
X157773570Y-90914902D01*
X157768687Y-90918109D01*
X157728580Y-90941829D01*
X157714414Y-90955995D01*
X157699624Y-90968627D01*
X157683414Y-90980404D01*
X157683411Y-90980407D01*
X157653710Y-91016309D01*
X157649777Y-91020631D01*
X154556208Y-94114199D01*
X154543951Y-94124020D01*
X154544134Y-94124241D01*
X154538123Y-94129213D01*
X154490772Y-94179636D01*
X154469889Y-94200519D01*
X154469877Y-94200532D01*
X154465621Y-94206017D01*
X154461837Y-94210447D01*
X154429937Y-94244418D01*
X154429936Y-94244420D01*
X154420284Y-94261976D01*
X154409610Y-94278226D01*
X154397329Y-94294061D01*
X154397324Y-94294068D01*
X154378815Y-94336838D01*
X154376245Y-94342084D01*
X154353803Y-94382906D01*
X154348822Y-94402307D01*
X154342521Y-94420710D01*
X154334562Y-94439102D01*
X154334561Y-94439105D01*
X154327271Y-94485127D01*
X154326087Y-94490846D01*
X154314501Y-94535972D01*
X154314500Y-94535982D01*
X154314500Y-94556016D01*
X154312973Y-94575415D01*
X154309840Y-94595194D01*
X154309840Y-94595195D01*
X154314225Y-94641583D01*
X154314500Y-94647421D01*
X154314500Y-95119773D01*
X154294815Y-95186812D01*
X154261623Y-95221348D01*
X154068597Y-95356505D01*
X153901505Y-95523597D01*
X153765965Y-95717169D01*
X153765964Y-95717171D01*
X153666098Y-95931335D01*
X153666094Y-95931344D01*
X153604938Y-96159586D01*
X153604936Y-96159596D01*
X153589500Y-96336034D01*
X153589500Y-96703966D01*
X139700500Y-96703966D01*
X139700500Y-86889740D01*
X140740000Y-86889740D01*
X140746355Y-86970497D01*
X140796682Y-87158315D01*
X140884957Y-87331567D01*
X141007324Y-87482675D01*
X141158432Y-87605042D01*
X141315486Y-87685065D01*
X141366282Y-87733039D01*
X141383077Y-87800860D01*
X141360540Y-87866995D01*
X141346872Y-87883231D01*
X141201505Y-88028597D01*
X141065965Y-88222169D01*
X141065964Y-88222171D01*
X140966098Y-88436335D01*
X140966094Y-88436344D01*
X140904938Y-88664586D01*
X140904936Y-88664596D01*
X140884341Y-88899999D01*
X140884341Y-88900000D01*
X140904936Y-89135403D01*
X140904938Y-89135413D01*
X140966094Y-89363655D01*
X140966096Y-89363659D01*
X140966097Y-89363663D01*
X141015915Y-89470497D01*
X141065965Y-89577830D01*
X141065967Y-89577834D01*
X141122321Y-89658315D01*
X141201505Y-89771401D01*
X141368599Y-89938495D01*
X141381070Y-89947227D01*
X141562165Y-90074032D01*
X141562167Y-90074033D01*
X141562170Y-90074035D01*
X141776337Y-90173903D01*
X142004592Y-90235063D01*
X142192918Y-90251539D01*
X142239999Y-90255659D01*
X142240000Y-90255659D01*
X142240001Y-90255659D01*
X142279234Y-90252226D01*
X142475408Y-90235063D01*
X142703663Y-90173903D01*
X142917830Y-90074035D01*
X143111401Y-89938495D01*
X143278495Y-89771401D01*
X143414035Y-89577830D01*
X143513903Y-89363663D01*
X143575063Y-89135408D01*
X143595659Y-88900000D01*
X143575063Y-88664592D01*
X143513903Y-88436337D01*
X143414035Y-88222171D01*
X143278495Y-88028599D01*
X143133125Y-87883229D01*
X143099642Y-87821909D01*
X143104626Y-87752217D01*
X143146497Y-87696283D01*
X143164514Y-87685065D01*
X143321564Y-87605044D01*
X143321566Y-87605043D01*
X143472675Y-87482675D01*
X143595042Y-87331567D01*
X143683317Y-87158315D01*
X143733644Y-86970497D01*
X143740000Y-86889740D01*
X143740000Y-86650000D01*
X142853347Y-86650000D01*
X142786308Y-86630315D01*
X142740553Y-86577511D01*
X142730609Y-86508353D01*
X142734369Y-86491067D01*
X142740000Y-86471888D01*
X142740000Y-86328111D01*
X142734369Y-86308933D01*
X142734370Y-86239064D01*
X142772145Y-86180286D01*
X142835701Y-86151262D01*
X142853347Y-86150000D01*
X143740000Y-86150000D01*
X143740000Y-85910260D01*
X143733644Y-85829502D01*
X143683317Y-85641684D01*
X143595042Y-85468432D01*
X143472675Y-85317324D01*
X143321567Y-85194957D01*
X143148315Y-85106682D01*
X142960497Y-85056355D01*
X142879740Y-85050000D01*
X142490000Y-85050000D01*
X142490000Y-85787698D01*
X142470315Y-85854737D01*
X142417511Y-85900492D01*
X142348355Y-85910436D01*
X142275766Y-85900000D01*
X142275763Y-85900000D01*
X142204237Y-85900000D01*
X142204233Y-85900000D01*
X142131645Y-85910436D01*
X142062487Y-85900492D01*
X142009684Y-85854736D01*
X141990000Y-85787698D01*
X141990000Y-85050000D01*
X141600260Y-85050000D01*
X141519502Y-85056355D01*
X141331684Y-85106682D01*
X141158432Y-85194957D01*
X141007324Y-85317324D01*
X140884957Y-85468432D01*
X140796682Y-85641684D01*
X140746355Y-85829502D01*
X140740000Y-85910260D01*
X140740000Y-86150000D01*
X141626653Y-86150000D01*
X141693692Y-86169685D01*
X141739447Y-86222489D01*
X141749391Y-86291647D01*
X141745631Y-86308933D01*
X141740000Y-86328111D01*
X141740000Y-86471888D01*
X141745631Y-86491067D01*
X141745630Y-86560936D01*
X141707855Y-86619714D01*
X141644299Y-86648738D01*
X141626653Y-86650000D01*
X140740000Y-86650000D01*
X140740000Y-86889740D01*
X139700500Y-86889740D01*
X139700500Y-76240000D01*
X140734341Y-76240000D01*
X140754936Y-76475403D01*
X140754938Y-76475413D01*
X140816094Y-76703655D01*
X140816096Y-76703659D01*
X140816097Y-76703663D01*
X140866031Y-76810745D01*
X140915964Y-76917828D01*
X140915965Y-76917830D01*
X141051505Y-77111402D01*
X141218597Y-77278494D01*
X141412169Y-77414034D01*
X141412175Y-77414037D01*
X141437799Y-77425986D01*
X141490239Y-77472158D01*
X141509391Y-77539351D01*
X141489176Y-77606232D01*
X141456519Y-77639943D01*
X141368594Y-77701508D01*
X141201505Y-77868597D01*
X141065965Y-78062169D01*
X141065964Y-78062171D01*
X140966098Y-78276335D01*
X140966094Y-78276344D01*
X140904938Y-78504586D01*
X140904936Y-78504596D01*
X140884341Y-78739999D01*
X140884341Y-78740000D01*
X140904936Y-78975403D01*
X140904938Y-78975413D01*
X140966094Y-79203655D01*
X140966096Y-79203659D01*
X140966097Y-79203663D01*
X141065965Y-79417829D01*
X141065965Y-79417830D01*
X141065967Y-79417834D01*
X141174281Y-79572521D01*
X141201505Y-79611401D01*
X141368599Y-79778495D01*
X141465384Y-79846264D01*
X141562165Y-79914032D01*
X141562167Y-79914033D01*
X141562170Y-79914035D01*
X141776337Y-80013903D01*
X142004592Y-80075063D01*
X142192918Y-80091539D01*
X142239999Y-80095659D01*
X142240000Y-80095659D01*
X142240001Y-80095659D01*
X142279234Y-80092226D01*
X142475408Y-80075063D01*
X142703663Y-80013903D01*
X142917830Y-79914035D01*
X143111401Y-79778495D01*
X143278495Y-79611401D01*
X143414035Y-79417830D01*
X143513903Y-79203663D01*
X143575063Y-78975408D01*
X143595659Y-78740000D01*
X143575063Y-78504592D01*
X143513903Y-78276337D01*
X143414035Y-78062171D01*
X143278495Y-77868599D01*
X143278494Y-77868597D01*
X143111402Y-77701506D01*
X143111401Y-77701505D01*
X143023481Y-77639943D01*
X142979857Y-77585366D01*
X142972664Y-77515867D01*
X143004186Y-77453513D01*
X143042201Y-77425986D01*
X143055835Y-77419627D01*
X143067829Y-77414035D01*
X143261401Y-77278495D01*
X143428495Y-77111401D01*
X143564035Y-76917830D01*
X143663903Y-76703663D01*
X143725063Y-76475408D01*
X143745659Y-76240000D01*
X143725063Y-76004592D01*
X143663903Y-75776337D01*
X143564035Y-75562171D01*
X143564034Y-75562169D01*
X143428494Y-75368597D01*
X143261402Y-75201505D01*
X143067830Y-75065965D01*
X143067828Y-75065964D01*
X142958224Y-75014855D01*
X142853663Y-74966097D01*
X142853659Y-74966096D01*
X142853655Y-74966094D01*
X142625413Y-74904938D01*
X142625403Y-74904936D01*
X142448966Y-74889500D01*
X142031034Y-74889500D01*
X141854596Y-74904936D01*
X141854586Y-74904938D01*
X141626344Y-74966094D01*
X141626335Y-74966098D01*
X141412171Y-75065964D01*
X141412169Y-75065965D01*
X141218597Y-75201505D01*
X141051506Y-75368597D01*
X141051501Y-75368604D01*
X140915967Y-75562165D01*
X140915965Y-75562169D01*
X140816098Y-75776335D01*
X140816094Y-75776344D01*
X140754938Y-76004586D01*
X140754936Y-76004596D01*
X140734341Y-76239999D01*
X140734341Y-76240000D01*
X139700500Y-76240000D01*
X139700500Y-66569740D01*
X140740000Y-66569740D01*
X140746355Y-66650497D01*
X140796682Y-66838315D01*
X140884957Y-67011567D01*
X141007324Y-67162675D01*
X141158432Y-67285042D01*
X141315486Y-67365065D01*
X141366282Y-67413039D01*
X141383077Y-67480860D01*
X141360540Y-67546995D01*
X141346872Y-67563231D01*
X141201505Y-67708597D01*
X141065965Y-67902169D01*
X141065964Y-67902171D01*
X140966098Y-68116335D01*
X140966094Y-68116344D01*
X140904938Y-68344586D01*
X140904936Y-68344596D01*
X140884341Y-68579999D01*
X140884341Y-68580000D01*
X140904936Y-68815403D01*
X140904938Y-68815413D01*
X140966094Y-69043655D01*
X140966096Y-69043659D01*
X140966097Y-69043663D01*
X141041563Y-69205500D01*
X141065965Y-69257830D01*
X141065967Y-69257834D01*
X141174281Y-69412521D01*
X141201505Y-69451401D01*
X141368599Y-69618495D01*
X141431695Y-69662675D01*
X141562165Y-69754032D01*
X141562167Y-69754033D01*
X141562170Y-69754035D01*
X141776337Y-69853903D01*
X142004592Y-69915063D01*
X142192918Y-69931539D01*
X142239999Y-69935659D01*
X142240000Y-69935659D01*
X142240001Y-69935659D01*
X142279234Y-69932226D01*
X142475408Y-69915063D01*
X142703663Y-69853903D01*
X142917830Y-69754035D01*
X143111401Y-69618495D01*
X143278495Y-69451401D01*
X143413651Y-69258377D01*
X143468229Y-69214752D01*
X143515227Y-69205500D01*
X144030500Y-69205500D01*
X144097539Y-69225185D01*
X144143294Y-69277989D01*
X144154500Y-69329500D01*
X144154500Y-71049152D01*
X144152305Y-71072379D01*
X144150773Y-71080412D01*
X144154378Y-71137724D01*
X144154500Y-71141595D01*
X144154500Y-71159356D01*
X144156725Y-71176968D01*
X144157091Y-71180843D01*
X144160696Y-71238138D01*
X144163222Y-71245914D01*
X144168309Y-71268672D01*
X144169334Y-71276784D01*
X144169336Y-71276792D01*
X144190469Y-71330170D01*
X144191788Y-71333833D01*
X144209532Y-71388440D01*
X144213907Y-71395333D01*
X144224503Y-71416129D01*
X144227511Y-71423726D01*
X144227513Y-71423731D01*
X144261265Y-71470187D01*
X144263455Y-71473409D01*
X144294213Y-71521876D01*
X144300164Y-71527464D01*
X144315604Y-71544978D01*
X144320403Y-71551585D01*
X144364647Y-71588187D01*
X144367567Y-71590761D01*
X144409418Y-71630062D01*
X144416578Y-71633998D01*
X144435879Y-71647114D01*
X144442177Y-71652324D01*
X144442178Y-71652324D01*
X144442179Y-71652325D01*
X144494125Y-71676769D01*
X144497597Y-71678538D01*
X144547903Y-71706195D01*
X144547905Y-71706195D01*
X144547908Y-71706197D01*
X144553205Y-71707556D01*
X144555814Y-71708227D01*
X144577777Y-71716133D01*
X144585174Y-71719614D01*
X144641576Y-71730373D01*
X144645362Y-71731219D01*
X144700981Y-71745500D01*
X144709153Y-71745500D01*
X144732385Y-71747696D01*
X144733989Y-71748001D01*
X144740412Y-71749227D01*
X144797724Y-71745621D01*
X144801597Y-71745500D01*
X146044773Y-71745500D01*
X146111812Y-71765185D01*
X146146348Y-71798377D01*
X146281501Y-71991396D01*
X146281506Y-71991402D01*
X146448597Y-72158493D01*
X146448603Y-72158498D01*
X146634158Y-72288425D01*
X146677783Y-72343002D01*
X146684977Y-72412500D01*
X146653454Y-72474855D01*
X146634158Y-72491575D01*
X146448597Y-72621505D01*
X146281505Y-72788597D01*
X146145965Y-72982169D01*
X146145964Y-72982171D01*
X146046098Y-73196335D01*
X146046094Y-73196344D01*
X145984938Y-73424586D01*
X145984936Y-73424596D01*
X145964341Y-73659999D01*
X145964341Y-73660000D01*
X145984936Y-73895403D01*
X145984938Y-73895413D01*
X146046094Y-74123655D01*
X146046096Y-74123659D01*
X146046097Y-74123663D01*
X146145965Y-74337829D01*
X146145965Y-74337830D01*
X146145967Y-74337834D01*
X146281501Y-74531395D01*
X146281506Y-74531402D01*
X146448597Y-74698493D01*
X146448603Y-74698498D01*
X146634158Y-74828425D01*
X146677783Y-74883002D01*
X146684977Y-74952500D01*
X146653454Y-75014855D01*
X146634158Y-75031575D01*
X146448597Y-75161505D01*
X146281505Y-75328597D01*
X146145965Y-75522169D01*
X146145964Y-75522171D01*
X146046098Y-75736335D01*
X146046094Y-75736344D01*
X145984938Y-75964586D01*
X145984936Y-75964596D01*
X145964341Y-76199999D01*
X145964341Y-76200000D01*
X145984936Y-76435403D01*
X145984938Y-76435413D01*
X146046094Y-76663655D01*
X146046096Y-76663659D01*
X146046097Y-76663663D01*
X146064750Y-76703664D01*
X146145965Y-76877830D01*
X146145967Y-76877834D01*
X146281501Y-77071395D01*
X146281506Y-77071402D01*
X146448597Y-77238493D01*
X146448603Y-77238498D01*
X146634158Y-77368425D01*
X146677783Y-77423002D01*
X146684977Y-77492500D01*
X146653454Y-77554855D01*
X146634158Y-77571575D01*
X146448597Y-77701505D01*
X146281505Y-77868597D01*
X146145965Y-78062169D01*
X146145964Y-78062171D01*
X146046098Y-78276335D01*
X146046094Y-78276344D01*
X145984938Y-78504586D01*
X145984936Y-78504596D01*
X145964341Y-78739999D01*
X145964341Y-78740000D01*
X145984936Y-78975403D01*
X145984938Y-78975413D01*
X146046094Y-79203655D01*
X146046096Y-79203659D01*
X146046097Y-79203663D01*
X146145965Y-79417830D01*
X146145967Y-79417834D01*
X146281501Y-79611395D01*
X146281506Y-79611402D01*
X146448597Y-79778493D01*
X146448603Y-79778498D01*
X146634158Y-79908425D01*
X146677783Y-79963002D01*
X146684977Y-80032500D01*
X146653454Y-80094855D01*
X146634158Y-80111575D01*
X146448597Y-80241505D01*
X146281505Y-80408597D01*
X146145965Y-80602169D01*
X146145964Y-80602171D01*
X146046098Y-80816335D01*
X146046094Y-80816344D01*
X145984938Y-81044586D01*
X145984936Y-81044596D01*
X145964341Y-81279999D01*
X145964341Y-81280000D01*
X145984936Y-81515403D01*
X145984938Y-81515413D01*
X146046094Y-81743655D01*
X146046096Y-81743659D01*
X146046097Y-81743663D01*
X146145965Y-81957829D01*
X146145965Y-81957830D01*
X146145967Y-81957834D01*
X146281501Y-82151395D01*
X146281506Y-82151402D01*
X146448597Y-82318493D01*
X146448603Y-82318498D01*
X146634158Y-82448425D01*
X146677783Y-82503002D01*
X146684977Y-82572500D01*
X146653454Y-82634855D01*
X146634158Y-82651575D01*
X146448597Y-82781505D01*
X146281505Y-82948597D01*
X146145965Y-83142169D01*
X146145964Y-83142171D01*
X146046098Y-83356335D01*
X146046094Y-83356344D01*
X145984938Y-83584586D01*
X145984936Y-83584596D01*
X145964341Y-83819999D01*
X145964341Y-83820000D01*
X145984936Y-84055403D01*
X145984938Y-84055413D01*
X146046094Y-84283655D01*
X146046096Y-84283659D01*
X146046097Y-84283663D01*
X146145964Y-84497829D01*
X146145965Y-84497830D01*
X146145967Y-84497834D01*
X146281501Y-84691395D01*
X146281506Y-84691402D01*
X146448597Y-84858493D01*
X146448603Y-84858498D01*
X146634158Y-84988425D01*
X146677783Y-85043002D01*
X146684977Y-85112500D01*
X146653454Y-85174855D01*
X146634158Y-85191575D01*
X146448597Y-85321505D01*
X146281505Y-85488597D01*
X146145965Y-85682169D01*
X146145964Y-85682171D01*
X146046098Y-85896335D01*
X146046094Y-85896344D01*
X145984938Y-86124586D01*
X145984936Y-86124596D01*
X145964341Y-86359999D01*
X145964341Y-86360000D01*
X145984936Y-86595403D01*
X145984938Y-86595413D01*
X146046094Y-86823655D01*
X146046096Y-86823659D01*
X146046097Y-86823663D01*
X146081694Y-86900000D01*
X146145965Y-87037830D01*
X146145967Y-87037834D01*
X146236258Y-87166782D01*
X146266289Y-87209671D01*
X146281501Y-87231395D01*
X146281506Y-87231402D01*
X146448597Y-87398493D01*
X146448603Y-87398498D01*
X146634158Y-87528425D01*
X146677783Y-87583002D01*
X146684977Y-87652500D01*
X146653454Y-87714855D01*
X146634158Y-87731575D01*
X146448597Y-87861505D01*
X146281505Y-88028597D01*
X146145965Y-88222169D01*
X146145964Y-88222171D01*
X146046098Y-88436335D01*
X146046094Y-88436344D01*
X145984938Y-88664586D01*
X145984936Y-88664596D01*
X145964341Y-88899999D01*
X145964341Y-88900000D01*
X145984936Y-89135403D01*
X145984938Y-89135413D01*
X146046094Y-89363655D01*
X146046096Y-89363659D01*
X146046097Y-89363663D01*
X146095915Y-89470497D01*
X146145965Y-89577830D01*
X146145967Y-89577834D01*
X146202321Y-89658315D01*
X146281505Y-89771401D01*
X146448599Y-89938495D01*
X146461070Y-89947227D01*
X146642165Y-90074032D01*
X146642167Y-90074033D01*
X146642170Y-90074035D01*
X146856337Y-90173903D01*
X147084592Y-90235063D01*
X147272918Y-90251539D01*
X147319999Y-90255659D01*
X147320000Y-90255659D01*
X147320001Y-90255659D01*
X147359234Y-90252226D01*
X147555408Y-90235063D01*
X147783663Y-90173903D01*
X147997830Y-90074035D01*
X148191401Y-89938495D01*
X148358495Y-89771401D01*
X148494035Y-89577830D01*
X148593903Y-89363663D01*
X148655063Y-89135408D01*
X148675659Y-88900000D01*
X148655063Y-88664592D01*
X148593903Y-88436337D01*
X148494035Y-88222171D01*
X148358495Y-88028599D01*
X148358494Y-88028597D01*
X148191402Y-87861506D01*
X148191396Y-87861501D01*
X148005842Y-87731575D01*
X147962217Y-87676998D01*
X147955023Y-87607500D01*
X147986546Y-87545145D01*
X148005842Y-87528425D01*
X148042127Y-87503018D01*
X148191401Y-87398495D01*
X148358495Y-87231401D01*
X148494035Y-87037830D01*
X148593903Y-86823663D01*
X148655063Y-86595408D01*
X148675659Y-86360000D01*
X148655063Y-86124592D01*
X148594993Y-85900406D01*
X148593905Y-85896344D01*
X148593904Y-85896343D01*
X148593903Y-85896337D01*
X148494035Y-85682171D01*
X148493505Y-85681413D01*
X148358494Y-85488597D01*
X148191402Y-85321506D01*
X148191401Y-85321505D01*
X148005842Y-85191575D01*
X148005841Y-85191574D01*
X147962216Y-85136997D01*
X147955024Y-85067498D01*
X147986546Y-85005144D01*
X148005836Y-84988428D01*
X148191401Y-84858495D01*
X148358495Y-84691401D01*
X148494035Y-84497830D01*
X148593903Y-84283663D01*
X148655063Y-84055408D01*
X148675659Y-83820000D01*
X148655063Y-83584592D01*
X148593903Y-83356337D01*
X148494035Y-83142171D01*
X148493505Y-83141413D01*
X148358494Y-82948597D01*
X148191402Y-82781506D01*
X148191396Y-82781501D01*
X148005842Y-82651575D01*
X147962217Y-82596998D01*
X147955023Y-82527500D01*
X147986546Y-82465145D01*
X148005842Y-82448425D01*
X148028026Y-82432891D01*
X148191401Y-82318495D01*
X148358495Y-82151401D01*
X148494035Y-81957830D01*
X148593903Y-81743663D01*
X148655063Y-81515408D01*
X148675659Y-81280000D01*
X148655063Y-81044592D01*
X148593903Y-80816337D01*
X148494035Y-80602171D01*
X148358495Y-80408599D01*
X148358494Y-80408597D01*
X148191402Y-80241506D01*
X148191401Y-80241505D01*
X148005842Y-80111575D01*
X148005841Y-80111574D01*
X147962216Y-80056997D01*
X147955024Y-79987498D01*
X147986546Y-79925144D01*
X148005836Y-79908428D01*
X148191401Y-79778495D01*
X148358495Y-79611401D01*
X148494035Y-79417830D01*
X148593903Y-79203663D01*
X148655063Y-78975408D01*
X148675659Y-78740000D01*
X148655063Y-78504592D01*
X148593903Y-78276337D01*
X148494035Y-78062171D01*
X148358495Y-77868599D01*
X148358494Y-77868597D01*
X148191402Y-77701506D01*
X148191396Y-77701501D01*
X148005842Y-77571575D01*
X147962217Y-77516998D01*
X147955023Y-77447500D01*
X147986546Y-77385145D01*
X148005842Y-77368425D01*
X148134275Y-77278495D01*
X148191401Y-77238495D01*
X148358495Y-77071401D01*
X148494035Y-76877830D01*
X148593903Y-76663663D01*
X148655063Y-76435408D01*
X148675659Y-76200000D01*
X148655063Y-75964592D01*
X148593903Y-75736337D01*
X148494035Y-75522171D01*
X148386504Y-75368599D01*
X148358494Y-75328597D01*
X148191402Y-75161506D01*
X148191401Y-75161505D01*
X148054956Y-75065965D01*
X148005841Y-75031574D01*
X147962216Y-74976997D01*
X147955024Y-74907498D01*
X147986546Y-74845144D01*
X148005836Y-74828428D01*
X148191401Y-74698495D01*
X148358495Y-74531401D01*
X148494035Y-74337830D01*
X148593903Y-74123663D01*
X148655063Y-73895408D01*
X148675659Y-73660000D01*
X148655063Y-73424592D01*
X148593903Y-73196337D01*
X148494035Y-72982171D01*
X148404054Y-72853663D01*
X148358494Y-72788597D01*
X148191402Y-72621506D01*
X148191396Y-72621501D01*
X148005842Y-72491575D01*
X147962217Y-72436998D01*
X147955023Y-72367500D01*
X147986546Y-72305145D01*
X148005842Y-72288425D01*
X148028026Y-72272891D01*
X148191401Y-72158495D01*
X148358495Y-71991401D01*
X148494035Y-71797830D01*
X148593903Y-71583663D01*
X148655063Y-71355408D01*
X148675659Y-71120000D01*
X148673690Y-71097500D01*
X148666772Y-71018425D01*
X148655063Y-70884592D01*
X148593903Y-70656337D01*
X148494035Y-70442171D01*
X148493652Y-70441623D01*
X148358494Y-70248597D01*
X148191402Y-70081506D01*
X148191401Y-70081505D01*
X148140725Y-70046021D01*
X148097101Y-69991445D01*
X148089909Y-69921946D01*
X148121431Y-69859592D01*
X148155556Y-69833962D01*
X148251565Y-69785044D01*
X148251566Y-69785043D01*
X148402675Y-69662675D01*
X148525042Y-69511567D01*
X148613317Y-69338315D01*
X148663644Y-69150497D01*
X148670000Y-69069740D01*
X148670000Y-68830000D01*
X147933347Y-68830000D01*
X147866308Y-68810315D01*
X147820553Y-68757511D01*
X147810609Y-68688353D01*
X147814369Y-68671067D01*
X147820000Y-68651888D01*
X147820000Y-68508111D01*
X147814369Y-68488933D01*
X147814370Y-68419064D01*
X147852145Y-68360286D01*
X147915701Y-68331262D01*
X147933347Y-68330000D01*
X148670000Y-68330000D01*
X148670000Y-68090260D01*
X148663644Y-68009502D01*
X148613317Y-67821684D01*
X148525042Y-67648432D01*
X148402675Y-67497324D01*
X148251567Y-67374957D01*
X148155555Y-67326037D01*
X148104759Y-67278063D01*
X148087964Y-67210242D01*
X148110501Y-67144107D01*
X148140727Y-67113977D01*
X148191401Y-67078495D01*
X148358495Y-66911401D01*
X148494035Y-66717830D01*
X148593903Y-66503663D01*
X148655063Y-66275408D01*
X148675659Y-66040000D01*
X148655063Y-65804592D01*
X148595016Y-65580492D01*
X148593905Y-65576344D01*
X148593904Y-65576343D01*
X148593903Y-65576337D01*
X148494035Y-65362171D01*
X148358495Y-65168599D01*
X148358494Y-65168597D01*
X148191402Y-65001506D01*
X148191401Y-65001505D01*
X148005842Y-64871575D01*
X148005841Y-64871574D01*
X147962216Y-64816997D01*
X147955024Y-64747498D01*
X147986546Y-64685144D01*
X148005836Y-64668428D01*
X148191401Y-64538495D01*
X148358495Y-64371401D01*
X148494035Y-64177830D01*
X148593903Y-63963663D01*
X148655063Y-63735408D01*
X148675659Y-63500000D01*
X148655063Y-63264592D01*
X148593903Y-63036337D01*
X148494035Y-62822171D01*
X148404054Y-62693663D01*
X148358494Y-62628597D01*
X148191402Y-62461506D01*
X148191396Y-62461501D01*
X148005842Y-62331575D01*
X147962217Y-62276998D01*
X147955023Y-62207500D01*
X147986546Y-62145145D01*
X148005842Y-62128425D01*
X148028026Y-62112891D01*
X148191401Y-61998495D01*
X148358495Y-61831401D01*
X148494035Y-61637830D01*
X148593903Y-61423663D01*
X148655063Y-61195408D01*
X148675659Y-60960000D01*
X148655063Y-60724592D01*
X148593903Y-60496337D01*
X148494035Y-60282171D01*
X148358495Y-60088599D01*
X148358494Y-60088597D01*
X148191402Y-59921506D01*
X148191395Y-59921501D01*
X147997834Y-59785967D01*
X147997830Y-59785965D01*
X147997830Y-59785964D01*
X147783663Y-59686097D01*
X147783659Y-59686096D01*
X147783655Y-59686094D01*
X147555413Y-59624938D01*
X147555403Y-59624936D01*
X147320001Y-59604341D01*
X147319999Y-59604341D01*
X147084596Y-59624936D01*
X147084586Y-59624938D01*
X146856344Y-59686094D01*
X146856335Y-59686098D01*
X146642171Y-59785964D01*
X146642169Y-59785965D01*
X146448597Y-59921505D01*
X146281505Y-60088597D01*
X146145965Y-60282169D01*
X146145964Y-60282171D01*
X146046098Y-60496335D01*
X146046094Y-60496344D01*
X145984938Y-60724586D01*
X145984936Y-60724596D01*
X145964341Y-60959999D01*
X145964341Y-60960000D01*
X145984936Y-61195403D01*
X145984938Y-61195413D01*
X146046094Y-61423655D01*
X146046096Y-61423659D01*
X146046097Y-61423663D01*
X146112663Y-61566414D01*
X146145965Y-61637830D01*
X146145967Y-61637834D01*
X146281501Y-61831395D01*
X146281506Y-61831402D01*
X146448597Y-61998493D01*
X146448603Y-61998498D01*
X146634158Y-62128425D01*
X146677783Y-62183002D01*
X146684977Y-62252500D01*
X146653454Y-62314855D01*
X146634158Y-62331575D01*
X146448597Y-62461505D01*
X146281505Y-62628597D01*
X146145965Y-62822169D01*
X146145964Y-62822171D01*
X146046098Y-63036335D01*
X146046094Y-63036344D01*
X145984938Y-63264586D01*
X145984936Y-63264596D01*
X145964341Y-63499999D01*
X145964341Y-63500000D01*
X145984936Y-63735403D01*
X145984938Y-63735413D01*
X146046094Y-63963655D01*
X146046096Y-63963659D01*
X146046097Y-63963663D01*
X146095915Y-64070497D01*
X146145965Y-64177830D01*
X146145967Y-64177834D01*
X146281501Y-64371395D01*
X146281506Y-64371402D01*
X146448597Y-64538493D01*
X146448603Y-64538498D01*
X146634158Y-64668425D01*
X146677783Y-64723002D01*
X146684977Y-64792500D01*
X146653454Y-64854855D01*
X146634158Y-64871575D01*
X146448597Y-65001505D01*
X146281505Y-65168597D01*
X146145965Y-65362169D01*
X146145964Y-65362171D01*
X146046098Y-65576335D01*
X146046094Y-65576344D01*
X145984938Y-65804586D01*
X145984936Y-65804596D01*
X145964341Y-66039999D01*
X145964341Y-66040000D01*
X145984936Y-66275403D01*
X145984938Y-66275413D01*
X146046094Y-66503655D01*
X146046096Y-66503659D01*
X146046097Y-66503663D01*
X146081694Y-66580000D01*
X146145965Y-66717830D01*
X146145967Y-66717834D01*
X146281501Y-66911395D01*
X146281506Y-66911402D01*
X146448597Y-67078493D01*
X146448603Y-67078498D01*
X146499272Y-67113977D01*
X146542897Y-67168554D01*
X146550091Y-67238052D01*
X146518568Y-67300407D01*
X146484444Y-67326037D01*
X146388432Y-67374957D01*
X146237324Y-67497324D01*
X146114957Y-67648432D01*
X146026682Y-67821684D01*
X145976355Y-68009502D01*
X145970000Y-68090260D01*
X145970000Y-68330000D01*
X146706653Y-68330000D01*
X146773692Y-68349685D01*
X146819447Y-68402489D01*
X146829391Y-68471647D01*
X146825631Y-68488933D01*
X146820000Y-68508111D01*
X146820000Y-68651888D01*
X146825631Y-68671067D01*
X146825630Y-68740936D01*
X146787855Y-68799714D01*
X146724299Y-68828738D01*
X146706653Y-68830000D01*
X145970000Y-68830000D01*
X145970000Y-69069740D01*
X145976355Y-69150497D01*
X146026682Y-69338315D01*
X146114957Y-69511567D01*
X146237324Y-69662675D01*
X146388433Y-69785043D01*
X146388435Y-69785044D01*
X146484443Y-69833962D01*
X146535239Y-69881936D01*
X146552035Y-69949757D01*
X146529498Y-70015892D01*
X146499274Y-70046021D01*
X146448595Y-70081507D01*
X146281505Y-70248597D01*
X146146348Y-70441623D01*
X146091771Y-70485248D01*
X146044773Y-70494500D01*
X145529500Y-70494500D01*
X145462461Y-70474815D01*
X145416706Y-70422011D01*
X145405500Y-70370500D01*
X145405500Y-68650844D01*
X145407697Y-68627606D01*
X145409227Y-68619588D01*
X145405621Y-68562275D01*
X145405500Y-68558403D01*
X145405500Y-68540650D01*
X145403270Y-68523002D01*
X145402910Y-68519191D01*
X145399304Y-68461862D01*
X145396779Y-68454092D01*
X145391687Y-68431314D01*
X145390664Y-68423208D01*
X145369520Y-68369806D01*
X145368211Y-68366170D01*
X145350467Y-68311559D01*
X145346089Y-68304661D01*
X145335495Y-68283868D01*
X145332486Y-68276268D01*
X145298736Y-68229815D01*
X145296545Y-68226592D01*
X145265785Y-68178122D01*
X145259834Y-68172534D01*
X145244398Y-68155025D01*
X145239594Y-68148413D01*
X145239591Y-68148411D01*
X145239591Y-68148410D01*
X145195361Y-68111820D01*
X145192438Y-68109243D01*
X145150585Y-68069940D01*
X145150577Y-68069934D01*
X145143415Y-68065997D01*
X145124114Y-68052880D01*
X145117824Y-68047676D01*
X145065878Y-68023232D01*
X145062417Y-68021469D01*
X145012092Y-67993803D01*
X145012089Y-67993802D01*
X145012085Y-67993800D01*
X145004174Y-67991769D01*
X144982222Y-67983866D01*
X144974825Y-67980385D01*
X144974821Y-67980384D01*
X144918444Y-67969630D01*
X144914644Y-67968780D01*
X144859023Y-67954500D01*
X144859019Y-67954500D01*
X144850847Y-67954500D01*
X144827615Y-67952304D01*
X144819588Y-67950773D01*
X144819586Y-67950773D01*
X144810633Y-67951336D01*
X144762275Y-67954378D01*
X144758403Y-67954500D01*
X143515227Y-67954500D01*
X143448188Y-67934815D01*
X143413652Y-67901623D01*
X143278496Y-67708600D01*
X143218328Y-67648432D01*
X143133125Y-67563229D01*
X143099642Y-67501909D01*
X143104626Y-67432217D01*
X143146497Y-67376283D01*
X143164514Y-67365065D01*
X143321564Y-67285044D01*
X143321566Y-67285043D01*
X143472675Y-67162675D01*
X143595042Y-67011567D01*
X143683317Y-66838315D01*
X143733644Y-66650497D01*
X143740000Y-66569740D01*
X143740000Y-66330000D01*
X142853347Y-66330000D01*
X142786308Y-66310315D01*
X142740553Y-66257511D01*
X142730609Y-66188353D01*
X142734369Y-66171067D01*
X142740000Y-66151888D01*
X142740000Y-66008111D01*
X142734369Y-65988933D01*
X142734370Y-65919064D01*
X142772145Y-65860286D01*
X142835701Y-65831262D01*
X142853347Y-65830000D01*
X143740000Y-65830000D01*
X143740000Y-65590260D01*
X143733644Y-65509502D01*
X143683317Y-65321684D01*
X143595042Y-65148432D01*
X143472675Y-64997324D01*
X143321567Y-64874957D01*
X143148315Y-64786682D01*
X142960497Y-64736355D01*
X142879740Y-64730000D01*
X142490000Y-64730000D01*
X142490000Y-65467698D01*
X142470315Y-65534737D01*
X142417511Y-65580492D01*
X142348355Y-65590436D01*
X142275766Y-65580000D01*
X142275763Y-65580000D01*
X142204237Y-65580000D01*
X142204233Y-65580000D01*
X142131645Y-65590436D01*
X142062487Y-65580492D01*
X142009684Y-65534736D01*
X141990000Y-65467698D01*
X141990000Y-64730000D01*
X141600260Y-64730000D01*
X141519502Y-64736355D01*
X141331684Y-64786682D01*
X141158432Y-64874957D01*
X141007324Y-64997324D01*
X140884957Y-65148432D01*
X140796682Y-65321684D01*
X140746355Y-65509502D01*
X140740000Y-65590260D01*
X140740000Y-65830000D01*
X141626653Y-65830000D01*
X141693692Y-65849685D01*
X141739447Y-65902489D01*
X141749391Y-65971647D01*
X141745631Y-65988933D01*
X141740000Y-66008111D01*
X141740000Y-66151888D01*
X141745631Y-66171067D01*
X141745630Y-66240936D01*
X141707855Y-66299714D01*
X141644299Y-66328738D01*
X141626653Y-66330000D01*
X140740000Y-66330000D01*
X140740000Y-66569740D01*
X139700500Y-66569740D01*
X139700500Y-58544500D01*
X139720185Y-58477461D01*
X139772989Y-58431706D01*
X139824500Y-58420500D01*
X172595500Y-58420500D01*
X172662539Y-58440185D01*
G37*
%TD.AperFunction*%
%TD*%
M02*
