%TF.GenerationSoftware,KiCad,Pcbnew,8.0.8*%
%TF.CreationDate,2025-02-07T21:56:42-07:00*%
%TF.ProjectId,Nitrox_Board,4e697472-6f78-45f4-926f-6172642e6b69,rev?*%
%TF.SameCoordinates,Original*%
%TF.FileFunction,Legend,Bot*%
%TF.FilePolarity,Positive*%
%FSLAX46Y46*%
G04 Gerber Fmt 4.6, Leading zero omitted, Abs format (unit mm)*
G04 Created by KiCad (PCBNEW 8.0.8) date 2025-02-07 21:56:42*
%MOMM*%
%LPD*%
G01*
G04 APERTURE LIST*
%ADD10C,0.150000*%
%ADD11C,0.120000*%
G04 APERTURE END LIST*
D10*
X171116190Y-58509819D02*
X170925714Y-58509819D01*
X170925714Y-58509819D02*
X170830476Y-58557438D01*
X170830476Y-58557438D02*
X170735238Y-58652676D01*
X170735238Y-58652676D02*
X170687619Y-58843152D01*
X170687619Y-58843152D02*
X170687619Y-59176485D01*
X170687619Y-59176485D02*
X170735238Y-59366961D01*
X170735238Y-59366961D02*
X170830476Y-59462200D01*
X170830476Y-59462200D02*
X170925714Y-59509819D01*
X170925714Y-59509819D02*
X171116190Y-59509819D01*
X171116190Y-59509819D02*
X171211428Y-59462200D01*
X171211428Y-59462200D02*
X171306666Y-59366961D01*
X171306666Y-59366961D02*
X171354285Y-59176485D01*
X171354285Y-59176485D02*
X171354285Y-58843152D01*
X171354285Y-58843152D02*
X171306666Y-58652676D01*
X171306666Y-58652676D02*
X171211428Y-58557438D01*
X171211428Y-58557438D02*
X171116190Y-58509819D01*
X170306666Y-58605057D02*
X170259047Y-58557438D01*
X170259047Y-58557438D02*
X170163809Y-58509819D01*
X170163809Y-58509819D02*
X169925714Y-58509819D01*
X169925714Y-58509819D02*
X169830476Y-58557438D01*
X169830476Y-58557438D02*
X169782857Y-58605057D01*
X169782857Y-58605057D02*
X169735238Y-58700295D01*
X169735238Y-58700295D02*
X169735238Y-58795533D01*
X169735238Y-58795533D02*
X169782857Y-58938390D01*
X169782857Y-58938390D02*
X170354285Y-59509819D01*
X170354285Y-59509819D02*
X169735238Y-59509819D01*
X168592380Y-59462200D02*
X168449523Y-59509819D01*
X168449523Y-59509819D02*
X168211428Y-59509819D01*
X168211428Y-59509819D02*
X168116190Y-59462200D01*
X168116190Y-59462200D02*
X168068571Y-59414580D01*
X168068571Y-59414580D02*
X168020952Y-59319342D01*
X168020952Y-59319342D02*
X168020952Y-59224104D01*
X168020952Y-59224104D02*
X168068571Y-59128866D01*
X168068571Y-59128866D02*
X168116190Y-59081247D01*
X168116190Y-59081247D02*
X168211428Y-59033628D01*
X168211428Y-59033628D02*
X168401904Y-58986009D01*
X168401904Y-58986009D02*
X168497142Y-58938390D01*
X168497142Y-58938390D02*
X168544761Y-58890771D01*
X168544761Y-58890771D02*
X168592380Y-58795533D01*
X168592380Y-58795533D02*
X168592380Y-58700295D01*
X168592380Y-58700295D02*
X168544761Y-58605057D01*
X168544761Y-58605057D02*
X168497142Y-58557438D01*
X168497142Y-58557438D02*
X168401904Y-58509819D01*
X168401904Y-58509819D02*
X168163809Y-58509819D01*
X168163809Y-58509819D02*
X168020952Y-58557438D01*
X167211428Y-59462200D02*
X167306666Y-59509819D01*
X167306666Y-59509819D02*
X167497142Y-59509819D01*
X167497142Y-59509819D02*
X167592380Y-59462200D01*
X167592380Y-59462200D02*
X167639999Y-59366961D01*
X167639999Y-59366961D02*
X167639999Y-58986009D01*
X167639999Y-58986009D02*
X167592380Y-58890771D01*
X167592380Y-58890771D02*
X167497142Y-58843152D01*
X167497142Y-58843152D02*
X167306666Y-58843152D01*
X167306666Y-58843152D02*
X167211428Y-58890771D01*
X167211428Y-58890771D02*
X167163809Y-58986009D01*
X167163809Y-58986009D02*
X167163809Y-59081247D01*
X167163809Y-59081247D02*
X167639999Y-59176485D01*
X166735237Y-58843152D02*
X166735237Y-59509819D01*
X166735237Y-58938390D02*
X166687618Y-58890771D01*
X166687618Y-58890771D02*
X166592380Y-58843152D01*
X166592380Y-58843152D02*
X166449523Y-58843152D01*
X166449523Y-58843152D02*
X166354285Y-58890771D01*
X166354285Y-58890771D02*
X166306666Y-58986009D01*
X166306666Y-58986009D02*
X166306666Y-59509819D01*
X165878094Y-59462200D02*
X165782856Y-59509819D01*
X165782856Y-59509819D02*
X165592380Y-59509819D01*
X165592380Y-59509819D02*
X165497142Y-59462200D01*
X165497142Y-59462200D02*
X165449523Y-59366961D01*
X165449523Y-59366961D02*
X165449523Y-59319342D01*
X165449523Y-59319342D02*
X165497142Y-59224104D01*
X165497142Y-59224104D02*
X165592380Y-59176485D01*
X165592380Y-59176485D02*
X165735237Y-59176485D01*
X165735237Y-59176485D02*
X165830475Y-59128866D01*
X165830475Y-59128866D02*
X165878094Y-59033628D01*
X165878094Y-59033628D02*
X165878094Y-58986009D01*
X165878094Y-58986009D02*
X165830475Y-58890771D01*
X165830475Y-58890771D02*
X165735237Y-58843152D01*
X165735237Y-58843152D02*
X165592380Y-58843152D01*
X165592380Y-58843152D02*
X165497142Y-58890771D01*
X164878094Y-59509819D02*
X164973332Y-59462200D01*
X164973332Y-59462200D02*
X165020951Y-59414580D01*
X165020951Y-59414580D02*
X165068570Y-59319342D01*
X165068570Y-59319342D02*
X165068570Y-59033628D01*
X165068570Y-59033628D02*
X165020951Y-58938390D01*
X165020951Y-58938390D02*
X164973332Y-58890771D01*
X164973332Y-58890771D02*
X164878094Y-58843152D01*
X164878094Y-58843152D02*
X164735237Y-58843152D01*
X164735237Y-58843152D02*
X164639999Y-58890771D01*
X164639999Y-58890771D02*
X164592380Y-58938390D01*
X164592380Y-58938390D02*
X164544761Y-59033628D01*
X164544761Y-59033628D02*
X164544761Y-59319342D01*
X164544761Y-59319342D02*
X164592380Y-59414580D01*
X164592380Y-59414580D02*
X164639999Y-59462200D01*
X164639999Y-59462200D02*
X164735237Y-59509819D01*
X164735237Y-59509819D02*
X164878094Y-59509819D01*
X164116189Y-59509819D02*
X164116189Y-58843152D01*
X164116189Y-59033628D02*
X164068570Y-58938390D01*
X164068570Y-58938390D02*
X164020951Y-58890771D01*
X164020951Y-58890771D02*
X163925713Y-58843152D01*
X163925713Y-58843152D02*
X163830475Y-58843152D01*
X172029047Y-93939104D02*
X171552857Y-93939104D01*
X172124285Y-94224819D02*
X171790952Y-93224819D01*
X171790952Y-93224819D02*
X171457619Y-94224819D01*
X171124285Y-94224819D02*
X171124285Y-93224819D01*
X171124285Y-93224819D02*
X170886190Y-93224819D01*
X170886190Y-93224819D02*
X170743333Y-93272438D01*
X170743333Y-93272438D02*
X170648095Y-93367676D01*
X170648095Y-93367676D02*
X170600476Y-93462914D01*
X170600476Y-93462914D02*
X170552857Y-93653390D01*
X170552857Y-93653390D02*
X170552857Y-93796247D01*
X170552857Y-93796247D02*
X170600476Y-93986723D01*
X170600476Y-93986723D02*
X170648095Y-94081961D01*
X170648095Y-94081961D02*
X170743333Y-94177200D01*
X170743333Y-94177200D02*
X170886190Y-94224819D01*
X170886190Y-94224819D02*
X171124285Y-94224819D01*
X170171904Y-94177200D02*
X170029047Y-94224819D01*
X170029047Y-94224819D02*
X169790952Y-94224819D01*
X169790952Y-94224819D02*
X169695714Y-94177200D01*
X169695714Y-94177200D02*
X169648095Y-94129580D01*
X169648095Y-94129580D02*
X169600476Y-94034342D01*
X169600476Y-94034342D02*
X169600476Y-93939104D01*
X169600476Y-93939104D02*
X169648095Y-93843866D01*
X169648095Y-93843866D02*
X169695714Y-93796247D01*
X169695714Y-93796247D02*
X169790952Y-93748628D01*
X169790952Y-93748628D02*
X169981428Y-93701009D01*
X169981428Y-93701009D02*
X170076666Y-93653390D01*
X170076666Y-93653390D02*
X170124285Y-93605771D01*
X170124285Y-93605771D02*
X170171904Y-93510533D01*
X170171904Y-93510533D02*
X170171904Y-93415295D01*
X170171904Y-93415295D02*
X170124285Y-93320057D01*
X170124285Y-93320057D02*
X170076666Y-93272438D01*
X170076666Y-93272438D02*
X169981428Y-93224819D01*
X169981428Y-93224819D02*
X169743333Y-93224819D01*
X169743333Y-93224819D02*
X169600476Y-93272438D01*
X168648095Y-94224819D02*
X169219523Y-94224819D01*
X168933809Y-94224819D02*
X168933809Y-93224819D01*
X168933809Y-93224819D02*
X169029047Y-93367676D01*
X169029047Y-93367676D02*
X169124285Y-93462914D01*
X169124285Y-93462914D02*
X169219523Y-93510533D01*
X167695714Y-94224819D02*
X168267142Y-94224819D01*
X167981428Y-94224819D02*
X167981428Y-93224819D01*
X167981428Y-93224819D02*
X168076666Y-93367676D01*
X168076666Y-93367676D02*
X168171904Y-93462914D01*
X168171904Y-93462914D02*
X168267142Y-93510533D01*
X166743333Y-94224819D02*
X167314761Y-94224819D01*
X167029047Y-94224819D02*
X167029047Y-93224819D01*
X167029047Y-93224819D02*
X167124285Y-93367676D01*
X167124285Y-93367676D02*
X167219523Y-93462914D01*
X167219523Y-93462914D02*
X167314761Y-93510533D01*
X165838571Y-93224819D02*
X166314761Y-93224819D01*
X166314761Y-93224819D02*
X166362380Y-93701009D01*
X166362380Y-93701009D02*
X166314761Y-93653390D01*
X166314761Y-93653390D02*
X166219523Y-93605771D01*
X166219523Y-93605771D02*
X165981428Y-93605771D01*
X165981428Y-93605771D02*
X165886190Y-93653390D01*
X165886190Y-93653390D02*
X165838571Y-93701009D01*
X165838571Y-93701009D02*
X165790952Y-93796247D01*
X165790952Y-93796247D02*
X165790952Y-94034342D01*
X165790952Y-94034342D02*
X165838571Y-94129580D01*
X165838571Y-94129580D02*
X165886190Y-94177200D01*
X165886190Y-94177200D02*
X165981428Y-94224819D01*
X165981428Y-94224819D02*
X166219523Y-94224819D01*
X166219523Y-94224819D02*
X166314761Y-94177200D01*
X166314761Y-94177200D02*
X166362380Y-94129580D01*
D11*
%TO.C,O2 Sensor*%
X163810000Y-59770000D02*
X171430000Y-59770000D01*
X163810000Y-65740000D02*
X163810000Y-59770000D01*
X163820000Y-59780000D02*
X165620000Y-59780000D01*
X163820000Y-60530000D02*
X163820000Y-59780000D01*
X163820000Y-62030000D02*
X164570000Y-62030000D01*
X164570000Y-62030000D02*
X164570000Y-64980000D01*
X164570000Y-64980000D02*
X167620000Y-64980000D01*
X165620000Y-59780000D02*
X165620000Y-60530000D01*
X165620000Y-60530000D02*
X163820000Y-60530000D01*
X167120000Y-59780000D02*
X168120000Y-59780000D01*
X167120000Y-60530000D02*
X167120000Y-59780000D01*
X168120000Y-59780000D02*
X168120000Y-60530000D01*
X168120000Y-60530000D02*
X167120000Y-60530000D01*
X169620000Y-59780000D02*
X171420000Y-59780000D01*
X169620000Y-60530000D02*
X169620000Y-59780000D01*
X170470000Y-59480000D02*
X171720000Y-59480000D01*
X170670000Y-62030000D02*
X170670000Y-64980000D01*
X170670000Y-64980000D02*
X167620000Y-64980000D01*
X171420000Y-59780000D02*
X171420000Y-60530000D01*
X171420000Y-60530000D02*
X169620000Y-60530000D01*
X171420000Y-62030000D02*
X170670000Y-62030000D01*
X171430000Y-59770000D02*
X171430000Y-65740000D01*
X171430000Y-65740000D02*
X163810000Y-65740000D01*
X171720000Y-59480000D02*
X171720000Y-60730000D01*
%TO.C,ADS1115*%
X167580000Y-67250000D02*
X170240000Y-67250000D01*
X167580000Y-90170000D02*
X167580000Y-67250000D01*
X167580000Y-90170000D02*
X170240000Y-90170000D01*
X167580000Y-91440000D02*
X167580000Y-92770000D01*
X167580000Y-92770000D02*
X168910000Y-92770000D01*
X170240000Y-90170000D02*
X170240000Y-67250000D01*
%TD*%
M02*
