M48
; DRILL file {KiCad 8.0.8} date 2025-02-07T21:56:45-0700
; FORMAT={-:-/ absolute / inch / decimal}
; #@! TF.CreationDate,2025-02-07T21:56:45-07:00
; #@! TF.GenerationSoftware,Kicad,Pcbnew,8.0.8
; #@! TF.FileFunction,Plated,1,2,PTH
FMAT,2
INCH
; #@! TA.AperFunction,Plated,PTH,ComponentDrill
T1C0.0374
; #@! TA.AperFunction,Plated,PTH,ComponentDrill
T2C0.0394
%
G90
G05
T1
X5.6102Y-2.5394
X5.6102Y-2.6378
X5.6102Y-2.7362
X5.7972Y-3.8199
X5.8957Y-3.8199
X5.9941Y-3.8199
X6.2795Y-3.8199
X6.378Y-3.8199
X6.4764Y-3.8199
X6.5748Y-3.8199
T2
X5.6Y-3.1102
X5.6Y-3.2087
X5.6Y-3.4646
X5.6Y-3.563
X5.8Y-2.4
X5.8Y-2.5
X5.8Y-2.6
X5.8Y-2.7
X5.8Y-2.8
X5.8Y-2.9
X5.8Y-3.0
X5.8Y-3.1
X5.8Y-3.2
X5.8Y-3.3
X5.8Y-3.4
X5.8Y-3.5
X6.3Y-2.75
X6.3Y-2.85
X6.4Y-2.4
X6.4Y-2.5
X6.4Y-2.6
X6.4Y-2.7
X6.4Y-2.8
X6.4Y-2.9
X6.4Y-3.0
X6.4Y-3.1
X6.4Y-3.2
X6.4Y-3.3
X6.4Y-3.4
X6.4Y-3.5
X6.55Y-2.45
X6.6484Y-2.45
X6.65Y-2.7
X6.65Y-2.8
X6.65Y-2.9
X6.65Y-3.0
X6.65Y-3.1
X6.65Y-3.2
X6.65Y-3.3
X6.65Y-3.4
X6.65Y-3.5
X6.65Y-3.6
M30
