%TF.GenerationSoftware,KiCad,Pcbnew,8.0.8*%
%TF.CreationDate,2025-02-07T23:38:38-07:00*%
%TF.ProjectId,Nitrox_Board,4e697472-6f78-45f4-926f-6172642e6b69,rev?*%
%TF.SameCoordinates,Original*%
%TF.FileFunction,Copper,L1,Top*%
%TF.FilePolarity,Positive*%
%FSLAX46Y46*%
G04 Gerber Fmt 4.6, Leading zero omitted, Abs format (unit mm)*
G04 Created by KiCad (PCBNEW 8.0.8) date 2025-02-07 23:38:38*
%MOMM*%
%LPD*%
G01*
G04 APERTURE LIST*
G04 Aperture macros list*
%AMRoundRect*
0 Rectangle with rounded corners*
0 $1 Rounding radius*
0 $2 $3 $4 $5 $6 $7 $8 $9 X,Y pos of 4 corners*
0 Add a 4 corners polygon primitive as box body*
4,1,4,$2,$3,$4,$5,$6,$7,$8,$9,$2,$3,0*
0 Add four circle primitives for the rounded corners*
1,1,$1+$1,$2,$3*
1,1,$1+$1,$4,$5*
1,1,$1+$1,$6,$7*
1,1,$1+$1,$8,$9*
0 Add four rect primitives between the rounded corners*
20,1,$1+$1,$2,$3,$4,$5,0*
20,1,$1+$1,$4,$5,$6,$7,0*
20,1,$1+$1,$6,$7,$8,$9,0*
20,1,$1+$1,$8,$9,$2,$3,0*%
G04 Aperture macros list end*
%TA.AperFunction,ComponentPad*%
%ADD10RoundRect,0.250000X0.600000X0.725000X-0.600000X0.725000X-0.600000X-0.725000X0.600000X-0.725000X0*%
%TD*%
%TA.AperFunction,ComponentPad*%
%ADD11O,1.700000X1.950000*%
%TD*%
%TA.AperFunction,ComponentPad*%
%ADD12C,1.700000*%
%TD*%
%TA.AperFunction,ComponentPad*%
%ADD13O,1.700000X1.700000*%
%TD*%
%TA.AperFunction,ComponentPad*%
%ADD14RoundRect,0.425000X-0.425000X-0.425000X0.425000X-0.425000X0.425000X0.425000X-0.425000X0.425000X0*%
%TD*%
%TA.AperFunction,ComponentPad*%
%ADD15O,2.000000X1.700000*%
%TD*%
%TA.AperFunction,ComponentPad*%
%ADD16RoundRect,0.425000X0.575000X-0.425000X0.575000X0.425000X-0.575000X0.425000X-0.575000X-0.425000X0*%
%TD*%
%TA.AperFunction,ComponentPad*%
%ADD17RoundRect,0.250000X0.725000X-0.600000X0.725000X0.600000X-0.725000X0.600000X-0.725000X-0.600000X0*%
%TD*%
%TA.AperFunction,ComponentPad*%
%ADD18O,1.950000X1.700000*%
%TD*%
%TA.AperFunction,Conductor*%
%ADD19C,0.250000*%
%TD*%
%TA.AperFunction,Conductor*%
%ADD20C,0.200000*%
%TD*%
G04 APERTURE END LIST*
D10*
%TO.P,DISP1,1,Pin_1*%
%TO.N,GND*%
X167000000Y-97025000D03*
D11*
%TO.P,DISP1,2,Pin_2*%
%TO.N,VCC*%
X164500000Y-97025000D03*
%TO.P,DISP1,3,Pin_3*%
%TO.N,SCL*%
X162000000Y-97025000D03*
%TO.P,DISP1,4,Pin_4*%
%TO.N,SDA*%
X159500000Y-97025000D03*
%TD*%
D12*
%TO.P,i2c,1,Pin_1*%
%TO.N,SDA*%
X160020000Y-72390000D03*
D13*
%TO.P,i2c,2,Pin_2*%
%TO.N,SCL*%
X160020000Y-69850000D03*
%TD*%
D12*
%TO.P,Pro Mini,1,Pin_1*%
%TO.N,unconnected-(ProMini1-Pin_1-Pad1)*%
X147320000Y-60960000D03*
D13*
%TO.P,Pro Mini,2,Pin_2*%
%TO.N,unconnected-(ProMini1-Pin_2-Pad2)*%
X147320000Y-63500000D03*
%TO.P,Pro Mini,3,Pin_3*%
%TO.N,unconnected-(ProMini1-Pin_3-Pad3)*%
X147320000Y-66040000D03*
D14*
%TO.P,Pro Mini,4,Pin_4*%
%TO.N,GND*%
X147320000Y-68580000D03*
D13*
%TO.P,Pro Mini,5,Pin_5*%
%TO.N,Net-(Button1-Pin_1)*%
X147320000Y-71120000D03*
%TO.P,Pro Mini,6,Pin_6*%
%TO.N,unconnected-(ProMini1-Pin_6-Pad6)*%
X147320000Y-73660000D03*
%TO.P,Pro Mini,7,Pin_7*%
%TO.N,unconnected-(ProMini1-Pin_7-Pad7)*%
X147320000Y-76200000D03*
%TO.P,Pro Mini,8,Pin_8*%
%TO.N,unconnected-(ProMini1-Pin_8-Pad8)*%
X147320000Y-78740000D03*
%TO.P,Pro Mini,9,Pin_9*%
%TO.N,unconnected-(ProMini1-Pin_9-Pad9)*%
X147320000Y-81280000D03*
%TO.P,Pro Mini,10,Pin_10*%
%TO.N,unconnected-(ProMini1-Pin_10-Pad10)*%
X147320000Y-83820000D03*
%TO.P,Pro Mini,11,Pin_11*%
%TO.N,unconnected-(ProMini1-Pin_11-Pad11)*%
X147320000Y-86360000D03*
%TO.P,Pro Mini,12,Pin_12*%
%TO.N,unconnected-(ProMini1-Pin_12-Pad12)*%
X147320000Y-88900000D03*
%TD*%
D12*
%TO.P,SWTCH1,1,Pin_1*%
%TO.N,Net-(BAT1-Pin_1)*%
X142240000Y-81500000D03*
D15*
%TO.P,SWTCH1,2,Pin_2*%
%TO.N,Net-(ProMini2-Pin_1)*%
X142240000Y-79000000D03*
%TD*%
D10*
%TO.P,Button1,1,Pin_1*%
%TO.N,GND*%
X152250000Y-97025000D03*
D11*
%TO.P,Button1,2,Pin_2*%
%TO.N,VCC*%
X149750000Y-97025000D03*
%TO.P,Button1,3,Pin_3*%
%TO.N,Net-(Button1-Pin_1)*%
X147250000Y-97025000D03*
%TD*%
D12*
%TO.P,BAT1,1,Pin_1*%
%TO.N,Net-(BAT1-Pin_1)*%
X142240000Y-90500000D03*
D16*
%TO.P,BAT1,2,Pin_2*%
%TO.N,GND*%
X142240000Y-88000000D03*
%TD*%
D17*
%TO.P,COSENS,1,Pin_1*%
%TO.N,GND*%
X142500000Y-69500000D03*
D18*
%TO.P,COSENS,2,Pin_2*%
%TO.N,Net-(ProMini2-Pin_1)*%
X142500000Y-67000000D03*
%TO.P,COSENS,3,Pin_3*%
%TO.N,unconnected-(ADS1115-Pin_9-Pad9)*%
X142500000Y-64500000D03*
%TD*%
D12*
%TO.P,ProMini2,1,Pin_1*%
%TO.N,Net-(ProMini2-Pin_1)*%
X162560000Y-60960000D03*
D14*
%TO.P,ProMini2,2,Pin_2*%
%TO.N,GND*%
X162560000Y-63500000D03*
D13*
%TO.P,ProMini2,3,Pin_3*%
%TO.N,unconnected-(ProMini2-Pin_3-Pad3)*%
X162560000Y-66040000D03*
%TO.P,ProMini2,4,Pin_4*%
%TO.N,VCC*%
X162560000Y-68580000D03*
%TO.P,ProMini2,5,Pin_5*%
%TO.N,unconnected-(ProMini2-Pin_5-Pad5)*%
X162560000Y-71120000D03*
%TO.P,ProMini2,6,Pin_6*%
%TO.N,unconnected-(ProMini2-Pin_6-Pad6)*%
X162560000Y-73660000D03*
%TO.P,ProMini2,7,Pin_7*%
%TO.N,unconnected-(ProMini2-Pin_7-Pad7)*%
X162560000Y-76200000D03*
%TO.P,ProMini2,8,Pin_8*%
%TO.N,unconnected-(ProMini2-Pin_8-Pad8)*%
X162560000Y-78740000D03*
%TO.P,ProMini2,9,Pin_9*%
%TO.N,unconnected-(ProMini2-Pin_9-Pad9)*%
X162560000Y-81280000D03*
%TO.P,ProMini2,10,Pin_10*%
%TO.N,unconnected-(ProMini2-Pin_10-Pad10)*%
X162560000Y-83820000D03*
%TO.P,ProMini2,11,Pin_11*%
%TO.N,unconnected-(ProMini2-Pin_11-Pad11)*%
X162560000Y-86360000D03*
%TO.P,ProMini2,12,Pin_12*%
%TO.N,unconnected-(ProMini2-Pin_12-Pad12)*%
X162560000Y-88900000D03*
%TD*%
D12*
%TO.P,O2 Sensor,1,Pin_1*%
%TO.N,Net-(ADS1115-Pin_7)*%
X168870000Y-62230000D03*
%TO.P,O2 Sensor,2,Pin_2*%
%TO.N,Net-(ADS1115-Pin_8)*%
X166370000Y-62230000D03*
%TD*%
%TO.P,ADS1115,1,Pin_1*%
%TO.N,VCC*%
X168910000Y-91440000D03*
D14*
%TO.P,ADS1115,2,Pin_2*%
%TO.N,GND*%
X168910000Y-88900000D03*
D13*
%TO.P,ADS1115,3,Pin_3*%
%TO.N,SCL*%
X168910000Y-86360000D03*
%TO.P,ADS1115,4,Pin_4*%
%TO.N,SDA*%
X168910000Y-83820000D03*
%TO.P,ADS1115,5,Pin_5*%
%TO.N,unconnected-(ADS1115-Pin_5-Pad5)*%
X168910000Y-81280000D03*
%TO.P,ADS1115,6,Pin_6*%
%TO.N,unconnected-(ADS1115-Pin_6-Pad6)*%
X168910000Y-78740000D03*
%TO.P,ADS1115,7,Pin_7*%
%TO.N,Net-(ADS1115-Pin_7)*%
X168910000Y-76200000D03*
%TO.P,ADS1115,8,Pin_8*%
%TO.N,Net-(ADS1115-Pin_8)*%
X168910000Y-73660000D03*
%TO.P,ADS1115,9,Pin_9*%
%TO.N,unconnected-(ADS1115-Pin_9-Pad9)*%
X168910000Y-71120000D03*
%TO.P,ADS1115,10,Pin_10*%
%TO.N,unconnected-(ADS1115-Pin_10-Pad10)*%
X168910000Y-68580000D03*
%TD*%
D19*
%TO.N,VCC*%
X166370000Y-81280000D02*
X166370000Y-91440000D01*
D20*
X150000000Y-99000000D02*
X164000000Y-99000000D01*
D19*
X162560000Y-68580000D02*
X165100000Y-68580000D01*
D20*
X149750000Y-96525000D02*
X149750000Y-98750000D01*
D19*
X164500000Y-96500000D02*
X164500000Y-98500000D01*
X168910000Y-91440000D02*
X166370000Y-91440000D01*
X165100000Y-68580000D02*
X165100000Y-80010000D01*
X166370000Y-91440000D02*
X164655000Y-93155000D01*
X165100000Y-80010000D02*
X166370000Y-81280000D01*
D20*
X149750000Y-98750000D02*
X150000000Y-99000000D01*
X164000000Y-99000000D02*
X164500000Y-98500000D01*
D19*
X164655000Y-93155000D02*
X164500000Y-93310000D01*
X164500000Y-93310000D02*
X164500000Y-96500000D01*
%TO.N,SCL*%
X163350000Y-69850000D02*
X164500000Y-71000000D01*
X164500000Y-80500000D02*
X165500000Y-81500000D01*
X160020000Y-69850000D02*
X163350000Y-69850000D01*
X164500000Y-71000000D02*
X164500000Y-80500000D01*
X162000000Y-94920000D02*
X162000000Y-97025000D01*
X165500000Y-91420000D02*
X162000000Y-94920000D01*
X165500000Y-81500000D02*
X165500000Y-91420000D01*
%TO.N,Net-(ADS1115-Pin_7)*%
X170815000Y-74295000D02*
X170815000Y-64175000D01*
X170815000Y-64175000D02*
X168870000Y-62230000D01*
X168910000Y-76200000D02*
X170815000Y-74295000D01*
%TO.N,Net-(ADS1115-Pin_8)*%
X166370000Y-64135000D02*
X167005000Y-64770000D01*
X167005000Y-64770000D02*
X167005000Y-71755000D01*
X166370000Y-62230000D02*
X166370000Y-64135000D01*
X168910000Y-73660000D02*
X167005000Y-71755000D01*
D20*
%TO.N,Net-(BAT1-Pin_1)*%
X144000000Y-90500000D02*
X144500000Y-90000000D01*
X143000000Y-81500000D02*
X142240000Y-81500000D01*
X144500000Y-83000000D02*
X143000000Y-81500000D01*
X144500000Y-90000000D02*
X144500000Y-83000000D01*
X142240000Y-90500000D02*
X144000000Y-90500000D01*
%TO.N,Net-(Button1-Pin_1)*%
X150000000Y-71500000D02*
X149620000Y-71120000D01*
X150000000Y-93000000D02*
X150000000Y-71500000D01*
X149620000Y-71120000D02*
X147320000Y-71120000D01*
X147250000Y-95750000D02*
X150000000Y-93000000D01*
X147250000Y-96525000D02*
X147250000Y-95750000D01*
D19*
%TO.N,Net-(ProMini2-Pin_1)*%
X145000000Y-72500000D02*
X142240000Y-75260000D01*
D20*
X142500000Y-67000000D02*
X145000000Y-67000000D01*
D19*
X162560000Y-60960000D02*
X160655000Y-59055000D01*
X160655000Y-59055000D02*
X145000000Y-59055000D01*
X145000000Y-67000000D02*
X145000000Y-72500000D01*
X142240000Y-75260000D02*
X142240000Y-79000000D01*
X145000000Y-59055000D02*
X145000000Y-67000000D01*
%TD*%
%TA.AperFunction,Conductor*%
%TO.N,GND*%
G36*
X144317539Y-58940185D02*
G01*
X144363294Y-58992989D01*
X144374500Y-59044500D01*
X144374500Y-66275500D01*
X144354815Y-66342539D01*
X144302011Y-66388294D01*
X144250500Y-66399500D01*
X143910719Y-66399500D01*
X143843680Y-66379815D01*
X143800235Y-66331795D01*
X143780052Y-66292185D01*
X143780051Y-66292184D01*
X143655109Y-66120213D01*
X143504792Y-65969896D01*
X143504784Y-65969890D01*
X143340204Y-65850316D01*
X143297540Y-65794989D01*
X143291561Y-65725376D01*
X143324166Y-65663580D01*
X143340199Y-65649686D01*
X143504792Y-65530104D01*
X143655104Y-65379792D01*
X143655106Y-65379788D01*
X143655109Y-65379786D01*
X143780048Y-65207820D01*
X143780047Y-65207820D01*
X143780051Y-65207816D01*
X143876557Y-65018412D01*
X143942246Y-64816243D01*
X143975500Y-64606287D01*
X143975500Y-64393713D01*
X143942246Y-64183757D01*
X143876557Y-63981588D01*
X143780051Y-63792184D01*
X143780049Y-63792181D01*
X143780048Y-63792179D01*
X143655109Y-63620213D01*
X143504786Y-63469890D01*
X143332820Y-63344951D01*
X143143414Y-63248444D01*
X143143413Y-63248443D01*
X143143412Y-63248443D01*
X142941243Y-63182754D01*
X142941241Y-63182753D01*
X142941240Y-63182753D01*
X142779957Y-63157208D01*
X142731287Y-63149500D01*
X142268713Y-63149500D01*
X142220042Y-63157208D01*
X142058760Y-63182753D01*
X141856585Y-63248444D01*
X141667179Y-63344951D01*
X141495213Y-63469890D01*
X141344890Y-63620213D01*
X141219951Y-63792179D01*
X141123444Y-63981585D01*
X141123443Y-63981587D01*
X141123443Y-63981588D01*
X141120793Y-63989743D01*
X141057753Y-64183760D01*
X141024500Y-64393713D01*
X141024500Y-64606286D01*
X141049811Y-64766097D01*
X141057754Y-64816243D01*
X141117950Y-65001507D01*
X141123444Y-65018414D01*
X141219951Y-65207820D01*
X141344890Y-65379786D01*
X141495209Y-65530105D01*
X141495214Y-65530109D01*
X141659793Y-65649682D01*
X141702459Y-65705011D01*
X141708438Y-65774625D01*
X141675833Y-65836420D01*
X141659793Y-65850318D01*
X141495214Y-65969890D01*
X141495209Y-65969894D01*
X141344890Y-66120213D01*
X141219951Y-66292179D01*
X141123444Y-66481585D01*
X141057753Y-66683760D01*
X141024500Y-66893713D01*
X141024500Y-67106286D01*
X141056146Y-67306094D01*
X141057754Y-67316243D01*
X141088729Y-67411575D01*
X141123444Y-67518414D01*
X141219951Y-67707820D01*
X141344890Y-67879786D01*
X141484068Y-68018964D01*
X141517553Y-68080287D01*
X141512569Y-68149979D01*
X141470697Y-68205912D01*
X141461484Y-68212183D01*
X141306659Y-68307680D01*
X141306655Y-68307683D01*
X141182684Y-68431654D01*
X141090643Y-68580875D01*
X141090641Y-68580880D01*
X141035494Y-68747302D01*
X141035493Y-68747309D01*
X141025000Y-68850013D01*
X141025000Y-69250000D01*
X142095854Y-69250000D01*
X142057370Y-69316657D01*
X142025000Y-69437465D01*
X142025000Y-69562535D01*
X142057370Y-69683343D01*
X142095854Y-69750000D01*
X141025001Y-69750000D01*
X141025001Y-70149986D01*
X141035494Y-70252697D01*
X141090641Y-70419119D01*
X141090643Y-70419124D01*
X141182684Y-70568345D01*
X141306654Y-70692315D01*
X141455875Y-70784356D01*
X141455880Y-70784358D01*
X141622302Y-70839505D01*
X141622309Y-70839506D01*
X141725019Y-70849999D01*
X142249999Y-70849999D01*
X142250000Y-70849998D01*
X142250000Y-69904145D01*
X142316657Y-69942630D01*
X142437465Y-69975000D01*
X142562535Y-69975000D01*
X142683343Y-69942630D01*
X142750000Y-69904145D01*
X142750000Y-70849999D01*
X143274972Y-70849999D01*
X143274986Y-70849998D01*
X143377697Y-70839505D01*
X143544119Y-70784358D01*
X143544124Y-70784356D01*
X143693345Y-70692315D01*
X143817315Y-70568345D01*
X143909356Y-70419124D01*
X143909358Y-70419119D01*
X143964505Y-70252697D01*
X143964506Y-70252690D01*
X143974999Y-70149986D01*
X143975000Y-70149973D01*
X143975000Y-69750000D01*
X142904146Y-69750000D01*
X142942630Y-69683343D01*
X142975000Y-69562535D01*
X142975000Y-69437465D01*
X142942630Y-69316657D01*
X142904146Y-69250000D01*
X143974999Y-69250000D01*
X143974999Y-68850028D01*
X143974998Y-68850013D01*
X143964505Y-68747302D01*
X143909358Y-68580880D01*
X143909356Y-68580875D01*
X143817315Y-68431654D01*
X143693345Y-68307684D01*
X143538515Y-68212184D01*
X143491791Y-68160236D01*
X143480568Y-68091273D01*
X143508412Y-68027191D01*
X143515909Y-68018986D01*
X143655104Y-67879792D01*
X143780051Y-67707816D01*
X143780349Y-67707230D01*
X143800235Y-67668205D01*
X143848209Y-67617409D01*
X143910719Y-67600500D01*
X144250500Y-67600500D01*
X144317539Y-67620185D01*
X144363294Y-67672989D01*
X144374500Y-67724500D01*
X144374500Y-72189547D01*
X144354815Y-72256586D01*
X144338181Y-72277228D01*
X141841269Y-74774140D01*
X141841267Y-74774142D01*
X141797705Y-74817703D01*
X141754144Y-74861264D01*
X141730624Y-74896465D01*
X141730623Y-74896465D01*
X141685690Y-74963709D01*
X141685685Y-74963718D01*
X141659903Y-75025965D01*
X141652347Y-75044207D01*
X141646823Y-75057543D01*
X141638537Y-75077545D01*
X141638535Y-75077553D01*
X141614500Y-75198389D01*
X141614500Y-77650591D01*
X141594815Y-77717630D01*
X141546795Y-77761075D01*
X141481914Y-77794133D01*
X141382179Y-77844951D01*
X141210213Y-77969890D01*
X141059890Y-78120213D01*
X140934951Y-78292179D01*
X140838444Y-78481585D01*
X140772753Y-78683760D01*
X140763846Y-78739999D01*
X140739500Y-78893713D01*
X140739500Y-79106287D01*
X140772754Y-79316243D01*
X140831081Y-79495755D01*
X140838444Y-79518414D01*
X140934951Y-79707820D01*
X141059890Y-79879786D01*
X141210213Y-80030109D01*
X141382179Y-80155048D01*
X141382181Y-80155049D01*
X141382184Y-80155051D01*
X141443765Y-80186428D01*
X141443767Y-80186429D01*
X141494563Y-80234404D01*
X141511358Y-80302225D01*
X141488821Y-80368360D01*
X141458595Y-80398489D01*
X141368597Y-80461505D01*
X141201505Y-80628597D01*
X141065965Y-80822169D01*
X141065964Y-80822171D01*
X140966098Y-81036335D01*
X140966094Y-81036344D01*
X140904938Y-81264586D01*
X140904936Y-81264596D01*
X140884341Y-81499999D01*
X140884341Y-81500000D01*
X140904936Y-81735403D01*
X140904938Y-81735413D01*
X140966094Y-81963655D01*
X140966096Y-81963659D01*
X140966097Y-81963663D01*
X141053638Y-82151395D01*
X141065965Y-82177830D01*
X141065967Y-82177834D01*
X141164458Y-82318493D01*
X141201505Y-82371401D01*
X141368599Y-82538495D01*
X141408036Y-82566109D01*
X141562165Y-82674032D01*
X141562167Y-82674033D01*
X141562170Y-82674035D01*
X141776337Y-82773903D01*
X142004592Y-82835063D01*
X142192918Y-82851539D01*
X142239999Y-82855659D01*
X142240000Y-82855659D01*
X142240001Y-82855659D01*
X142279234Y-82852226D01*
X142475408Y-82835063D01*
X142703663Y-82773903D01*
X142917830Y-82674035D01*
X143071965Y-82566108D01*
X143138169Y-82543782D01*
X143205937Y-82560792D01*
X143230768Y-82580003D01*
X143863181Y-83212416D01*
X143896666Y-83273739D01*
X143899500Y-83300097D01*
X143899500Y-87149467D01*
X143879815Y-87216506D01*
X143827011Y-87262261D01*
X143757853Y-87272205D01*
X143694297Y-87243180D01*
X143665015Y-87205762D01*
X143595042Y-87068432D01*
X143472675Y-86917324D01*
X143321567Y-86794957D01*
X143148315Y-86706682D01*
X142960497Y-86656355D01*
X142879743Y-86650000D01*
X142490000Y-86650000D01*
X142490000Y-87566988D01*
X142432993Y-87534075D01*
X142305826Y-87500000D01*
X142174174Y-87500000D01*
X142047007Y-87534075D01*
X141990000Y-87566988D01*
X141990000Y-86650000D01*
X141600256Y-86650000D01*
X141519502Y-86656355D01*
X141331684Y-86706682D01*
X141158432Y-86794957D01*
X141007324Y-86917324D01*
X140884957Y-87068432D01*
X140796682Y-87241684D01*
X140746355Y-87429502D01*
X140740000Y-87510256D01*
X140740000Y-87750000D01*
X141806988Y-87750000D01*
X141774075Y-87807007D01*
X141740000Y-87934174D01*
X141740000Y-88065826D01*
X141774075Y-88192993D01*
X141806988Y-88250000D01*
X140740000Y-88250000D01*
X140740000Y-88489743D01*
X140746355Y-88570497D01*
X140796682Y-88758315D01*
X140884957Y-88931567D01*
X141007324Y-89082675D01*
X141158432Y-89205042D01*
X141315486Y-89285065D01*
X141366282Y-89333039D01*
X141383077Y-89400860D01*
X141360540Y-89466995D01*
X141346872Y-89483231D01*
X141201505Y-89628597D01*
X141065965Y-89822169D01*
X141065964Y-89822171D01*
X140966098Y-90036335D01*
X140966094Y-90036344D01*
X140904938Y-90264586D01*
X140904936Y-90264596D01*
X140884341Y-90499999D01*
X140884341Y-90500000D01*
X140904936Y-90735403D01*
X140904938Y-90735413D01*
X140966094Y-90963655D01*
X140966096Y-90963659D01*
X140966097Y-90963663D01*
X141029906Y-91100501D01*
X141065965Y-91177830D01*
X141065967Y-91177834D01*
X141174281Y-91332521D01*
X141201505Y-91371401D01*
X141368599Y-91538495D01*
X141465384Y-91606265D01*
X141562165Y-91674032D01*
X141562167Y-91674033D01*
X141562170Y-91674035D01*
X141776337Y-91773903D01*
X142004592Y-91835063D01*
X142192918Y-91851539D01*
X142239999Y-91855659D01*
X142240000Y-91855659D01*
X142240001Y-91855659D01*
X142279234Y-91852226D01*
X142475408Y-91835063D01*
X142703663Y-91773903D01*
X142917830Y-91674035D01*
X143111401Y-91538495D01*
X143278495Y-91371401D01*
X143414035Y-91177830D01*
X143416707Y-91172097D01*
X143462878Y-91119658D01*
X143529091Y-91100500D01*
X143913331Y-91100500D01*
X143913347Y-91100501D01*
X143920943Y-91100501D01*
X144079054Y-91100501D01*
X144079057Y-91100501D01*
X144231785Y-91059577D01*
X144298139Y-91021267D01*
X144368716Y-90980520D01*
X144480520Y-90868716D01*
X144480521Y-90868714D01*
X144980520Y-90368716D01*
X145059577Y-90231784D01*
X145100501Y-90079057D01*
X145100501Y-89920942D01*
X145100501Y-89913347D01*
X145100500Y-89913329D01*
X145100500Y-82920945D01*
X145100500Y-82920943D01*
X145059577Y-82768216D01*
X145005202Y-82674035D01*
X144980524Y-82631290D01*
X144980521Y-82631286D01*
X144980520Y-82631284D01*
X144868716Y-82519480D01*
X144868715Y-82519479D01*
X144864385Y-82515149D01*
X144864374Y-82515139D01*
X143584368Y-81235133D01*
X143552274Y-81179544D01*
X143513906Y-81036346D01*
X143513904Y-81036342D01*
X143513903Y-81036337D01*
X143414035Y-80822171D01*
X143395911Y-80796286D01*
X143278494Y-80628597D01*
X143111402Y-80461506D01*
X143111393Y-80461499D01*
X143021404Y-80398487D01*
X142977779Y-80343910D01*
X142970587Y-80274412D01*
X143002109Y-80212057D01*
X143036231Y-80186429D01*
X143097816Y-80155051D01*
X143180669Y-80094855D01*
X143269786Y-80030109D01*
X143269788Y-80030106D01*
X143269792Y-80030104D01*
X143420104Y-79879792D01*
X143420106Y-79879788D01*
X143420109Y-79879786D01*
X143545048Y-79707820D01*
X143545047Y-79707820D01*
X143545051Y-79707816D01*
X143641557Y-79518412D01*
X143707246Y-79316243D01*
X143740500Y-79106287D01*
X143740500Y-78893713D01*
X143707246Y-78683757D01*
X143641557Y-78481588D01*
X143545051Y-78292184D01*
X143545049Y-78292181D01*
X143545048Y-78292179D01*
X143420109Y-78120213D01*
X143269786Y-77969890D01*
X143097820Y-77844951D01*
X143081916Y-77836847D01*
X142933204Y-77761075D01*
X142882409Y-77713102D01*
X142865500Y-77650591D01*
X142865500Y-75570452D01*
X142885185Y-75503413D01*
X142901819Y-75482771D01*
X145485854Y-72898737D01*
X145485857Y-72898734D01*
X145496230Y-72883210D01*
X145554311Y-72796286D01*
X145601463Y-72682452D01*
X145625500Y-72561607D01*
X145625500Y-72438394D01*
X145625500Y-66938394D01*
X145625500Y-59804500D01*
X145645185Y-59737461D01*
X145697989Y-59691706D01*
X145749500Y-59680500D01*
X146399512Y-59680500D01*
X146466551Y-59700185D01*
X146512306Y-59752989D01*
X146522250Y-59822147D01*
X146493225Y-59885703D01*
X146470635Y-59906075D01*
X146448596Y-59921506D01*
X146281505Y-60088597D01*
X146145965Y-60282169D01*
X146145964Y-60282171D01*
X146046098Y-60496335D01*
X146046094Y-60496344D01*
X145984938Y-60724586D01*
X145984936Y-60724596D01*
X145964341Y-60959999D01*
X145964341Y-60960000D01*
X145984936Y-61195403D01*
X145984938Y-61195413D01*
X146046094Y-61423655D01*
X146046096Y-61423659D01*
X146046097Y-61423663D01*
X146112663Y-61566414D01*
X146145965Y-61637830D01*
X146145967Y-61637834D01*
X146281501Y-61831395D01*
X146281506Y-61831402D01*
X146448597Y-61998493D01*
X146448603Y-61998498D01*
X146634158Y-62128425D01*
X146677783Y-62183002D01*
X146684977Y-62252500D01*
X146653454Y-62314855D01*
X146634158Y-62331575D01*
X146448597Y-62461505D01*
X146281505Y-62628597D01*
X146145965Y-62822169D01*
X146145964Y-62822171D01*
X146046098Y-63036335D01*
X146046094Y-63036344D01*
X145984938Y-63264586D01*
X145984936Y-63264596D01*
X145964341Y-63499999D01*
X145964341Y-63500000D01*
X145984936Y-63735403D01*
X145984938Y-63735413D01*
X146046094Y-63963655D01*
X146046096Y-63963659D01*
X146046097Y-63963663D01*
X146115918Y-64113394D01*
X146145965Y-64177830D01*
X146145967Y-64177834D01*
X146220406Y-64284143D01*
X146281408Y-64371263D01*
X146281501Y-64371395D01*
X146281506Y-64371402D01*
X146448597Y-64538493D01*
X146448603Y-64538498D01*
X146634158Y-64668425D01*
X146677783Y-64723002D01*
X146684977Y-64792500D01*
X146653454Y-64854855D01*
X146634158Y-64871575D01*
X146448597Y-65001505D01*
X146281505Y-65168597D01*
X146145965Y-65362169D01*
X146145964Y-65362171D01*
X146046098Y-65576335D01*
X146046094Y-65576344D01*
X145984938Y-65804586D01*
X145984936Y-65804596D01*
X145964341Y-66039999D01*
X145964341Y-66040000D01*
X145984936Y-66275403D01*
X145984938Y-66275413D01*
X146046094Y-66503655D01*
X146046096Y-66503659D01*
X146046097Y-66503663D01*
X146130078Y-66683760D01*
X146145965Y-66717830D01*
X146145967Y-66717834D01*
X146281501Y-66911395D01*
X146281506Y-66911402D01*
X146448597Y-67078493D01*
X146448603Y-67078498D01*
X146499272Y-67113977D01*
X146542897Y-67168554D01*
X146550091Y-67238052D01*
X146518568Y-67300407D01*
X146484444Y-67326037D01*
X146388432Y-67374957D01*
X146237324Y-67497324D01*
X146114957Y-67648432D01*
X146026682Y-67821684D01*
X145976355Y-68009502D01*
X145970000Y-68090256D01*
X145970000Y-68330000D01*
X146886988Y-68330000D01*
X146854075Y-68387007D01*
X146820000Y-68514174D01*
X146820000Y-68645826D01*
X146854075Y-68772993D01*
X146886988Y-68830000D01*
X145970000Y-68830000D01*
X145970000Y-69069743D01*
X145976355Y-69150497D01*
X146026682Y-69338315D01*
X146114957Y-69511567D01*
X146237324Y-69662675D01*
X146388433Y-69785043D01*
X146388435Y-69785044D01*
X146484443Y-69833962D01*
X146535239Y-69881936D01*
X146552035Y-69949757D01*
X146529498Y-70015892D01*
X146499274Y-70046021D01*
X146448595Y-70081507D01*
X146281505Y-70248597D01*
X146145965Y-70442169D01*
X146145964Y-70442171D01*
X146046098Y-70656335D01*
X146046094Y-70656344D01*
X145984938Y-70884586D01*
X145984936Y-70884596D01*
X145964341Y-71119999D01*
X145964341Y-71120000D01*
X145984936Y-71355403D01*
X145984938Y-71355413D01*
X146046094Y-71583655D01*
X146046096Y-71583659D01*
X146046097Y-71583663D01*
X146118839Y-71739658D01*
X146145965Y-71797830D01*
X146145967Y-71797834D01*
X146243724Y-71937444D01*
X146281501Y-71991396D01*
X146281506Y-71991402D01*
X146448597Y-72158493D01*
X146448603Y-72158498D01*
X146634158Y-72288425D01*
X146677783Y-72343002D01*
X146684977Y-72412500D01*
X146653454Y-72474855D01*
X146634158Y-72491575D01*
X146448597Y-72621505D01*
X146281505Y-72788597D01*
X146145965Y-72982169D01*
X146145964Y-72982171D01*
X146046098Y-73196335D01*
X146046094Y-73196344D01*
X145984938Y-73424586D01*
X145984936Y-73424596D01*
X145964341Y-73659999D01*
X145964341Y-73660000D01*
X145984936Y-73895403D01*
X145984938Y-73895413D01*
X146046094Y-74123655D01*
X146046096Y-74123659D01*
X146046097Y-74123663D01*
X146097265Y-74233393D01*
X146145965Y-74337830D01*
X146145967Y-74337834D01*
X146217564Y-74440084D01*
X146281501Y-74531396D01*
X146281506Y-74531402D01*
X146448597Y-74698493D01*
X146448603Y-74698498D01*
X146634158Y-74828425D01*
X146677783Y-74883002D01*
X146684977Y-74952500D01*
X146653454Y-75014855D01*
X146634158Y-75031575D01*
X146448597Y-75161505D01*
X146281505Y-75328597D01*
X146145965Y-75522169D01*
X146145964Y-75522171D01*
X146046098Y-75736335D01*
X146046094Y-75736344D01*
X145984938Y-75964586D01*
X145984936Y-75964596D01*
X145964341Y-76199999D01*
X145964341Y-76200000D01*
X145984936Y-76435403D01*
X145984938Y-76435413D01*
X146046094Y-76663655D01*
X146046096Y-76663659D01*
X146046097Y-76663663D01*
X146145965Y-76877830D01*
X146145967Y-76877834D01*
X146217564Y-76980084D01*
X146281501Y-77071396D01*
X146281506Y-77071402D01*
X146448597Y-77238493D01*
X146448603Y-77238498D01*
X146634158Y-77368425D01*
X146677783Y-77423002D01*
X146684977Y-77492500D01*
X146653454Y-77554855D01*
X146634158Y-77571575D01*
X146448597Y-77701505D01*
X146281505Y-77868597D01*
X146145965Y-78062169D01*
X146145964Y-78062171D01*
X146046098Y-78276335D01*
X146046094Y-78276344D01*
X145984938Y-78504586D01*
X145984936Y-78504596D01*
X145964341Y-78739999D01*
X145964341Y-78740000D01*
X145984936Y-78975403D01*
X145984938Y-78975413D01*
X146046094Y-79203655D01*
X146046096Y-79203659D01*
X146046097Y-79203663D01*
X146098592Y-79316239D01*
X146145965Y-79417830D01*
X146145967Y-79417834D01*
X146217564Y-79520084D01*
X146281501Y-79611396D01*
X146281506Y-79611402D01*
X146448597Y-79778493D01*
X146448603Y-79778498D01*
X146634158Y-79908425D01*
X146677783Y-79963002D01*
X146684977Y-80032500D01*
X146653454Y-80094855D01*
X146634158Y-80111575D01*
X146448597Y-80241505D01*
X146281505Y-80408597D01*
X146145965Y-80602169D01*
X146145964Y-80602171D01*
X146046098Y-80816335D01*
X146046094Y-80816344D01*
X145984938Y-81044586D01*
X145984936Y-81044596D01*
X145964341Y-81279999D01*
X145964341Y-81280000D01*
X145984936Y-81515403D01*
X145984938Y-81515413D01*
X146046094Y-81743655D01*
X146046096Y-81743659D01*
X146046097Y-81743663D01*
X146145965Y-81957830D01*
X146145967Y-81957834D01*
X146281501Y-82151395D01*
X146281506Y-82151402D01*
X146448597Y-82318493D01*
X146448603Y-82318498D01*
X146634158Y-82448425D01*
X146677783Y-82503002D01*
X146684977Y-82572500D01*
X146653454Y-82634855D01*
X146634158Y-82651575D01*
X146448597Y-82781505D01*
X146281505Y-82948597D01*
X146145965Y-83142169D01*
X146145964Y-83142171D01*
X146046098Y-83356335D01*
X146046094Y-83356344D01*
X145984938Y-83584586D01*
X145984936Y-83584596D01*
X145964341Y-83819999D01*
X145964341Y-83820000D01*
X145984936Y-84055403D01*
X145984938Y-84055413D01*
X146046094Y-84283655D01*
X146046096Y-84283659D01*
X146046097Y-84283663D01*
X146145965Y-84497830D01*
X146145967Y-84497834D01*
X146281501Y-84691395D01*
X146281506Y-84691402D01*
X146448597Y-84858493D01*
X146448603Y-84858498D01*
X146634158Y-84988425D01*
X146677783Y-85043002D01*
X146684977Y-85112500D01*
X146653454Y-85174855D01*
X146634158Y-85191575D01*
X146448597Y-85321505D01*
X146281505Y-85488597D01*
X146145965Y-85682169D01*
X146145964Y-85682171D01*
X146046098Y-85896335D01*
X146046094Y-85896344D01*
X145984938Y-86124586D01*
X145984936Y-86124596D01*
X145964341Y-86359999D01*
X145964341Y-86360000D01*
X145984936Y-86595403D01*
X145984938Y-86595413D01*
X146046094Y-86823655D01*
X146046096Y-86823659D01*
X146046097Y-86823663D01*
X146089772Y-86917324D01*
X146145965Y-87037830D01*
X146145967Y-87037834D01*
X146224134Y-87149467D01*
X146271075Y-87216506D01*
X146281501Y-87231395D01*
X146281506Y-87231402D01*
X146448597Y-87398493D01*
X146448603Y-87398498D01*
X146634158Y-87528425D01*
X146677783Y-87583002D01*
X146684977Y-87652500D01*
X146653454Y-87714855D01*
X146634158Y-87731575D01*
X146448597Y-87861505D01*
X146281505Y-88028597D01*
X146145965Y-88222169D01*
X146145964Y-88222171D01*
X146046098Y-88436335D01*
X146046094Y-88436344D01*
X145984938Y-88664586D01*
X145984936Y-88664596D01*
X145964341Y-88899999D01*
X145964341Y-88900000D01*
X145984936Y-89135403D01*
X145984938Y-89135413D01*
X146046094Y-89363655D01*
X146046096Y-89363659D01*
X146046097Y-89363663D01*
X146073258Y-89421909D01*
X146145965Y-89577830D01*
X146145967Y-89577834D01*
X146202321Y-89658315D01*
X146281505Y-89771401D01*
X146448599Y-89938495D01*
X146511695Y-89982675D01*
X146642165Y-90074032D01*
X146642167Y-90074033D01*
X146642170Y-90074035D01*
X146856337Y-90173903D01*
X147084592Y-90235063D01*
X147272918Y-90251539D01*
X147319999Y-90255659D01*
X147320000Y-90255659D01*
X147320001Y-90255659D01*
X147359234Y-90252226D01*
X147555408Y-90235063D01*
X147783663Y-90173903D01*
X147997830Y-90074035D01*
X148191401Y-89938495D01*
X148358495Y-89771401D01*
X148494035Y-89577830D01*
X148593903Y-89363663D01*
X148655063Y-89135408D01*
X148675659Y-88900000D01*
X148655063Y-88664592D01*
X148593903Y-88436337D01*
X148494035Y-88222171D01*
X148473605Y-88192993D01*
X148358494Y-88028597D01*
X148191402Y-87861506D01*
X148191396Y-87861501D01*
X148005842Y-87731575D01*
X147962217Y-87676998D01*
X147955023Y-87607500D01*
X147986546Y-87545145D01*
X148005842Y-87528425D01*
X148046437Y-87500000D01*
X148191401Y-87398495D01*
X148358495Y-87231401D01*
X148494035Y-87037830D01*
X148593903Y-86823663D01*
X148655063Y-86595408D01*
X148675659Y-86360000D01*
X148655063Y-86124592D01*
X148593903Y-85896337D01*
X148494035Y-85682171D01*
X148358495Y-85488599D01*
X148358494Y-85488597D01*
X148191402Y-85321506D01*
X148191396Y-85321501D01*
X148005842Y-85191575D01*
X147962217Y-85136998D01*
X147955023Y-85067500D01*
X147986546Y-85005145D01*
X148005842Y-84988425D01*
X148028026Y-84972891D01*
X148191401Y-84858495D01*
X148358495Y-84691401D01*
X148494035Y-84497830D01*
X148593903Y-84283663D01*
X148655063Y-84055408D01*
X148675659Y-83820000D01*
X148655063Y-83584592D01*
X148593903Y-83356337D01*
X148494035Y-83142171D01*
X148358495Y-82948599D01*
X148358494Y-82948597D01*
X148191402Y-82781506D01*
X148191396Y-82781501D01*
X148005842Y-82651575D01*
X147962217Y-82596998D01*
X147955023Y-82527500D01*
X147986546Y-82465145D01*
X148005842Y-82448425D01*
X148115852Y-82371395D01*
X148191401Y-82318495D01*
X148358495Y-82151401D01*
X148494035Y-81957830D01*
X148593903Y-81743663D01*
X148655063Y-81515408D01*
X148675659Y-81280000D01*
X148655063Y-81044592D01*
X148593903Y-80816337D01*
X148494035Y-80602171D01*
X148445066Y-80532235D01*
X148358494Y-80408597D01*
X148191402Y-80241506D01*
X148191396Y-80241501D01*
X148005842Y-80111575D01*
X147962217Y-80056998D01*
X147955023Y-79987500D01*
X147986546Y-79925145D01*
X148005842Y-79908425D01*
X148046743Y-79879786D01*
X148191401Y-79778495D01*
X148358495Y-79611401D01*
X148494035Y-79417830D01*
X148593903Y-79203663D01*
X148655063Y-78975408D01*
X148675659Y-78740000D01*
X148655063Y-78504592D01*
X148593903Y-78276337D01*
X148494035Y-78062171D01*
X148445066Y-77992235D01*
X148358494Y-77868597D01*
X148191402Y-77701506D01*
X148191396Y-77701501D01*
X148005842Y-77571575D01*
X147962217Y-77516998D01*
X147955023Y-77447500D01*
X147986546Y-77385145D01*
X148005842Y-77368425D01*
X148028026Y-77352891D01*
X148191401Y-77238495D01*
X148358495Y-77071401D01*
X148494035Y-76877830D01*
X148593903Y-76663663D01*
X148655063Y-76435408D01*
X148675659Y-76200000D01*
X148655063Y-75964592D01*
X148593903Y-75736337D01*
X148494035Y-75522171D01*
X148445066Y-75452235D01*
X148358494Y-75328597D01*
X148191402Y-75161506D01*
X148191396Y-75161501D01*
X148005842Y-75031575D01*
X147962217Y-74976998D01*
X147955023Y-74907500D01*
X147986546Y-74845145D01*
X148005842Y-74828425D01*
X148063685Y-74787923D01*
X148191401Y-74698495D01*
X148358495Y-74531401D01*
X148494035Y-74337830D01*
X148593903Y-74123663D01*
X148655063Y-73895408D01*
X148675659Y-73660000D01*
X148655063Y-73424592D01*
X148593903Y-73196337D01*
X148494035Y-72982171D01*
X148445066Y-72912235D01*
X148358494Y-72788597D01*
X148191402Y-72621506D01*
X148191396Y-72621501D01*
X148005842Y-72491575D01*
X147962217Y-72436998D01*
X147955023Y-72367500D01*
X147986546Y-72305145D01*
X148005842Y-72288425D01*
X148073702Y-72240909D01*
X148191401Y-72158495D01*
X148358495Y-71991401D01*
X148494035Y-71797830D01*
X148496707Y-71792097D01*
X148542878Y-71739658D01*
X148609091Y-71720500D01*
X149275500Y-71720500D01*
X149342539Y-71740185D01*
X149388294Y-71792989D01*
X149399500Y-71844500D01*
X149399500Y-92699902D01*
X149379815Y-92766941D01*
X149363181Y-92787583D01*
X146769481Y-95381282D01*
X146769479Y-95381285D01*
X146719361Y-95468094D01*
X146719359Y-95468096D01*
X146690425Y-95518209D01*
X146690423Y-95518213D01*
X146690423Y-95518215D01*
X146664317Y-95615643D01*
X146657791Y-95639998D01*
X146621425Y-95699658D01*
X146594313Y-95718387D01*
X146542180Y-95744950D01*
X146370213Y-95869890D01*
X146219890Y-96020213D01*
X146094951Y-96192179D01*
X145998444Y-96381585D01*
X145932753Y-96583760D01*
X145923069Y-96644905D01*
X145899500Y-96793713D01*
X145899500Y-97256287D01*
X145932754Y-97466243D01*
X145943722Y-97500000D01*
X145998444Y-97668414D01*
X146094951Y-97857820D01*
X146219890Y-98029786D01*
X146370213Y-98180109D01*
X146542179Y-98305048D01*
X146542181Y-98305049D01*
X146542184Y-98305051D01*
X146731588Y-98401557D01*
X146933757Y-98467246D01*
X147143713Y-98500500D01*
X147143714Y-98500500D01*
X147356286Y-98500500D01*
X147356287Y-98500500D01*
X147566243Y-98467246D01*
X147768412Y-98401557D01*
X147957816Y-98305051D01*
X148047733Y-98239723D01*
X148129786Y-98180109D01*
X148129788Y-98180106D01*
X148129792Y-98180104D01*
X148280104Y-98029792D01*
X148399683Y-97865204D01*
X148455011Y-97822540D01*
X148524624Y-97816561D01*
X148586420Y-97849166D01*
X148600313Y-97865199D01*
X148627552Y-97902690D01*
X148719896Y-98029792D01*
X148870213Y-98180109D01*
X149042184Y-98305051D01*
X149042184Y-98305052D01*
X149081793Y-98325233D01*
X149132590Y-98373206D01*
X149149500Y-98435718D01*
X149149500Y-98663330D01*
X149149499Y-98663348D01*
X149149499Y-98829054D01*
X149149498Y-98829054D01*
X149190424Y-98981788D01*
X149192772Y-98985853D01*
X149192780Y-98985867D01*
X149269477Y-99118712D01*
X149269481Y-99118717D01*
X149388349Y-99237585D01*
X149388355Y-99237590D01*
X149515139Y-99364374D01*
X149515149Y-99364385D01*
X149519479Y-99368715D01*
X149519480Y-99368716D01*
X149631284Y-99480520D01*
X149631286Y-99480521D01*
X149631290Y-99480524D01*
X149768209Y-99559573D01*
X149768216Y-99559577D01*
X149880019Y-99589534D01*
X149920942Y-99600500D01*
X149920943Y-99600500D01*
X163913331Y-99600500D01*
X163913347Y-99600501D01*
X163920943Y-99600501D01*
X164079054Y-99600501D01*
X164079057Y-99600501D01*
X164231785Y-99559577D01*
X164281904Y-99530639D01*
X164368716Y-99480520D01*
X164480520Y-99368716D01*
X164480521Y-99368714D01*
X164783547Y-99065687D01*
X164802333Y-99050271D01*
X164858809Y-99012533D01*
X164898733Y-98985858D01*
X164898735Y-98985855D01*
X164898739Y-98985853D01*
X164985855Y-98898736D01*
X164985858Y-98898733D01*
X165054311Y-98796286D01*
X165101463Y-98682452D01*
X165125500Y-98561606D01*
X165125500Y-98422980D01*
X165145185Y-98355941D01*
X165193208Y-98312494D01*
X165207818Y-98305050D01*
X165379784Y-98180110D01*
X165379784Y-98180109D01*
X165379792Y-98180104D01*
X165518967Y-98040928D01*
X165580286Y-98007446D01*
X165649978Y-98012430D01*
X165705912Y-98054301D01*
X165712184Y-98063515D01*
X165807684Y-98218345D01*
X165931654Y-98342315D01*
X166080875Y-98434356D01*
X166080880Y-98434358D01*
X166247302Y-98489505D01*
X166247309Y-98489506D01*
X166350019Y-98499999D01*
X166749999Y-98499999D01*
X166750000Y-98499998D01*
X166750000Y-97429145D01*
X166816657Y-97467630D01*
X166937465Y-97500000D01*
X167062535Y-97500000D01*
X167183343Y-97467630D01*
X167250000Y-97429145D01*
X167250000Y-98499999D01*
X167649972Y-98499999D01*
X167649986Y-98499998D01*
X167752697Y-98489505D01*
X167919119Y-98434358D01*
X167919124Y-98434356D01*
X168068345Y-98342315D01*
X168192315Y-98218345D01*
X168284356Y-98069124D01*
X168284358Y-98069119D01*
X168339505Y-97902697D01*
X168339506Y-97902690D01*
X168349999Y-97799986D01*
X168350000Y-97799973D01*
X168350000Y-97275000D01*
X167404146Y-97275000D01*
X167442630Y-97208343D01*
X167475000Y-97087535D01*
X167475000Y-96962465D01*
X167442630Y-96841657D01*
X167404146Y-96775000D01*
X168349999Y-96775000D01*
X168349999Y-96250028D01*
X168349998Y-96250013D01*
X168339505Y-96147302D01*
X168284358Y-95980880D01*
X168284356Y-95980875D01*
X168192315Y-95831654D01*
X168068345Y-95707684D01*
X167919124Y-95615643D01*
X167919119Y-95615641D01*
X167752697Y-95560494D01*
X167752690Y-95560493D01*
X167649986Y-95550000D01*
X167250000Y-95550000D01*
X167250000Y-96620854D01*
X167183343Y-96582370D01*
X167062535Y-96550000D01*
X166937465Y-96550000D01*
X166816657Y-96582370D01*
X166750000Y-96620854D01*
X166750000Y-95550000D01*
X166350028Y-95550000D01*
X166350012Y-95550001D01*
X166247302Y-95560494D01*
X166080880Y-95615641D01*
X166080875Y-95615643D01*
X165931654Y-95707684D01*
X165807683Y-95831655D01*
X165807680Y-95831659D01*
X165712183Y-95986484D01*
X165660235Y-96033209D01*
X165591273Y-96044430D01*
X165527191Y-96016587D01*
X165518964Y-96009068D01*
X165379786Y-95869890D01*
X165207819Y-95744950D01*
X165193203Y-95737503D01*
X165142408Y-95689527D01*
X165125500Y-95627019D01*
X165125500Y-93620452D01*
X165145185Y-93553413D01*
X165161819Y-93532771D01*
X166592771Y-92101819D01*
X166654094Y-92068334D01*
X166680452Y-92065500D01*
X167634773Y-92065500D01*
X167701812Y-92085185D01*
X167736348Y-92118377D01*
X167871500Y-92311395D01*
X167871505Y-92311401D01*
X168038599Y-92478495D01*
X168135384Y-92546265D01*
X168232165Y-92614032D01*
X168232167Y-92614033D01*
X168232170Y-92614035D01*
X168446337Y-92713903D01*
X168674592Y-92775063D01*
X168862918Y-92791539D01*
X168909999Y-92795659D01*
X168910000Y-92795659D01*
X168910001Y-92795659D01*
X168949234Y-92792226D01*
X169145408Y-92775063D01*
X169373663Y-92713903D01*
X169587830Y-92614035D01*
X169781401Y-92478495D01*
X169948495Y-92311401D01*
X170084035Y-92117830D01*
X170183903Y-91903663D01*
X170245063Y-91675408D01*
X170265659Y-91440000D01*
X170245063Y-91204592D01*
X170183903Y-90976337D01*
X170084035Y-90762171D01*
X170083652Y-90761623D01*
X169948494Y-90568597D01*
X169781402Y-90401506D01*
X169781401Y-90401505D01*
X169730725Y-90366021D01*
X169687101Y-90311445D01*
X169679909Y-90241946D01*
X169711431Y-90179592D01*
X169745556Y-90153962D01*
X169841565Y-90105044D01*
X169841566Y-90105043D01*
X169992675Y-89982675D01*
X170115042Y-89831567D01*
X170203317Y-89658315D01*
X170253644Y-89470497D01*
X170259999Y-89389743D01*
X170260000Y-89389730D01*
X170260000Y-89150000D01*
X169343012Y-89150000D01*
X169375925Y-89092993D01*
X169410000Y-88965826D01*
X169410000Y-88834174D01*
X169375925Y-88707007D01*
X169343012Y-88650000D01*
X170260000Y-88650000D01*
X170260000Y-88410269D01*
X170259999Y-88410256D01*
X170253644Y-88329502D01*
X170203317Y-88141684D01*
X170115042Y-87968432D01*
X169992675Y-87817324D01*
X169841567Y-87694957D01*
X169745555Y-87646037D01*
X169694759Y-87598063D01*
X169677964Y-87530242D01*
X169700501Y-87464107D01*
X169730727Y-87433977D01*
X169737118Y-87429502D01*
X169781401Y-87398495D01*
X169948495Y-87231401D01*
X170084035Y-87037830D01*
X170183903Y-86823663D01*
X170245063Y-86595408D01*
X170265659Y-86360000D01*
X170245063Y-86124592D01*
X170183903Y-85896337D01*
X170084035Y-85682171D01*
X169948495Y-85488599D01*
X169948494Y-85488597D01*
X169781402Y-85321506D01*
X169781396Y-85321501D01*
X169595842Y-85191575D01*
X169552217Y-85136998D01*
X169545023Y-85067500D01*
X169576546Y-85005145D01*
X169595842Y-84988425D01*
X169618026Y-84972891D01*
X169781401Y-84858495D01*
X169948495Y-84691401D01*
X170084035Y-84497830D01*
X170183903Y-84283663D01*
X170245063Y-84055408D01*
X170265659Y-83820000D01*
X170245063Y-83584592D01*
X170183903Y-83356337D01*
X170084035Y-83142171D01*
X169948495Y-82948599D01*
X169948494Y-82948597D01*
X169781402Y-82781506D01*
X169781396Y-82781501D01*
X169595842Y-82651575D01*
X169552217Y-82596998D01*
X169545023Y-82527500D01*
X169576546Y-82465145D01*
X169595842Y-82448425D01*
X169705852Y-82371395D01*
X169781401Y-82318495D01*
X169948495Y-82151401D01*
X170084035Y-81957830D01*
X170183903Y-81743663D01*
X170245063Y-81515408D01*
X170265659Y-81280000D01*
X170245063Y-81044592D01*
X170183903Y-80816337D01*
X170084035Y-80602171D01*
X170035066Y-80532235D01*
X169948494Y-80408597D01*
X169781402Y-80241506D01*
X169781396Y-80241501D01*
X169595842Y-80111575D01*
X169552217Y-80056998D01*
X169545023Y-79987500D01*
X169576546Y-79925145D01*
X169595842Y-79908425D01*
X169636743Y-79879786D01*
X169781401Y-79778495D01*
X169948495Y-79611401D01*
X170084035Y-79417830D01*
X170183903Y-79203663D01*
X170245063Y-78975408D01*
X170265659Y-78740000D01*
X170245063Y-78504592D01*
X170183903Y-78276337D01*
X170084035Y-78062171D01*
X170035066Y-77992235D01*
X169948494Y-77868597D01*
X169781402Y-77701506D01*
X169781396Y-77701501D01*
X169595842Y-77571575D01*
X169552217Y-77516998D01*
X169545023Y-77447500D01*
X169576546Y-77385145D01*
X169595842Y-77368425D01*
X169618026Y-77352891D01*
X169781401Y-77238495D01*
X169948495Y-77071401D01*
X170084035Y-76877830D01*
X170183903Y-76663663D01*
X170245063Y-76435408D01*
X170265659Y-76200000D01*
X170245063Y-75964592D01*
X170218143Y-75864125D01*
X170219806Y-75794276D01*
X170250235Y-75744353D01*
X171213729Y-74780860D01*
X171213733Y-74780858D01*
X171300858Y-74693733D01*
X171369311Y-74591286D01*
X171369312Y-74591285D01*
X171369313Y-74591282D01*
X171369315Y-74591279D01*
X171379672Y-74566272D01*
X171416463Y-74477451D01*
X171440500Y-74356607D01*
X171440500Y-74233393D01*
X171440500Y-64113394D01*
X171416463Y-63992548D01*
X171369311Y-63878714D01*
X171369310Y-63878713D01*
X171369307Y-63878707D01*
X171300859Y-63776268D01*
X171259994Y-63735403D01*
X171213733Y-63689142D01*
X171213732Y-63689141D01*
X170210236Y-62685646D01*
X170176752Y-62624324D01*
X170178143Y-62565872D01*
X170205063Y-62465408D01*
X170225659Y-62230000D01*
X170223690Y-62207500D01*
X170208509Y-62033977D01*
X170205063Y-61994592D01*
X170143903Y-61766337D01*
X170044035Y-61552171D01*
X170031936Y-61534891D01*
X169908494Y-61358597D01*
X169741402Y-61191506D01*
X169741395Y-61191501D01*
X169547834Y-61055967D01*
X169547830Y-61055965D01*
X169547828Y-61055964D01*
X169333663Y-60956097D01*
X169333659Y-60956096D01*
X169333655Y-60956094D01*
X169105413Y-60894938D01*
X169105403Y-60894936D01*
X168870001Y-60874341D01*
X168869999Y-60874341D01*
X168634596Y-60894936D01*
X168634586Y-60894938D01*
X168406344Y-60956094D01*
X168406335Y-60956098D01*
X168192171Y-61055964D01*
X168192169Y-61055965D01*
X167998597Y-61191505D01*
X167831505Y-61358597D01*
X167721575Y-61515595D01*
X167666998Y-61559220D01*
X167597500Y-61566414D01*
X167535145Y-61534891D01*
X167518425Y-61515595D01*
X167408494Y-61358597D01*
X167241402Y-61191506D01*
X167241395Y-61191501D01*
X167047834Y-61055967D01*
X167047830Y-61055965D01*
X167047828Y-61055964D01*
X166833663Y-60956097D01*
X166833659Y-60956096D01*
X166833655Y-60956094D01*
X166605413Y-60894938D01*
X166605403Y-60894936D01*
X166370001Y-60874341D01*
X166369999Y-60874341D01*
X166134596Y-60894936D01*
X166134586Y-60894938D01*
X165906344Y-60956094D01*
X165906335Y-60956098D01*
X165692171Y-61055964D01*
X165692169Y-61055965D01*
X165498597Y-61191505D01*
X165331505Y-61358597D01*
X165195965Y-61552169D01*
X165195964Y-61552171D01*
X165096098Y-61766335D01*
X165096094Y-61766344D01*
X165034938Y-61994586D01*
X165034936Y-61994596D01*
X165014341Y-62229999D01*
X165014341Y-62230000D01*
X165034936Y-62465403D01*
X165034938Y-62465413D01*
X165096094Y-62693655D01*
X165096096Y-62693659D01*
X165096097Y-62693663D01*
X165189323Y-62893586D01*
X165195965Y-62907830D01*
X165195967Y-62907834D01*
X165304281Y-63062521D01*
X165331505Y-63101401D01*
X165498599Y-63268495D01*
X165691624Y-63403653D01*
X165735248Y-63458228D01*
X165744500Y-63505226D01*
X165744500Y-64073393D01*
X165744500Y-64196607D01*
X165748296Y-64215689D01*
X165761911Y-64284142D01*
X165766318Y-64306296D01*
X165768536Y-64317448D01*
X165815688Y-64431286D01*
X165815688Y-64431287D01*
X165829813Y-64452426D01*
X165844037Y-64473712D01*
X165844038Y-64473715D01*
X165844039Y-64473715D01*
X165884140Y-64533731D01*
X165884141Y-64533732D01*
X165884142Y-64533733D01*
X165971267Y-64620858D01*
X165971268Y-64620858D01*
X165978335Y-64627925D01*
X165978334Y-64627925D01*
X165978338Y-64627928D01*
X166343181Y-64992771D01*
X166376666Y-65054094D01*
X166379500Y-65080452D01*
X166379500Y-71816611D01*
X166403535Y-71937444D01*
X166403540Y-71937461D01*
X166450685Y-72051281D01*
X166450687Y-72051284D01*
X166482013Y-72098165D01*
X166482014Y-72098167D01*
X166519143Y-72153735D01*
X166610586Y-72245178D01*
X166610608Y-72245198D01*
X167569762Y-73204352D01*
X167603247Y-73265675D01*
X167601856Y-73324126D01*
X167574938Y-73424586D01*
X167574936Y-73424596D01*
X167554341Y-73659999D01*
X167554341Y-73660000D01*
X167574936Y-73895403D01*
X167574938Y-73895413D01*
X167636094Y-74123655D01*
X167636096Y-74123659D01*
X167636097Y-74123663D01*
X167687265Y-74233393D01*
X167735965Y-74337830D01*
X167735967Y-74337834D01*
X167807564Y-74440084D01*
X167871501Y-74531396D01*
X167871506Y-74531402D01*
X168038597Y-74698493D01*
X168038603Y-74698498D01*
X168224158Y-74828425D01*
X168267783Y-74883002D01*
X168274977Y-74952500D01*
X168243454Y-75014855D01*
X168224158Y-75031575D01*
X168038597Y-75161505D01*
X167871505Y-75328597D01*
X167735965Y-75522169D01*
X167735964Y-75522171D01*
X167636098Y-75736335D01*
X167636094Y-75736344D01*
X167574938Y-75964586D01*
X167574936Y-75964596D01*
X167554341Y-76199999D01*
X167554341Y-76200000D01*
X167574936Y-76435403D01*
X167574938Y-76435413D01*
X167636094Y-76663655D01*
X167636096Y-76663659D01*
X167636097Y-76663663D01*
X167735965Y-76877830D01*
X167735967Y-76877834D01*
X167807564Y-76980084D01*
X167871501Y-77071396D01*
X167871506Y-77071402D01*
X168038597Y-77238493D01*
X168038603Y-77238498D01*
X168224158Y-77368425D01*
X168267783Y-77423002D01*
X168274977Y-77492500D01*
X168243454Y-77554855D01*
X168224158Y-77571575D01*
X168038597Y-77701505D01*
X167871505Y-77868597D01*
X167735965Y-78062169D01*
X167735964Y-78062171D01*
X167636098Y-78276335D01*
X167636094Y-78276344D01*
X167574938Y-78504586D01*
X167574936Y-78504596D01*
X167554341Y-78739999D01*
X167554341Y-78740000D01*
X167574936Y-78975403D01*
X167574938Y-78975413D01*
X167636094Y-79203655D01*
X167636096Y-79203659D01*
X167636097Y-79203663D01*
X167688592Y-79316239D01*
X167735965Y-79417830D01*
X167735967Y-79417834D01*
X167807564Y-79520084D01*
X167871501Y-79611396D01*
X167871506Y-79611402D01*
X168038597Y-79778493D01*
X168038603Y-79778498D01*
X168224158Y-79908425D01*
X168267783Y-79963002D01*
X168274977Y-80032500D01*
X168243454Y-80094855D01*
X168224158Y-80111575D01*
X168038597Y-80241505D01*
X167871505Y-80408597D01*
X167735965Y-80602169D01*
X167735964Y-80602171D01*
X167636098Y-80816335D01*
X167636094Y-80816344D01*
X167574938Y-81044586D01*
X167574936Y-81044596D01*
X167554341Y-81279999D01*
X167554341Y-81280000D01*
X167574936Y-81515403D01*
X167574938Y-81515413D01*
X167636094Y-81743655D01*
X167636096Y-81743659D01*
X167636097Y-81743663D01*
X167735965Y-81957830D01*
X167735967Y-81957834D01*
X167871501Y-82151395D01*
X167871506Y-82151402D01*
X168038597Y-82318493D01*
X168038603Y-82318498D01*
X168224158Y-82448425D01*
X168267783Y-82503002D01*
X168274977Y-82572500D01*
X168243454Y-82634855D01*
X168224158Y-82651575D01*
X168038597Y-82781505D01*
X167871505Y-82948597D01*
X167735965Y-83142169D01*
X167735964Y-83142171D01*
X167636098Y-83356335D01*
X167636094Y-83356344D01*
X167574938Y-83584586D01*
X167574936Y-83584596D01*
X167554341Y-83819999D01*
X167554341Y-83820000D01*
X167574936Y-84055403D01*
X167574938Y-84055413D01*
X167636094Y-84283655D01*
X167636096Y-84283659D01*
X167636097Y-84283663D01*
X167735965Y-84497830D01*
X167735967Y-84497834D01*
X167871501Y-84691395D01*
X167871506Y-84691402D01*
X168038597Y-84858493D01*
X168038603Y-84858498D01*
X168224158Y-84988425D01*
X168267783Y-85043002D01*
X168274977Y-85112500D01*
X168243454Y-85174855D01*
X168224158Y-85191575D01*
X168038597Y-85321505D01*
X167871505Y-85488597D01*
X167735965Y-85682169D01*
X167735964Y-85682171D01*
X167636098Y-85896335D01*
X167636094Y-85896344D01*
X167574938Y-86124586D01*
X167574936Y-86124596D01*
X167554341Y-86359999D01*
X167554341Y-86360000D01*
X167574936Y-86595403D01*
X167574938Y-86595413D01*
X167636094Y-86823655D01*
X167636096Y-86823659D01*
X167636097Y-86823663D01*
X167679772Y-86917324D01*
X167735965Y-87037830D01*
X167735967Y-87037834D01*
X167814134Y-87149467D01*
X167861075Y-87216506D01*
X167871501Y-87231395D01*
X167871506Y-87231402D01*
X168038597Y-87398493D01*
X168038603Y-87398498D01*
X168089272Y-87433977D01*
X168132897Y-87488554D01*
X168140091Y-87558052D01*
X168108568Y-87620407D01*
X168074444Y-87646037D01*
X167978432Y-87694957D01*
X167827324Y-87817324D01*
X167704957Y-87968432D01*
X167616682Y-88141684D01*
X167566355Y-88329502D01*
X167560000Y-88410256D01*
X167560000Y-88650000D01*
X168476988Y-88650000D01*
X168444075Y-88707007D01*
X168410000Y-88834174D01*
X168410000Y-88965826D01*
X168444075Y-89092993D01*
X168476988Y-89150000D01*
X167560000Y-89150000D01*
X167560000Y-89389743D01*
X167566355Y-89470497D01*
X167616682Y-89658315D01*
X167704957Y-89831567D01*
X167827324Y-89982675D01*
X167978433Y-90105043D01*
X167978435Y-90105044D01*
X168074443Y-90153962D01*
X168125239Y-90201936D01*
X168142035Y-90269757D01*
X168119498Y-90335892D01*
X168089274Y-90366021D01*
X168038595Y-90401507D01*
X167871505Y-90568597D01*
X167736348Y-90761623D01*
X167681771Y-90805248D01*
X167634773Y-90814500D01*
X167119500Y-90814500D01*
X167052461Y-90794815D01*
X167006706Y-90742011D01*
X166995500Y-90690500D01*
X166995500Y-81218394D01*
X166993464Y-81208158D01*
X166993464Y-81208157D01*
X166971464Y-81097556D01*
X166971463Y-81097549D01*
X166949527Y-81044592D01*
X166924311Y-80983714D01*
X166907814Y-80959025D01*
X166855858Y-80881266D01*
X166765637Y-80791045D01*
X166765606Y-80791016D01*
X165761819Y-79787229D01*
X165728334Y-79725906D01*
X165725500Y-79699548D01*
X165725500Y-68518393D01*
X165725499Y-68518389D01*
X165701464Y-68397555D01*
X165701463Y-68397548D01*
X165654311Y-68283714D01*
X165654310Y-68283713D01*
X165654307Y-68283707D01*
X165585858Y-68181267D01*
X165585855Y-68181263D01*
X165498736Y-68094144D01*
X165498732Y-68094141D01*
X165396292Y-68025692D01*
X165396283Y-68025687D01*
X165282454Y-67978538D01*
X165282455Y-67978538D01*
X165282452Y-67978537D01*
X165282448Y-67978536D01*
X165282444Y-67978535D01*
X165161610Y-67954500D01*
X165161606Y-67954500D01*
X163835227Y-67954500D01*
X163768188Y-67934815D01*
X163733652Y-67901623D01*
X163598494Y-67708597D01*
X163431402Y-67541506D01*
X163431396Y-67541501D01*
X163245842Y-67411575D01*
X163202217Y-67356998D01*
X163195023Y-67287500D01*
X163226546Y-67225145D01*
X163245842Y-67208425D01*
X163268026Y-67192891D01*
X163431401Y-67078495D01*
X163598495Y-66911401D01*
X163734035Y-66717830D01*
X163833903Y-66503663D01*
X163895063Y-66275408D01*
X163915659Y-66040000D01*
X163895063Y-65804592D01*
X163833903Y-65576337D01*
X163734035Y-65362171D01*
X163598495Y-65168599D01*
X163598494Y-65168597D01*
X163431402Y-65001506D01*
X163431401Y-65001505D01*
X163380725Y-64966021D01*
X163337101Y-64911445D01*
X163329909Y-64841946D01*
X163361431Y-64779592D01*
X163395556Y-64753962D01*
X163491565Y-64705044D01*
X163491566Y-64705043D01*
X163642675Y-64582675D01*
X163765042Y-64431567D01*
X163853317Y-64258315D01*
X163903644Y-64070497D01*
X163909999Y-63989743D01*
X163910000Y-63989730D01*
X163910000Y-63750000D01*
X162993012Y-63750000D01*
X163025925Y-63692993D01*
X163060000Y-63565826D01*
X163060000Y-63434174D01*
X163025925Y-63307007D01*
X162993012Y-63250000D01*
X163910000Y-63250000D01*
X163910000Y-63010269D01*
X163909999Y-63010256D01*
X163903644Y-62929502D01*
X163853317Y-62741684D01*
X163765042Y-62568432D01*
X163642675Y-62417324D01*
X163491567Y-62294957D01*
X163395555Y-62246037D01*
X163344759Y-62198063D01*
X163327964Y-62130242D01*
X163350501Y-62064107D01*
X163380727Y-62033977D01*
X163431401Y-61998495D01*
X163598495Y-61831401D01*
X163734035Y-61637830D01*
X163833903Y-61423663D01*
X163895063Y-61195408D01*
X163915659Y-60960000D01*
X163895063Y-60724592D01*
X163833903Y-60496337D01*
X163734035Y-60282171D01*
X163598495Y-60088599D01*
X163598494Y-60088597D01*
X163431402Y-59921506D01*
X163431395Y-59921501D01*
X163237834Y-59785967D01*
X163237830Y-59785965D01*
X163133813Y-59737461D01*
X163023663Y-59686097D01*
X163023659Y-59686096D01*
X163023655Y-59686094D01*
X162795413Y-59624938D01*
X162795403Y-59624936D01*
X162560001Y-59604341D01*
X162559999Y-59604341D01*
X162324596Y-59624936D01*
X162324586Y-59624938D01*
X162224126Y-59651856D01*
X162154276Y-59650193D01*
X162104352Y-59619762D01*
X161616771Y-59132181D01*
X161583286Y-59070858D01*
X161588270Y-59001166D01*
X161630142Y-58945233D01*
X161695606Y-58920816D01*
X161704452Y-58920500D01*
X172095500Y-58920500D01*
X172162539Y-58940185D01*
X172208294Y-58992989D01*
X172219500Y-59044500D01*
X172219500Y-101015500D01*
X172199815Y-101082539D01*
X172147011Y-101128294D01*
X172095500Y-101139500D01*
X140324500Y-101139500D01*
X140257461Y-101119815D01*
X140211706Y-101067011D01*
X140200500Y-101015500D01*
X140200500Y-59044500D01*
X140220185Y-58977461D01*
X140272989Y-58931706D01*
X140324500Y-58920500D01*
X144250500Y-58920500D01*
X144317539Y-58940185D01*
G37*
%TD.AperFunction*%
%TA.AperFunction,Conductor*%
G36*
X160411587Y-59700185D02*
G01*
X160432229Y-59716819D01*
X161219762Y-60504352D01*
X161253247Y-60565675D01*
X161251856Y-60624126D01*
X161224938Y-60724586D01*
X161224936Y-60724596D01*
X161204341Y-60959999D01*
X161204341Y-60960000D01*
X161224936Y-61195403D01*
X161224938Y-61195413D01*
X161286094Y-61423655D01*
X161286096Y-61423659D01*
X161286097Y-61423663D01*
X161352663Y-61566414D01*
X161385965Y-61637830D01*
X161385967Y-61637834D01*
X161521501Y-61831395D01*
X161521506Y-61831402D01*
X161688597Y-61998493D01*
X161688603Y-61998498D01*
X161739272Y-62033977D01*
X161782897Y-62088554D01*
X161790091Y-62158052D01*
X161758568Y-62220407D01*
X161724444Y-62246037D01*
X161628432Y-62294957D01*
X161477324Y-62417324D01*
X161354957Y-62568432D01*
X161266682Y-62741684D01*
X161216355Y-62929502D01*
X161210000Y-63010256D01*
X161210000Y-63250000D01*
X162126988Y-63250000D01*
X162094075Y-63307007D01*
X162060000Y-63434174D01*
X162060000Y-63565826D01*
X162094075Y-63692993D01*
X162126988Y-63750000D01*
X161210000Y-63750000D01*
X161210000Y-63989743D01*
X161216355Y-64070497D01*
X161266682Y-64258315D01*
X161354957Y-64431567D01*
X161477324Y-64582675D01*
X161628433Y-64705043D01*
X161628435Y-64705044D01*
X161724443Y-64753962D01*
X161775239Y-64801936D01*
X161792035Y-64869757D01*
X161769498Y-64935892D01*
X161739274Y-64966021D01*
X161688595Y-65001507D01*
X161521505Y-65168597D01*
X161385965Y-65362169D01*
X161385964Y-65362171D01*
X161286098Y-65576335D01*
X161286094Y-65576344D01*
X161224938Y-65804586D01*
X161224936Y-65804596D01*
X161204341Y-66039999D01*
X161204341Y-66040000D01*
X161224936Y-66275403D01*
X161224938Y-66275413D01*
X161286094Y-66503655D01*
X161286096Y-66503659D01*
X161286097Y-66503663D01*
X161370078Y-66683760D01*
X161385965Y-66717830D01*
X161385967Y-66717834D01*
X161521501Y-66911395D01*
X161521506Y-66911402D01*
X161688597Y-67078493D01*
X161688603Y-67078498D01*
X161874158Y-67208425D01*
X161917783Y-67263002D01*
X161924977Y-67332500D01*
X161893454Y-67394855D01*
X161874158Y-67411575D01*
X161688597Y-67541505D01*
X161521505Y-67708597D01*
X161385965Y-67902169D01*
X161385964Y-67902171D01*
X161286098Y-68116335D01*
X161286094Y-68116344D01*
X161224938Y-68344586D01*
X161224936Y-68344596D01*
X161204341Y-68579999D01*
X161204341Y-68580000D01*
X161224936Y-68815403D01*
X161224938Y-68815412D01*
X161225817Y-68818692D01*
X161225781Y-68820193D01*
X161225878Y-68820742D01*
X161225767Y-68820761D01*
X161224152Y-68888542D01*
X161184988Y-68946403D01*
X161120759Y-68973905D01*
X161051857Y-68962317D01*
X161018360Y-68938464D01*
X160966903Y-68887007D01*
X160891401Y-68811505D01*
X160891397Y-68811502D01*
X160891396Y-68811501D01*
X160697834Y-68675967D01*
X160697830Y-68675965D01*
X160633197Y-68645826D01*
X160483663Y-68576097D01*
X160483659Y-68576096D01*
X160483655Y-68576094D01*
X160255413Y-68514938D01*
X160255403Y-68514936D01*
X160020001Y-68494341D01*
X160019999Y-68494341D01*
X159784596Y-68514936D01*
X159784586Y-68514938D01*
X159556344Y-68576094D01*
X159556335Y-68576098D01*
X159342171Y-68675964D01*
X159342169Y-68675965D01*
X159148597Y-68811505D01*
X158981505Y-68978597D01*
X158845965Y-69172169D01*
X158845964Y-69172171D01*
X158746098Y-69386335D01*
X158746094Y-69386344D01*
X158684938Y-69614586D01*
X158684936Y-69614596D01*
X158664341Y-69849999D01*
X158664341Y-69850000D01*
X158684936Y-70085403D01*
X158684938Y-70085413D01*
X158746094Y-70313655D01*
X158746096Y-70313659D01*
X158746097Y-70313663D01*
X158808697Y-70447909D01*
X158845965Y-70527830D01*
X158845967Y-70527834D01*
X158981501Y-70721395D01*
X158981506Y-70721402D01*
X159148597Y-70888493D01*
X159148603Y-70888498D01*
X159334158Y-71018425D01*
X159377783Y-71073002D01*
X159384977Y-71142500D01*
X159353454Y-71204855D01*
X159334158Y-71221575D01*
X159148597Y-71351505D01*
X158981505Y-71518597D01*
X158845965Y-71712169D01*
X158845964Y-71712171D01*
X158746098Y-71926335D01*
X158746094Y-71926344D01*
X158684938Y-72154586D01*
X158684936Y-72154596D01*
X158664341Y-72389999D01*
X158664341Y-72390000D01*
X158684936Y-72625403D01*
X158684938Y-72625413D01*
X158746094Y-72853655D01*
X158746096Y-72853659D01*
X158746097Y-72853663D01*
X158845965Y-73067830D01*
X158845967Y-73067834D01*
X158941559Y-73204352D01*
X158981505Y-73261401D01*
X159148599Y-73428495D01*
X159245384Y-73496265D01*
X159342165Y-73564032D01*
X159342167Y-73564033D01*
X159342170Y-73564035D01*
X159556337Y-73663903D01*
X159784592Y-73725063D01*
X159972918Y-73741539D01*
X160019999Y-73745659D01*
X160020000Y-73745659D01*
X160020001Y-73745659D01*
X160059234Y-73742226D01*
X160255408Y-73725063D01*
X160483663Y-73663903D01*
X160697830Y-73564035D01*
X160891401Y-73428495D01*
X161018363Y-73301532D01*
X161079682Y-73268050D01*
X161149374Y-73273034D01*
X161205308Y-73314905D01*
X161229725Y-73380369D01*
X161225819Y-73421299D01*
X161224938Y-73424585D01*
X161224936Y-73424596D01*
X161204341Y-73659999D01*
X161204341Y-73660000D01*
X161224936Y-73895403D01*
X161224938Y-73895413D01*
X161286094Y-74123655D01*
X161286096Y-74123659D01*
X161286097Y-74123663D01*
X161337265Y-74233393D01*
X161385965Y-74337830D01*
X161385967Y-74337834D01*
X161457564Y-74440084D01*
X161521501Y-74531396D01*
X161521506Y-74531402D01*
X161688597Y-74698493D01*
X161688603Y-74698498D01*
X161874158Y-74828425D01*
X161917783Y-74883002D01*
X161924977Y-74952500D01*
X161893454Y-75014855D01*
X161874158Y-75031575D01*
X161688597Y-75161505D01*
X161521505Y-75328597D01*
X161385965Y-75522169D01*
X161385964Y-75522171D01*
X161286098Y-75736335D01*
X161286094Y-75736344D01*
X161224938Y-75964586D01*
X161224936Y-75964596D01*
X161204341Y-76199999D01*
X161204341Y-76200000D01*
X161224936Y-76435403D01*
X161224938Y-76435413D01*
X161286094Y-76663655D01*
X161286096Y-76663659D01*
X161286097Y-76663663D01*
X161385965Y-76877830D01*
X161385967Y-76877834D01*
X161457564Y-76980084D01*
X161521501Y-77071396D01*
X161521506Y-77071402D01*
X161688597Y-77238493D01*
X161688603Y-77238498D01*
X161874158Y-77368425D01*
X161917783Y-77423002D01*
X161924977Y-77492500D01*
X161893454Y-77554855D01*
X161874158Y-77571575D01*
X161688597Y-77701505D01*
X161521505Y-77868597D01*
X161385965Y-78062169D01*
X161385964Y-78062171D01*
X161286098Y-78276335D01*
X161286094Y-78276344D01*
X161224938Y-78504586D01*
X161224936Y-78504596D01*
X161204341Y-78739999D01*
X161204341Y-78740000D01*
X161224936Y-78975403D01*
X161224938Y-78975413D01*
X161286094Y-79203655D01*
X161286096Y-79203659D01*
X161286097Y-79203663D01*
X161338592Y-79316239D01*
X161385965Y-79417830D01*
X161385967Y-79417834D01*
X161457564Y-79520084D01*
X161521501Y-79611396D01*
X161521506Y-79611402D01*
X161688597Y-79778493D01*
X161688603Y-79778498D01*
X161874158Y-79908425D01*
X161917783Y-79963002D01*
X161924977Y-80032500D01*
X161893454Y-80094855D01*
X161874158Y-80111575D01*
X161688597Y-80241505D01*
X161521505Y-80408597D01*
X161385965Y-80602169D01*
X161385964Y-80602171D01*
X161286098Y-80816335D01*
X161286094Y-80816344D01*
X161224938Y-81044586D01*
X161224936Y-81044596D01*
X161204341Y-81279999D01*
X161204341Y-81280000D01*
X161224936Y-81515403D01*
X161224938Y-81515413D01*
X161286094Y-81743655D01*
X161286096Y-81743659D01*
X161286097Y-81743663D01*
X161385965Y-81957830D01*
X161385967Y-81957834D01*
X161521501Y-82151395D01*
X161521506Y-82151402D01*
X161688597Y-82318493D01*
X161688603Y-82318498D01*
X161874158Y-82448425D01*
X161917783Y-82503002D01*
X161924977Y-82572500D01*
X161893454Y-82634855D01*
X161874158Y-82651575D01*
X161688597Y-82781505D01*
X161521505Y-82948597D01*
X161385965Y-83142169D01*
X161385964Y-83142171D01*
X161286098Y-83356335D01*
X161286094Y-83356344D01*
X161224938Y-83584586D01*
X161224936Y-83584596D01*
X161204341Y-83819999D01*
X161204341Y-83820000D01*
X161224936Y-84055403D01*
X161224938Y-84055413D01*
X161286094Y-84283655D01*
X161286096Y-84283659D01*
X161286097Y-84283663D01*
X161385965Y-84497830D01*
X161385967Y-84497834D01*
X161521501Y-84691395D01*
X161521506Y-84691402D01*
X161688597Y-84858493D01*
X161688603Y-84858498D01*
X161874158Y-84988425D01*
X161917783Y-85043002D01*
X161924977Y-85112500D01*
X161893454Y-85174855D01*
X161874158Y-85191575D01*
X161688597Y-85321505D01*
X161521505Y-85488597D01*
X161385965Y-85682169D01*
X161385964Y-85682171D01*
X161286098Y-85896335D01*
X161286094Y-85896344D01*
X161224938Y-86124586D01*
X161224936Y-86124596D01*
X161204341Y-86359999D01*
X161204341Y-86360000D01*
X161224936Y-86595403D01*
X161224938Y-86595413D01*
X161286094Y-86823655D01*
X161286096Y-86823659D01*
X161286097Y-86823663D01*
X161329772Y-86917324D01*
X161385965Y-87037830D01*
X161385967Y-87037834D01*
X161464134Y-87149467D01*
X161511075Y-87216506D01*
X161521501Y-87231395D01*
X161521506Y-87231402D01*
X161688597Y-87398493D01*
X161688603Y-87398498D01*
X161874158Y-87528425D01*
X161917783Y-87583002D01*
X161924977Y-87652500D01*
X161893454Y-87714855D01*
X161874158Y-87731575D01*
X161688597Y-87861505D01*
X161521505Y-88028597D01*
X161385965Y-88222169D01*
X161385964Y-88222171D01*
X161286098Y-88436335D01*
X161286094Y-88436344D01*
X161224938Y-88664586D01*
X161224936Y-88664596D01*
X161204341Y-88899999D01*
X161204341Y-88900000D01*
X161224936Y-89135403D01*
X161224938Y-89135413D01*
X161286094Y-89363655D01*
X161286096Y-89363659D01*
X161286097Y-89363663D01*
X161313258Y-89421909D01*
X161385965Y-89577830D01*
X161385967Y-89577834D01*
X161442321Y-89658315D01*
X161521505Y-89771401D01*
X161688599Y-89938495D01*
X161751695Y-89982675D01*
X161882165Y-90074032D01*
X161882167Y-90074033D01*
X161882170Y-90074035D01*
X162096337Y-90173903D01*
X162324592Y-90235063D01*
X162512918Y-90251539D01*
X162559999Y-90255659D01*
X162560000Y-90255659D01*
X162560001Y-90255659D01*
X162599234Y-90252226D01*
X162795408Y-90235063D01*
X163023663Y-90173903D01*
X163237830Y-90074035D01*
X163431401Y-89938495D01*
X163598495Y-89771401D01*
X163734035Y-89577830D01*
X163833903Y-89363663D01*
X163895063Y-89135408D01*
X163915659Y-88900000D01*
X163895063Y-88664592D01*
X163833903Y-88436337D01*
X163734035Y-88222171D01*
X163713605Y-88192993D01*
X163598494Y-88028597D01*
X163431402Y-87861506D01*
X163431396Y-87861501D01*
X163245842Y-87731575D01*
X163202217Y-87676998D01*
X163195023Y-87607500D01*
X163226546Y-87545145D01*
X163245842Y-87528425D01*
X163286437Y-87500000D01*
X163431401Y-87398495D01*
X163598495Y-87231401D01*
X163734035Y-87037830D01*
X163833903Y-86823663D01*
X163895063Y-86595408D01*
X163915659Y-86360000D01*
X163895063Y-86124592D01*
X163833903Y-85896337D01*
X163734035Y-85682171D01*
X163598495Y-85488599D01*
X163598494Y-85488597D01*
X163431402Y-85321506D01*
X163431396Y-85321501D01*
X163245842Y-85191575D01*
X163202217Y-85136998D01*
X163195023Y-85067500D01*
X163226546Y-85005145D01*
X163245842Y-84988425D01*
X163268026Y-84972891D01*
X163431401Y-84858495D01*
X163598495Y-84691401D01*
X163734035Y-84497830D01*
X163833903Y-84283663D01*
X163895063Y-84055408D01*
X163915659Y-83820000D01*
X163895063Y-83584592D01*
X163833903Y-83356337D01*
X163734035Y-83142171D01*
X163598495Y-82948599D01*
X163598494Y-82948597D01*
X163431402Y-82781506D01*
X163431396Y-82781501D01*
X163245842Y-82651575D01*
X163202217Y-82596998D01*
X163195023Y-82527500D01*
X163226546Y-82465145D01*
X163245842Y-82448425D01*
X163355852Y-82371395D01*
X163431401Y-82318495D01*
X163598495Y-82151401D01*
X163734035Y-81957830D01*
X163833903Y-81743663D01*
X163895063Y-81515408D01*
X163915659Y-81280000D01*
X163899354Y-81093640D01*
X163913120Y-81025142D01*
X163961735Y-80974959D01*
X164029764Y-80959025D01*
X164095608Y-80982400D01*
X164110563Y-80995153D01*
X164838181Y-81722771D01*
X164871666Y-81784094D01*
X164874500Y-81810452D01*
X164874500Y-91109547D01*
X164854815Y-91176586D01*
X164838181Y-91197228D01*
X161514144Y-94521264D01*
X161514138Y-94521272D01*
X161445692Y-94623705D01*
X161445684Y-94623719D01*
X161412347Y-94704207D01*
X161406823Y-94717543D01*
X161398537Y-94737545D01*
X161398535Y-94737553D01*
X161374500Y-94858389D01*
X161374500Y-95627019D01*
X161354815Y-95694058D01*
X161306797Y-95737503D01*
X161292180Y-95744950D01*
X161120213Y-95869890D01*
X160969894Y-96020209D01*
X160969890Y-96020214D01*
X160850318Y-96184793D01*
X160794989Y-96227459D01*
X160725375Y-96233438D01*
X160663580Y-96200833D01*
X160649682Y-96184793D01*
X160530109Y-96020214D01*
X160530105Y-96020209D01*
X160379786Y-95869890D01*
X160207820Y-95744951D01*
X160018414Y-95648444D01*
X160018413Y-95648443D01*
X160018412Y-95648443D01*
X159816243Y-95582754D01*
X159816241Y-95582753D01*
X159816240Y-95582753D01*
X159654957Y-95557208D01*
X159606287Y-95549500D01*
X159393713Y-95549500D01*
X159345042Y-95557208D01*
X159183760Y-95582753D01*
X158981585Y-95648444D01*
X158792179Y-95744951D01*
X158620213Y-95869890D01*
X158469890Y-96020213D01*
X158344951Y-96192179D01*
X158248444Y-96381585D01*
X158182753Y-96583760D01*
X158173069Y-96644905D01*
X158149500Y-96793713D01*
X158149500Y-97256287D01*
X158182754Y-97466243D01*
X158193722Y-97500000D01*
X158248444Y-97668414D01*
X158344951Y-97857820D01*
X158469890Y-98029786D01*
X158620210Y-98180106D01*
X158621507Y-98181214D01*
X158621862Y-98181758D01*
X158623653Y-98183549D01*
X158623276Y-98183925D01*
X158659698Y-98239723D01*
X158660193Y-98309591D01*
X158622836Y-98368635D01*
X158559488Y-98398110D01*
X158540971Y-98399500D01*
X153552754Y-98399500D01*
X153485715Y-98379815D01*
X153439960Y-98327011D01*
X153430016Y-98257853D01*
X153447215Y-98210403D01*
X153534356Y-98069124D01*
X153534358Y-98069119D01*
X153589505Y-97902697D01*
X153589506Y-97902690D01*
X153599999Y-97799986D01*
X153600000Y-97799973D01*
X153600000Y-97275000D01*
X152654146Y-97275000D01*
X152692630Y-97208343D01*
X152725000Y-97087535D01*
X152725000Y-96962465D01*
X152692630Y-96841657D01*
X152654146Y-96775000D01*
X153599999Y-96775000D01*
X153599999Y-96250028D01*
X153599998Y-96250013D01*
X153589505Y-96147302D01*
X153534358Y-95980880D01*
X153534356Y-95980875D01*
X153442315Y-95831654D01*
X153318345Y-95707684D01*
X153169124Y-95615643D01*
X153169119Y-95615641D01*
X153002697Y-95560494D01*
X153002690Y-95560493D01*
X152899986Y-95550000D01*
X152500000Y-95550000D01*
X152500000Y-96620854D01*
X152433343Y-96582370D01*
X152312535Y-96550000D01*
X152187465Y-96550000D01*
X152066657Y-96582370D01*
X152000000Y-96620854D01*
X152000000Y-95550000D01*
X151600028Y-95550000D01*
X151600012Y-95550001D01*
X151497302Y-95560494D01*
X151330880Y-95615641D01*
X151330875Y-95615643D01*
X151181654Y-95707684D01*
X151057683Y-95831655D01*
X151057680Y-95831659D01*
X150962183Y-95986484D01*
X150910235Y-96033209D01*
X150841273Y-96044430D01*
X150777191Y-96016587D01*
X150768964Y-96009068D01*
X150629786Y-95869890D01*
X150457820Y-95744951D01*
X150268414Y-95648444D01*
X150268413Y-95648443D01*
X150268412Y-95648443D01*
X150066243Y-95582754D01*
X150066241Y-95582753D01*
X150066240Y-95582753D01*
X149904957Y-95557208D01*
X149856287Y-95549500D01*
X149643713Y-95549500D01*
X149595042Y-95557208D01*
X149433760Y-95582753D01*
X149231585Y-95648444D01*
X149042179Y-95744951D01*
X148870213Y-95869890D01*
X148719894Y-96020209D01*
X148719890Y-96020214D01*
X148600318Y-96184793D01*
X148544989Y-96227459D01*
X148475375Y-96233438D01*
X148413580Y-96200833D01*
X148399682Y-96184793D01*
X148280109Y-96020214D01*
X148280105Y-96020209D01*
X148142246Y-95882350D01*
X148108761Y-95821027D01*
X148113745Y-95751335D01*
X148142246Y-95706988D01*
X149225529Y-94623705D01*
X150368713Y-93480521D01*
X150368716Y-93480520D01*
X150480520Y-93368716D01*
X150530639Y-93281904D01*
X150559577Y-93231785D01*
X150600500Y-93079058D01*
X150600500Y-92920943D01*
X150600500Y-71420943D01*
X150581894Y-71351505D01*
X150559577Y-71268215D01*
X150511569Y-71185063D01*
X150496044Y-71158173D01*
X150480521Y-71131285D01*
X150364385Y-71015149D01*
X150364374Y-71015139D01*
X150107590Y-70758355D01*
X150107588Y-70758352D01*
X149988717Y-70639481D01*
X149988716Y-70639480D01*
X149901904Y-70589360D01*
X149901904Y-70589359D01*
X149901900Y-70589358D01*
X149851785Y-70560423D01*
X149699057Y-70519499D01*
X149540943Y-70519499D01*
X149533347Y-70519499D01*
X149533331Y-70519500D01*
X148609091Y-70519500D01*
X148542052Y-70499815D01*
X148496711Y-70447909D01*
X148494037Y-70442175D01*
X148494034Y-70442170D01*
X148494033Y-70442169D01*
X148389742Y-70293224D01*
X148358494Y-70248597D01*
X148191402Y-70081506D01*
X148191401Y-70081505D01*
X148140725Y-70046021D01*
X148097101Y-69991445D01*
X148089909Y-69921946D01*
X148121431Y-69859592D01*
X148155556Y-69833962D01*
X148251565Y-69785044D01*
X148251566Y-69785043D01*
X148402675Y-69662675D01*
X148525042Y-69511567D01*
X148613317Y-69338315D01*
X148663644Y-69150497D01*
X148669999Y-69069743D01*
X148670000Y-69069730D01*
X148670000Y-68830000D01*
X147753012Y-68830000D01*
X147785925Y-68772993D01*
X147820000Y-68645826D01*
X147820000Y-68514174D01*
X147785925Y-68387007D01*
X147753012Y-68330000D01*
X148670000Y-68330000D01*
X148670000Y-68090269D01*
X148669999Y-68090256D01*
X148663644Y-68009502D01*
X148613317Y-67821684D01*
X148525042Y-67648432D01*
X148402675Y-67497324D01*
X148251567Y-67374957D01*
X148155555Y-67326037D01*
X148104759Y-67278063D01*
X148087964Y-67210242D01*
X148110501Y-67144107D01*
X148140727Y-67113977D01*
X148191401Y-67078495D01*
X148358495Y-66911401D01*
X148494035Y-66717830D01*
X148593903Y-66503663D01*
X148655063Y-66275408D01*
X148675659Y-66040000D01*
X148655063Y-65804592D01*
X148593903Y-65576337D01*
X148494035Y-65362171D01*
X148358495Y-65168599D01*
X148358494Y-65168597D01*
X148191402Y-65001506D01*
X148191396Y-65001501D01*
X148005842Y-64871575D01*
X147962217Y-64816998D01*
X147955023Y-64747500D01*
X147986546Y-64685145D01*
X148005842Y-64668425D01*
X148028026Y-64652891D01*
X148191401Y-64538495D01*
X148358495Y-64371401D01*
X148494035Y-64177830D01*
X148593903Y-63963663D01*
X148655063Y-63735408D01*
X148675659Y-63500000D01*
X148655063Y-63264592D01*
X148593903Y-63036337D01*
X148494035Y-62822171D01*
X148404054Y-62693663D01*
X148358494Y-62628597D01*
X148191402Y-62461506D01*
X148191396Y-62461501D01*
X148005842Y-62331575D01*
X147962217Y-62276998D01*
X147955023Y-62207500D01*
X147986546Y-62145145D01*
X148005842Y-62128425D01*
X148028026Y-62112891D01*
X148191401Y-61998495D01*
X148358495Y-61831401D01*
X148494035Y-61637830D01*
X148593903Y-61423663D01*
X148655063Y-61195408D01*
X148675659Y-60960000D01*
X148655063Y-60724592D01*
X148593903Y-60496337D01*
X148494035Y-60282171D01*
X148358495Y-60088599D01*
X148358494Y-60088597D01*
X148191402Y-59921506D01*
X148191396Y-59921501D01*
X148169365Y-59906075D01*
X148125740Y-59851499D01*
X148118546Y-59782000D01*
X148150069Y-59719645D01*
X148210298Y-59684231D01*
X148240488Y-59680500D01*
X160344548Y-59680500D01*
X160411587Y-59700185D01*
G37*
%TD.AperFunction*%
%TD*%
M02*
