%TF.GenerationSoftware,KiCad,Pcbnew,8.0.8*%
%TF.CreationDate,2025-02-07T23:38:38-07:00*%
%TF.ProjectId,Nitrox_Board,4e697472-6f78-45f4-926f-6172642e6b69,rev?*%
%TF.SameCoordinates,Original*%
%TF.FileFunction,Legend,Top*%
%TF.FilePolarity,Positive*%
%FSLAX46Y46*%
G04 Gerber Fmt 4.6, Leading zero omitted, Abs format (unit mm)*
G04 Created by KiCad (PCBNEW 8.0.8) date 2025-02-07 23:38:38*
%MOMM*%
%LPD*%
G01*
G04 APERTURE LIST*
%ADD10C,0.150000*%
%ADD11C,0.120000*%
G04 APERTURE END LIST*
D10*
X161297619Y-101029819D02*
X161297619Y-100029819D01*
X161297619Y-100029819D02*
X161535714Y-100029819D01*
X161535714Y-100029819D02*
X161678571Y-100077438D01*
X161678571Y-100077438D02*
X161773809Y-100172676D01*
X161773809Y-100172676D02*
X161821428Y-100267914D01*
X161821428Y-100267914D02*
X161869047Y-100458390D01*
X161869047Y-100458390D02*
X161869047Y-100601247D01*
X161869047Y-100601247D02*
X161821428Y-100791723D01*
X161821428Y-100791723D02*
X161773809Y-100886961D01*
X161773809Y-100886961D02*
X161678571Y-100982200D01*
X161678571Y-100982200D02*
X161535714Y-101029819D01*
X161535714Y-101029819D02*
X161297619Y-101029819D01*
X162297619Y-101029819D02*
X162297619Y-100029819D01*
X162726190Y-100982200D02*
X162869047Y-101029819D01*
X162869047Y-101029819D02*
X163107142Y-101029819D01*
X163107142Y-101029819D02*
X163202380Y-100982200D01*
X163202380Y-100982200D02*
X163249999Y-100934580D01*
X163249999Y-100934580D02*
X163297618Y-100839342D01*
X163297618Y-100839342D02*
X163297618Y-100744104D01*
X163297618Y-100744104D02*
X163249999Y-100648866D01*
X163249999Y-100648866D02*
X163202380Y-100601247D01*
X163202380Y-100601247D02*
X163107142Y-100553628D01*
X163107142Y-100553628D02*
X162916666Y-100506009D01*
X162916666Y-100506009D02*
X162821428Y-100458390D01*
X162821428Y-100458390D02*
X162773809Y-100410771D01*
X162773809Y-100410771D02*
X162726190Y-100315533D01*
X162726190Y-100315533D02*
X162726190Y-100220295D01*
X162726190Y-100220295D02*
X162773809Y-100125057D01*
X162773809Y-100125057D02*
X162821428Y-100077438D01*
X162821428Y-100077438D02*
X162916666Y-100029819D01*
X162916666Y-100029819D02*
X163154761Y-100029819D01*
X163154761Y-100029819D02*
X163297618Y-100077438D01*
X163726190Y-101029819D02*
X163726190Y-100029819D01*
X163726190Y-100029819D02*
X164107142Y-100029819D01*
X164107142Y-100029819D02*
X164202380Y-100077438D01*
X164202380Y-100077438D02*
X164249999Y-100125057D01*
X164249999Y-100125057D02*
X164297618Y-100220295D01*
X164297618Y-100220295D02*
X164297618Y-100363152D01*
X164297618Y-100363152D02*
X164249999Y-100458390D01*
X164249999Y-100458390D02*
X164202380Y-100506009D01*
X164202380Y-100506009D02*
X164107142Y-100553628D01*
X164107142Y-100553628D02*
X163726190Y-100553628D01*
X165249999Y-101029819D02*
X164678571Y-101029819D01*
X164964285Y-101029819D02*
X164964285Y-100029819D01*
X164964285Y-100029819D02*
X164869047Y-100172676D01*
X164869047Y-100172676D02*
X164773809Y-100267914D01*
X164773809Y-100267914D02*
X164678571Y-100315533D01*
X158095238Y-75174819D02*
X158095238Y-74508152D01*
X158095238Y-74174819D02*
X158047619Y-74222438D01*
X158047619Y-74222438D02*
X158095238Y-74270057D01*
X158095238Y-74270057D02*
X158142857Y-74222438D01*
X158142857Y-74222438D02*
X158095238Y-74174819D01*
X158095238Y-74174819D02*
X158095238Y-74270057D01*
X158523809Y-74270057D02*
X158571428Y-74222438D01*
X158571428Y-74222438D02*
X158666666Y-74174819D01*
X158666666Y-74174819D02*
X158904761Y-74174819D01*
X158904761Y-74174819D02*
X158999999Y-74222438D01*
X158999999Y-74222438D02*
X159047618Y-74270057D01*
X159047618Y-74270057D02*
X159095237Y-74365295D01*
X159095237Y-74365295D02*
X159095237Y-74460533D01*
X159095237Y-74460533D02*
X159047618Y-74603390D01*
X159047618Y-74603390D02*
X158476190Y-75174819D01*
X158476190Y-75174819D02*
X159095237Y-75174819D01*
X159952380Y-75127200D02*
X159857142Y-75174819D01*
X159857142Y-75174819D02*
X159666666Y-75174819D01*
X159666666Y-75174819D02*
X159571428Y-75127200D01*
X159571428Y-75127200D02*
X159523809Y-75079580D01*
X159523809Y-75079580D02*
X159476190Y-74984342D01*
X159476190Y-74984342D02*
X159476190Y-74698628D01*
X159476190Y-74698628D02*
X159523809Y-74603390D01*
X159523809Y-74603390D02*
X159571428Y-74555771D01*
X159571428Y-74555771D02*
X159666666Y-74508152D01*
X159666666Y-74508152D02*
X159857142Y-74508152D01*
X159857142Y-74508152D02*
X159952380Y-74555771D01*
X151595238Y-61954819D02*
X151595238Y-60954819D01*
X151595238Y-60954819D02*
X151976190Y-60954819D01*
X151976190Y-60954819D02*
X152071428Y-61002438D01*
X152071428Y-61002438D02*
X152119047Y-61050057D01*
X152119047Y-61050057D02*
X152166666Y-61145295D01*
X152166666Y-61145295D02*
X152166666Y-61288152D01*
X152166666Y-61288152D02*
X152119047Y-61383390D01*
X152119047Y-61383390D02*
X152071428Y-61431009D01*
X152071428Y-61431009D02*
X151976190Y-61478628D01*
X151976190Y-61478628D02*
X151595238Y-61478628D01*
X152595238Y-61954819D02*
X152595238Y-61288152D01*
X152595238Y-61478628D02*
X152642857Y-61383390D01*
X152642857Y-61383390D02*
X152690476Y-61335771D01*
X152690476Y-61335771D02*
X152785714Y-61288152D01*
X152785714Y-61288152D02*
X152880952Y-61288152D01*
X153357143Y-61954819D02*
X153261905Y-61907200D01*
X153261905Y-61907200D02*
X153214286Y-61859580D01*
X153214286Y-61859580D02*
X153166667Y-61764342D01*
X153166667Y-61764342D02*
X153166667Y-61478628D01*
X153166667Y-61478628D02*
X153214286Y-61383390D01*
X153214286Y-61383390D02*
X153261905Y-61335771D01*
X153261905Y-61335771D02*
X153357143Y-61288152D01*
X153357143Y-61288152D02*
X153500000Y-61288152D01*
X153500000Y-61288152D02*
X153595238Y-61335771D01*
X153595238Y-61335771D02*
X153642857Y-61383390D01*
X153642857Y-61383390D02*
X153690476Y-61478628D01*
X153690476Y-61478628D02*
X153690476Y-61764342D01*
X153690476Y-61764342D02*
X153642857Y-61859580D01*
X153642857Y-61859580D02*
X153595238Y-61907200D01*
X153595238Y-61907200D02*
X153500000Y-61954819D01*
X153500000Y-61954819D02*
X153357143Y-61954819D01*
X154880953Y-61954819D02*
X154880953Y-60954819D01*
X154880953Y-60954819D02*
X155214286Y-61669104D01*
X155214286Y-61669104D02*
X155547619Y-60954819D01*
X155547619Y-60954819D02*
X155547619Y-61954819D01*
X156023810Y-61954819D02*
X156023810Y-61288152D01*
X156023810Y-60954819D02*
X155976191Y-61002438D01*
X155976191Y-61002438D02*
X156023810Y-61050057D01*
X156023810Y-61050057D02*
X156071429Y-61002438D01*
X156071429Y-61002438D02*
X156023810Y-60954819D01*
X156023810Y-60954819D02*
X156023810Y-61050057D01*
X156500000Y-61288152D02*
X156500000Y-61954819D01*
X156500000Y-61383390D02*
X156547619Y-61335771D01*
X156547619Y-61335771D02*
X156642857Y-61288152D01*
X156642857Y-61288152D02*
X156785714Y-61288152D01*
X156785714Y-61288152D02*
X156880952Y-61335771D01*
X156880952Y-61335771D02*
X156928571Y-61431009D01*
X156928571Y-61431009D02*
X156928571Y-61954819D01*
X157404762Y-61954819D02*
X157404762Y-61288152D01*
X157404762Y-60954819D02*
X157357143Y-61002438D01*
X157357143Y-61002438D02*
X157404762Y-61050057D01*
X157404762Y-61050057D02*
X157452381Y-61002438D01*
X157452381Y-61002438D02*
X157404762Y-60954819D01*
X157404762Y-60954819D02*
X157404762Y-61050057D01*
X139761905Y-75557200D02*
X139904762Y-75604819D01*
X139904762Y-75604819D02*
X140142857Y-75604819D01*
X140142857Y-75604819D02*
X140238095Y-75557200D01*
X140238095Y-75557200D02*
X140285714Y-75509580D01*
X140285714Y-75509580D02*
X140333333Y-75414342D01*
X140333333Y-75414342D02*
X140333333Y-75319104D01*
X140333333Y-75319104D02*
X140285714Y-75223866D01*
X140285714Y-75223866D02*
X140238095Y-75176247D01*
X140238095Y-75176247D02*
X140142857Y-75128628D01*
X140142857Y-75128628D02*
X139952381Y-75081009D01*
X139952381Y-75081009D02*
X139857143Y-75033390D01*
X139857143Y-75033390D02*
X139809524Y-74985771D01*
X139809524Y-74985771D02*
X139761905Y-74890533D01*
X139761905Y-74890533D02*
X139761905Y-74795295D01*
X139761905Y-74795295D02*
X139809524Y-74700057D01*
X139809524Y-74700057D02*
X139857143Y-74652438D01*
X139857143Y-74652438D02*
X139952381Y-74604819D01*
X139952381Y-74604819D02*
X140190476Y-74604819D01*
X140190476Y-74604819D02*
X140333333Y-74652438D01*
X140666667Y-74604819D02*
X140904762Y-75604819D01*
X140904762Y-75604819D02*
X141095238Y-74890533D01*
X141095238Y-74890533D02*
X141285714Y-75604819D01*
X141285714Y-75604819D02*
X141523810Y-74604819D01*
X141761905Y-74604819D02*
X142333333Y-74604819D01*
X142047619Y-75604819D02*
X142047619Y-74604819D01*
X143238095Y-75509580D02*
X143190476Y-75557200D01*
X143190476Y-75557200D02*
X143047619Y-75604819D01*
X143047619Y-75604819D02*
X142952381Y-75604819D01*
X142952381Y-75604819D02*
X142809524Y-75557200D01*
X142809524Y-75557200D02*
X142714286Y-75461961D01*
X142714286Y-75461961D02*
X142666667Y-75366723D01*
X142666667Y-75366723D02*
X142619048Y-75176247D01*
X142619048Y-75176247D02*
X142619048Y-75033390D01*
X142619048Y-75033390D02*
X142666667Y-74842914D01*
X142666667Y-74842914D02*
X142714286Y-74747676D01*
X142714286Y-74747676D02*
X142809524Y-74652438D01*
X142809524Y-74652438D02*
X142952381Y-74604819D01*
X142952381Y-74604819D02*
X143047619Y-74604819D01*
X143047619Y-74604819D02*
X143190476Y-74652438D01*
X143190476Y-74652438D02*
X143238095Y-74700057D01*
X143666667Y-75604819D02*
X143666667Y-74604819D01*
X143666667Y-75081009D02*
X144238095Y-75081009D01*
X144238095Y-75604819D02*
X144238095Y-74604819D01*
X145238095Y-75604819D02*
X144666667Y-75604819D01*
X144952381Y-75604819D02*
X144952381Y-74604819D01*
X144952381Y-74604819D02*
X144857143Y-74747676D01*
X144857143Y-74747676D02*
X144761905Y-74842914D01*
X144761905Y-74842914D02*
X144666667Y-74890533D01*
X147416666Y-100506009D02*
X147559523Y-100553628D01*
X147559523Y-100553628D02*
X147607142Y-100601247D01*
X147607142Y-100601247D02*
X147654761Y-100696485D01*
X147654761Y-100696485D02*
X147654761Y-100839342D01*
X147654761Y-100839342D02*
X147607142Y-100934580D01*
X147607142Y-100934580D02*
X147559523Y-100982200D01*
X147559523Y-100982200D02*
X147464285Y-101029819D01*
X147464285Y-101029819D02*
X147083333Y-101029819D01*
X147083333Y-101029819D02*
X147083333Y-100029819D01*
X147083333Y-100029819D02*
X147416666Y-100029819D01*
X147416666Y-100029819D02*
X147511904Y-100077438D01*
X147511904Y-100077438D02*
X147559523Y-100125057D01*
X147559523Y-100125057D02*
X147607142Y-100220295D01*
X147607142Y-100220295D02*
X147607142Y-100315533D01*
X147607142Y-100315533D02*
X147559523Y-100410771D01*
X147559523Y-100410771D02*
X147511904Y-100458390D01*
X147511904Y-100458390D02*
X147416666Y-100506009D01*
X147416666Y-100506009D02*
X147083333Y-100506009D01*
X148511904Y-100363152D02*
X148511904Y-101029819D01*
X148083333Y-100363152D02*
X148083333Y-100886961D01*
X148083333Y-100886961D02*
X148130952Y-100982200D01*
X148130952Y-100982200D02*
X148226190Y-101029819D01*
X148226190Y-101029819D02*
X148369047Y-101029819D01*
X148369047Y-101029819D02*
X148464285Y-100982200D01*
X148464285Y-100982200D02*
X148511904Y-100934580D01*
X148845238Y-100363152D02*
X149226190Y-100363152D01*
X148988095Y-100029819D02*
X148988095Y-100886961D01*
X148988095Y-100886961D02*
X149035714Y-100982200D01*
X149035714Y-100982200D02*
X149130952Y-101029819D01*
X149130952Y-101029819D02*
X149226190Y-101029819D01*
X149416667Y-100363152D02*
X149797619Y-100363152D01*
X149559524Y-100029819D02*
X149559524Y-100886961D01*
X149559524Y-100886961D02*
X149607143Y-100982200D01*
X149607143Y-100982200D02*
X149702381Y-101029819D01*
X149702381Y-101029819D02*
X149797619Y-101029819D01*
X150273810Y-101029819D02*
X150178572Y-100982200D01*
X150178572Y-100982200D02*
X150130953Y-100934580D01*
X150130953Y-100934580D02*
X150083334Y-100839342D01*
X150083334Y-100839342D02*
X150083334Y-100553628D01*
X150083334Y-100553628D02*
X150130953Y-100458390D01*
X150130953Y-100458390D02*
X150178572Y-100410771D01*
X150178572Y-100410771D02*
X150273810Y-100363152D01*
X150273810Y-100363152D02*
X150416667Y-100363152D01*
X150416667Y-100363152D02*
X150511905Y-100410771D01*
X150511905Y-100410771D02*
X150559524Y-100458390D01*
X150559524Y-100458390D02*
X150607143Y-100553628D01*
X150607143Y-100553628D02*
X150607143Y-100839342D01*
X150607143Y-100839342D02*
X150559524Y-100934580D01*
X150559524Y-100934580D02*
X150511905Y-100982200D01*
X150511905Y-100982200D02*
X150416667Y-101029819D01*
X150416667Y-101029819D02*
X150273810Y-101029819D01*
X151035715Y-100363152D02*
X151035715Y-101029819D01*
X151035715Y-100458390D02*
X151083334Y-100410771D01*
X151083334Y-100410771D02*
X151178572Y-100363152D01*
X151178572Y-100363152D02*
X151321429Y-100363152D01*
X151321429Y-100363152D02*
X151416667Y-100410771D01*
X151416667Y-100410771D02*
X151464286Y-100506009D01*
X151464286Y-100506009D02*
X151464286Y-101029819D01*
X152464286Y-101029819D02*
X151892858Y-101029819D01*
X152178572Y-101029819D02*
X152178572Y-100029819D01*
X152178572Y-100029819D02*
X152083334Y-100172676D01*
X152083334Y-100172676D02*
X151988096Y-100267914D01*
X151988096Y-100267914D02*
X151892858Y-100315533D01*
X141285714Y-94241009D02*
X141428571Y-94288628D01*
X141428571Y-94288628D02*
X141476190Y-94336247D01*
X141476190Y-94336247D02*
X141523809Y-94431485D01*
X141523809Y-94431485D02*
X141523809Y-94574342D01*
X141523809Y-94574342D02*
X141476190Y-94669580D01*
X141476190Y-94669580D02*
X141428571Y-94717200D01*
X141428571Y-94717200D02*
X141333333Y-94764819D01*
X141333333Y-94764819D02*
X140952381Y-94764819D01*
X140952381Y-94764819D02*
X140952381Y-93764819D01*
X140952381Y-93764819D02*
X141285714Y-93764819D01*
X141285714Y-93764819D02*
X141380952Y-93812438D01*
X141380952Y-93812438D02*
X141428571Y-93860057D01*
X141428571Y-93860057D02*
X141476190Y-93955295D01*
X141476190Y-93955295D02*
X141476190Y-94050533D01*
X141476190Y-94050533D02*
X141428571Y-94145771D01*
X141428571Y-94145771D02*
X141380952Y-94193390D01*
X141380952Y-94193390D02*
X141285714Y-94241009D01*
X141285714Y-94241009D02*
X140952381Y-94241009D01*
X141904762Y-94479104D02*
X142380952Y-94479104D01*
X141809524Y-94764819D02*
X142142857Y-93764819D01*
X142142857Y-93764819D02*
X142476190Y-94764819D01*
X142666667Y-93764819D02*
X143238095Y-93764819D01*
X142952381Y-94764819D02*
X142952381Y-93764819D01*
X144095238Y-94764819D02*
X143523810Y-94764819D01*
X143809524Y-94764819D02*
X143809524Y-93764819D01*
X143809524Y-93764819D02*
X143714286Y-93907676D01*
X143714286Y-93907676D02*
X143619048Y-94002914D01*
X143619048Y-94002914D02*
X143523810Y-94050533D01*
X140857142Y-61359580D02*
X140809523Y-61407200D01*
X140809523Y-61407200D02*
X140666666Y-61454819D01*
X140666666Y-61454819D02*
X140571428Y-61454819D01*
X140571428Y-61454819D02*
X140428571Y-61407200D01*
X140428571Y-61407200D02*
X140333333Y-61311961D01*
X140333333Y-61311961D02*
X140285714Y-61216723D01*
X140285714Y-61216723D02*
X140238095Y-61026247D01*
X140238095Y-61026247D02*
X140238095Y-60883390D01*
X140238095Y-60883390D02*
X140285714Y-60692914D01*
X140285714Y-60692914D02*
X140333333Y-60597676D01*
X140333333Y-60597676D02*
X140428571Y-60502438D01*
X140428571Y-60502438D02*
X140571428Y-60454819D01*
X140571428Y-60454819D02*
X140666666Y-60454819D01*
X140666666Y-60454819D02*
X140809523Y-60502438D01*
X140809523Y-60502438D02*
X140857142Y-60550057D01*
X141476190Y-60454819D02*
X141666666Y-60454819D01*
X141666666Y-60454819D02*
X141761904Y-60502438D01*
X141761904Y-60502438D02*
X141857142Y-60597676D01*
X141857142Y-60597676D02*
X141904761Y-60788152D01*
X141904761Y-60788152D02*
X141904761Y-61121485D01*
X141904761Y-61121485D02*
X141857142Y-61311961D01*
X141857142Y-61311961D02*
X141761904Y-61407200D01*
X141761904Y-61407200D02*
X141666666Y-61454819D01*
X141666666Y-61454819D02*
X141476190Y-61454819D01*
X141476190Y-61454819D02*
X141380952Y-61407200D01*
X141380952Y-61407200D02*
X141285714Y-61311961D01*
X141285714Y-61311961D02*
X141238095Y-61121485D01*
X141238095Y-61121485D02*
X141238095Y-60788152D01*
X141238095Y-60788152D02*
X141285714Y-60597676D01*
X141285714Y-60597676D02*
X141380952Y-60502438D01*
X141380952Y-60502438D02*
X141476190Y-60454819D01*
X142285714Y-61407200D02*
X142428571Y-61454819D01*
X142428571Y-61454819D02*
X142666666Y-61454819D01*
X142666666Y-61454819D02*
X142761904Y-61407200D01*
X142761904Y-61407200D02*
X142809523Y-61359580D01*
X142809523Y-61359580D02*
X142857142Y-61264342D01*
X142857142Y-61264342D02*
X142857142Y-61169104D01*
X142857142Y-61169104D02*
X142809523Y-61073866D01*
X142809523Y-61073866D02*
X142761904Y-61026247D01*
X142761904Y-61026247D02*
X142666666Y-60978628D01*
X142666666Y-60978628D02*
X142476190Y-60931009D01*
X142476190Y-60931009D02*
X142380952Y-60883390D01*
X142380952Y-60883390D02*
X142333333Y-60835771D01*
X142333333Y-60835771D02*
X142285714Y-60740533D01*
X142285714Y-60740533D02*
X142285714Y-60645295D01*
X142285714Y-60645295D02*
X142333333Y-60550057D01*
X142333333Y-60550057D02*
X142380952Y-60502438D01*
X142380952Y-60502438D02*
X142476190Y-60454819D01*
X142476190Y-60454819D02*
X142714285Y-60454819D01*
X142714285Y-60454819D02*
X142857142Y-60502438D01*
X143285714Y-60931009D02*
X143619047Y-60931009D01*
X143761904Y-61454819D02*
X143285714Y-61454819D01*
X143285714Y-61454819D02*
X143285714Y-60454819D01*
X143285714Y-60454819D02*
X143761904Y-60454819D01*
X144190476Y-61454819D02*
X144190476Y-60454819D01*
X144190476Y-60454819D02*
X144761904Y-61454819D01*
X144761904Y-61454819D02*
X144761904Y-60454819D01*
X145190476Y-61407200D02*
X145333333Y-61454819D01*
X145333333Y-61454819D02*
X145571428Y-61454819D01*
X145571428Y-61454819D02*
X145666666Y-61407200D01*
X145666666Y-61407200D02*
X145714285Y-61359580D01*
X145714285Y-61359580D02*
X145761904Y-61264342D01*
X145761904Y-61264342D02*
X145761904Y-61169104D01*
X145761904Y-61169104D02*
X145714285Y-61073866D01*
X145714285Y-61073866D02*
X145666666Y-61026247D01*
X145666666Y-61026247D02*
X145571428Y-60978628D01*
X145571428Y-60978628D02*
X145380952Y-60931009D01*
X145380952Y-60931009D02*
X145285714Y-60883390D01*
X145285714Y-60883390D02*
X145238095Y-60835771D01*
X145238095Y-60835771D02*
X145190476Y-60740533D01*
X145190476Y-60740533D02*
X145190476Y-60645295D01*
X145190476Y-60645295D02*
X145238095Y-60550057D01*
X145238095Y-60550057D02*
X145285714Y-60502438D01*
X145285714Y-60502438D02*
X145380952Y-60454819D01*
X145380952Y-60454819D02*
X145619047Y-60454819D01*
X145619047Y-60454819D02*
X145761904Y-60502438D01*
D11*
%TO.C,DISP1*%
X156940000Y-93515000D02*
X156940000Y-99485000D01*
X156940000Y-99485000D02*
X169560000Y-99485000D01*
X156950000Y-97225000D02*
X157700000Y-97225000D01*
X156950000Y-98725000D02*
X156950000Y-99475000D01*
X156950000Y-99475000D02*
X158750000Y-99475000D01*
X157700000Y-94275000D02*
X163250000Y-94275000D01*
X157700000Y-97225000D02*
X157700000Y-94275000D01*
X158750000Y-98725000D02*
X156950000Y-98725000D01*
X158750000Y-99475000D02*
X158750000Y-98725000D01*
X160250000Y-98725000D02*
X160250000Y-99475000D01*
X160250000Y-99475000D02*
X166250000Y-99475000D01*
X166250000Y-98725000D02*
X160250000Y-98725000D01*
X166250000Y-99475000D02*
X166250000Y-98725000D01*
X167750000Y-98725000D02*
X167750000Y-99475000D01*
X167750000Y-99475000D02*
X169550000Y-99475000D01*
X168600000Y-99775000D02*
X169850000Y-99775000D01*
X168800000Y-94275000D02*
X163250000Y-94275000D01*
X168800000Y-97225000D02*
X168800000Y-94275000D01*
X169550000Y-97225000D02*
X168800000Y-97225000D01*
X169550000Y-98725000D02*
X167750000Y-98725000D01*
X169550000Y-99475000D02*
X169550000Y-98725000D01*
X169560000Y-93515000D02*
X156940000Y-93515000D01*
X169560000Y-99485000D02*
X169560000Y-93515000D01*
X169850000Y-99775000D02*
X169850000Y-98525000D01*
%TO.C,i2c*%
X158690000Y-71120000D02*
X158690000Y-68520000D01*
X161350000Y-68520000D02*
X158690000Y-68520000D01*
X161350000Y-71120000D02*
X158690000Y-71120000D01*
X161350000Y-71120000D02*
X161350000Y-68520000D01*
X161350000Y-72390000D02*
X161350000Y-73720000D01*
X161350000Y-73720000D02*
X160020000Y-73720000D01*
%TO.C,Pro Mini*%
X145990000Y-59630000D02*
X147320000Y-59630000D01*
X145990000Y-60960000D02*
X145990000Y-59630000D01*
X145990000Y-62230000D02*
X145990000Y-90230000D01*
X145990000Y-62230000D02*
X148650000Y-62230000D01*
X145990000Y-90230000D02*
X148650000Y-90230000D01*
X148650000Y-62230000D02*
X148650000Y-90230000D01*
%TO.C,SWTCH1*%
X139490000Y-83100000D02*
X139490000Y-84350000D01*
X139490000Y-84350000D02*
X140740000Y-84350000D01*
X139780000Y-76440000D02*
X139780000Y-84060000D01*
X139780000Y-84060000D02*
X145750000Y-84060000D01*
X139790000Y-76450000D02*
X139790000Y-78250000D01*
X139790000Y-78250000D02*
X140540000Y-78250000D01*
X139790000Y-79750000D02*
X139790000Y-80750000D01*
X139790000Y-80750000D02*
X140540000Y-80750000D01*
X139790000Y-82250000D02*
X139790000Y-84050000D01*
X139790000Y-84050000D02*
X140540000Y-84050000D01*
X140540000Y-76450000D02*
X139790000Y-76450000D01*
X140540000Y-78250000D02*
X140540000Y-76450000D01*
X140540000Y-79750000D02*
X139790000Y-79750000D01*
X140540000Y-80750000D02*
X140540000Y-79750000D01*
X140540000Y-82250000D02*
X139790000Y-82250000D01*
X140540000Y-84050000D02*
X140540000Y-82250000D01*
X142040000Y-76450000D02*
X142040000Y-77200000D01*
X142040000Y-77200000D02*
X144990000Y-77200000D01*
X142040000Y-83300000D02*
X144990000Y-83300000D01*
X142040000Y-84050000D02*
X142040000Y-83300000D01*
X144990000Y-77200000D02*
X144990000Y-80250000D01*
X144990000Y-83300000D02*
X144990000Y-80250000D01*
X145750000Y-76440000D02*
X139780000Y-76440000D01*
X145750000Y-84060000D02*
X145750000Y-76440000D01*
%TO.C,Button1*%
X144690000Y-93515000D02*
X144690000Y-99485000D01*
X144690000Y-99485000D02*
X154810000Y-99485000D01*
X144700000Y-97225000D02*
X145450000Y-97225000D01*
X144700000Y-98725000D02*
X144700000Y-99475000D01*
X144700000Y-99475000D02*
X146500000Y-99475000D01*
X145450000Y-94275000D02*
X149750000Y-94275000D01*
X145450000Y-97225000D02*
X145450000Y-94275000D01*
X146500000Y-98725000D02*
X144700000Y-98725000D01*
X146500000Y-99475000D02*
X146500000Y-98725000D01*
X148000000Y-98725000D02*
X148000000Y-99475000D01*
X148000000Y-99475000D02*
X151500000Y-99475000D01*
X151500000Y-98725000D02*
X148000000Y-98725000D01*
X151500000Y-99475000D02*
X151500000Y-98725000D01*
X153000000Y-98725000D02*
X153000000Y-99475000D01*
X153000000Y-99475000D02*
X154800000Y-99475000D01*
X153850000Y-99775000D02*
X155100000Y-99775000D01*
X154050000Y-94275000D02*
X149750000Y-94275000D01*
X154050000Y-97225000D02*
X154050000Y-94275000D01*
X154800000Y-97225000D02*
X154050000Y-97225000D01*
X154800000Y-98725000D02*
X153000000Y-98725000D01*
X154800000Y-99475000D02*
X154800000Y-98725000D01*
X154810000Y-93515000D02*
X144690000Y-93515000D01*
X154810000Y-99485000D02*
X154810000Y-93515000D01*
X155100000Y-99775000D02*
X155100000Y-98525000D01*
%TO.C,BAT1*%
X139490000Y-92100000D02*
X139490000Y-93350000D01*
X139490000Y-93350000D02*
X140740000Y-93350000D01*
X139780000Y-85440000D02*
X139780000Y-93060000D01*
X139780000Y-93060000D02*
X145750000Y-93060000D01*
X139790000Y-85450000D02*
X139790000Y-87250000D01*
X139790000Y-87250000D02*
X140540000Y-87250000D01*
X139790000Y-88750000D02*
X139790000Y-89750000D01*
X139790000Y-89750000D02*
X140540000Y-89750000D01*
X139790000Y-91250000D02*
X139790000Y-93050000D01*
X139790000Y-93050000D02*
X140540000Y-93050000D01*
X140540000Y-85450000D02*
X139790000Y-85450000D01*
X140540000Y-87250000D02*
X140540000Y-85450000D01*
X140540000Y-88750000D02*
X139790000Y-88750000D01*
X140540000Y-89750000D02*
X140540000Y-88750000D01*
X140540000Y-91250000D02*
X139790000Y-91250000D01*
X140540000Y-93050000D02*
X140540000Y-91250000D01*
X142040000Y-85450000D02*
X142040000Y-86200000D01*
X142040000Y-86200000D02*
X144990000Y-86200000D01*
X142040000Y-92300000D02*
X144990000Y-92300000D01*
X142040000Y-93050000D02*
X142040000Y-92300000D01*
X144990000Y-86200000D02*
X144990000Y-89250000D01*
X144990000Y-92300000D02*
X144990000Y-89250000D01*
X145750000Y-85440000D02*
X139780000Y-85440000D01*
X145750000Y-93060000D02*
X145750000Y-85440000D01*
%TO.C,COSENS*%
X139750000Y-71100000D02*
X139750000Y-72350000D01*
X139750000Y-72350000D02*
X141000000Y-72350000D01*
X140040000Y-61940000D02*
X140040000Y-72060000D01*
X140040000Y-72060000D02*
X146010000Y-72060000D01*
X140050000Y-61950000D02*
X140050000Y-63750000D01*
X140050000Y-63750000D02*
X140800000Y-63750000D01*
X140050000Y-65250000D02*
X140050000Y-68750000D01*
X140050000Y-68750000D02*
X140800000Y-68750000D01*
X140050000Y-70250000D02*
X140050000Y-72050000D01*
X140050000Y-72050000D02*
X140800000Y-72050000D01*
X140800000Y-61950000D02*
X140050000Y-61950000D01*
X140800000Y-63750000D02*
X140800000Y-61950000D01*
X140800000Y-65250000D02*
X140050000Y-65250000D01*
X140800000Y-68750000D02*
X140800000Y-65250000D01*
X140800000Y-70250000D02*
X140050000Y-70250000D01*
X140800000Y-72050000D02*
X140800000Y-70250000D01*
X142300000Y-61950000D02*
X142300000Y-62700000D01*
X142300000Y-62700000D02*
X145250000Y-62700000D01*
X142300000Y-71300000D02*
X145250000Y-71300000D01*
X142300000Y-72050000D02*
X142300000Y-71300000D01*
X145250000Y-62700000D02*
X145250000Y-67000000D01*
X145250000Y-71300000D02*
X145250000Y-67000000D01*
X146010000Y-61940000D02*
X140040000Y-61940000D01*
X146010000Y-72060000D02*
X146010000Y-61940000D01*
%TO.C,ProMini2*%
X161230000Y-59630000D02*
X162560000Y-59630000D01*
X161230000Y-60960000D02*
X161230000Y-59630000D01*
X161230000Y-62230000D02*
X161230000Y-90230000D01*
X161230000Y-62230000D02*
X163890000Y-62230000D01*
X161230000Y-90230000D02*
X163890000Y-90230000D01*
X163890000Y-62230000D02*
X163890000Y-90230000D01*
%TD*%
M02*
